SplineFontDB: 3.0
FontName: LinBiolinumOKb
FullName: Linux Biolinum O Keyboard
FamilyName: Linux Biolinum O Kb
Weight: Regular
Copyright: Linux Libertine by Philipp H. Poll, Open Font under Terms of following Free Software Licenses:\nGPL (General Public License) with font-exception and OFL (Open Font License).\nCreated with FontForge (http://fontforge.sf.net) Sept 2003, 2004, 2005, 2006, 2007, 2008
UComments: "2003-08-29: Created.+AAoA-2004-07-25: v(1.0) release candidate+AAoA-2005-12-28: v(1.1.0) stable+AAoA-2006-01-01: v(2.0.0) stable+AAoA-2006-09-05: v(2.2.0) stable+AAoA-2006-12-04: v(2.3.0) stable+AAoA-2007-03-11: v(2.4.0) stable+AAoA-2007-12-00: v(2.7.0) stable+AAoA-2008-06-00: v(2.8.14) stable+AAoA" 
Version: 0.4.4
ItalicAngle: 0
UnderlinePosition: -98
UnderlineWidth: 40
Ascent: 754
Descent: 246
LayerCount: 3
Layer: 0 0 "Back"  1
Layer: 1 0 "Fore"  0
Layer: 2 0 "Frame"  0
NeedsXUIDChange: 1
XUID: [1021 993 1524925707 2876416]
FSType: 0
OS2Version: 0
OS2_WeightWidthSlopeOnly: 0
OS2_UseTypoMetrics: 0
CreationTime: 1156455862
ModificationTime: 1248299453
PfmFamily: 17
TTFWeight: 700
TTFWidth: 5
LineGap: 0
VLineGap: 0
OS2TypoAscent: 894
OS2TypoAOffset: 0
OS2TypoDescent: -246
OS2TypoDOffset: 0
OS2TypoLinegap: 0
OS2WinAscent: 894
OS2WinAOffset: 0
OS2WinDescent: 246
OS2WinDOffset: 0
HheadAscent: 894
HheadAOffset: 0
HheadDescent: -246
HheadDOffset: 0
OS2FamilyClass: 261
OS2Vendor: 'PfEd'
Lookup: 3 0 0 "'aalt' Alle Alternativen zeigen"  {"'aalt' Alle Alternativen zeigen 1"  } ['aalt' ('DFLT' <'dflt' > 'cyrl' <'dflt' > 'grek' <'dflt' > 'latn' <'AZE ' 'CRT ' 'DEU ' 'MOL ' 'ROM ' 'TRK ' 'dflt' > ) ]
Lookup: 1 0 0 "'locl' Localized Forms Romaenisch"  {"'locl' Localized Forms Romaenisch 1"  } ['locl' ('latn' <'MOL ' 'ROM ' > ) ]
Lookup: 1 0 0 "'smcp' Gemeine nach Kapitaelchen i > i.sc"  {"'smcp' Gemeine nach Kapitaelchen i > i.sc 1"  } ['smcp' ('DFLT' <'dflt' > 'cyrl' <'dflt' > 'grek' <'dflt' > 'latn' <'DEU ' 'MOL ' 'ROM ' 'dflt' > ) ]

StartChar: exclam
Encoding: 33 33 0
Width: 1100
VWidth: 999
Flags: HW
HStem: 73 92<516 574> 559 15G<534 554>
VStem: 498 91<411 562> 498 93<88 147>
LayerCount: 3
Fore
SplineSet
1000 -84 m 6
 1000 -174 971 -212 881 -212 c 6
 249 -212 l 6
 159 -212 120 -174 120 -84 c 6
 120 625 l 6
 120 708 168 754 249 754 c 6
 851 754 l 6
 941 754 1000 715 1000 625 c 6
 1000 -84 l 6
249 718 m 6
 189 718 156 685 156 625 c 6
 156 -53 l 6
 156 -113 189 -136 249 -136 c 6
 821 -136 l 6
 881 -136 904 -113 904 -53 c 6
 904 625 l 6
 904 685 881 718 821 718 c 6
 249 718 l 6
493 80 m 1
 493 83 l 1
 502 105 514 118 539 128 c 1
 541 128 l 1
 565 119 578 107 587 83 c 1
 587 80 l 1
 577 53 565 41 541 35 c 1
 539 35 l 1
 512 41 501 53 493 80 c 1
542 534 m 3xe0
 564 534 588 517 588 480 c 3
 588 431 575 399 567 335 c 0
 556 254 555 209 554 198 c 0
 553 190 550 183 542 183 c 3
 533 183 531 189 531 193 c 0
 529 209 525 276 518 335 c 0
 510 401 497 427 497 480 c 3
 497 520 524 534 542 534 c 3xe0
EndSplineSet
Colour: ff80cc
EndChar

StartChar: quotedbl
Encoding: 34 34 1
Width: 1100
VWidth: 999
Flags: HW
HStem: 449 167<475 499 486 499> 450 167<570 594 580 594>
LayerCount: 3
Fore
SplineSet
1000 -84 m 6
 1000 -174 971 -212 881 -212 c 6
 249 -212 l 6
 159 -212 120 -174 120 -84 c 6
 120 625 l 6
 120 708 168 754 249 754 c 6
 851 754 l 6
 941 754 1000 715 1000 625 c 6
 1000 -84 l 6
249 718 m 6
 189 718 156 685 156 625 c 6
 156 -53 l 6
 156 -113 189 -136 249 -136 c 6
 821 -136 l 6
 881 -136 904 -113 904 -53 c 6
 904 625 l 6
 904 685 881 718 821 718 c 6
 249 718 l 6
468 399 m 1
 457 402 l 1
 457 402 433 522 433 526 c 3
 433 544 449 567 482 567 c 3
 513 567 515 553 515 539 c 3
 515 528 488 404 488 404 c 1
 468 399 l 1
562 400 m 1
 551 403 l 1
 551 403 527 523 527 527 c 3
 527 545 543 568 576 568 c 3
 607 568 609 554 609 540 c 3
 609 529 582 405 582 405 c 1
 562 400 l 1
EndSplineSet
Colour: ff00ff
EndChar

StartChar: numbersign
Encoding: 35 35 2
Width: 1100
Flags: HW
HStem: 208 42<386 446 506 554 611 678> 324 42<405 465 524 572 630 696>
DStem2: 427 82 480 82 0.157407 0.987534<8.30078 127.519 178.504 246.489 297.475 416.331> 534 82 584 82 0.155692 0.987806<7.92518 127.52 178.072 246.491 297.043 416.276>
LayerCount: 3
Fore
SplineSet
1000 -84 m 6
 1000 -174 971 -212 881 -212 c 6
 249 -212 l 6
 159 -212 120 -174 120 -84 c 6
 120 625 l 6
 120 708 168 754 249 754 c 6
 851 754 l 6
 941 754 1000 715 1000 625 c 6
 1000 -84 l 6
249 718 m 6
 189 718 156 685 156 625 c 6
 156 -53 l 6
 156 -113 189 -136 249 -136 c 6
 821 -136 l 6
 881 -136 904 -113 904 -53 c 6
 904 625 l 6
 904 685 881 718 821 718 c 6
 249 718 l 6
623 304 m 1
 611 230 l 1
 684 230 l 1
 678 188 l 1
 605 188 l 1
 598 146 591 102 584 62 c 1
 534 62 l 1
 554 188 l 1
 500 188 l 1
 493 146 487 102 480 62 c 1
 427 62 l 1
 446 188 l 1
 380 188 l 1
 386 230 l 1
 453 230 l 1
 458 256 462 278 465 304 c 1
 398 304 l 1
 405 347 l 1
 472 347 l 1
 479 388 486 432 492 472 c 1
 546 472 l 1
 524 347 l 1
 578 347 l 1
 585 388 591 432 598 472 c 1
 649 472 l 1
 630 347 l 1
 702 347 l 1
 696 304 l 1
 623 304 l 1
560 230 m 1
 572 304 l 1
 519 304 l 1
 515 278 511 256 506 230 c 1
 560 230 l 1
EndSplineSet
EndChar

StartChar: dollar
Encoding: 36 36 3
Width: 1100
VWidth: 999
Flags: HW
HStem: 61 35<464 592> 464 33<494 611>
VStem: 397 78<358 437> 530 33<8 538> 615 84<134 220>
LayerCount: 3
Back
SplineSet
92 12 m 0
 76 12 79 1 58 1 c 1x6e
 58 38 50 90 42 146 c 1
 68 149 l 1
 85 83 136 23 214 23 c 0
 251 23 328 42 328 127 c 0xb6
 328 229 237 247 203 262 c 0
 144 288 46 333 46 434 c 0
 46 528 147 572 215 572 c 0
 272 572 307 564 348 564 c 1
 351 519 360 470 368 421 c 1
 342 417 l 1xad
 337 435 l 2
 315 507 281 542 215 542 c 0
 161 542 110 504 110 438 c 0
 110 379 188 344 225 330 c 0
 279 310 400 262 400 156 c 0
 400 122 391 -10 214 -10 c 0xae
 149 -10 113 12 92 12 c 0
46.875 578.125 m 25
 347.168 578.125 l 25
0 572.012 m 1
 438.965 572.012 l 1
 438.965 0 l 1
 0 0 l 1
 0 572.012 l 1
EndSplineSet
Fore
SplineSet
1000 -84 m 6
 1000 -174 971 -212 881 -212 c 6
 249 -212 l 6
 159 -212 120 -174 120 -84 c 6
 120 625 l 6
 120 708 168 754 249 754 c 6
 851 754 l 6
 941 754 1000 715 1000 625 c 6
 1000 -84 l 6
249 718 m 6
 189 718 156 685 156 625 c 6
 156 -53 l 6
 156 -113 189 -136 249 -136 c 6
 821 -136 l 6
 881 -136 904 -113 904 -53 c 6
 904 625 l 6
 904 685 881 718 821 718 c 6
 249 718 l 6
534 83 m 3
 580 83 615 103 615 153 c 3
 615 211 585 224 545 240 c 0
 486 263 397 298 397 372 c 3
 397 448 483 484 551 484 c 3
 631 484 672 455 672 455 c 1
 674 453 l 1
 668 433 663 399 661 375 c 1
 654 375 l 1
 636 415 592 451 545 451 c 3
 502 451 475 429 475 389 c 3
 475 335 527 315 555 305 c 0
 610 285 699 253 699 177 c 3
 699 99 615 48 528 48 c 3
 454 48 394 78 394 78 c 1
 393 80 l 1
 398 99 404 135 406 159 c 1
 412 159 l 1
 431 119 490 83 534 83 c 3
530 -5 m 1
 530 525 l 1
 562 525 l 1
 562 -5 l 1
 530 -5 l 1
EndSplineSet
EndChar

StartChar: percent
Encoding: 37 37 4
Width: 1100
VWidth: 999
Flags: HW
HStem: 54 25<645 690> 229 27<670 719> 292 25<403 446> 424 34<515 647> 466 27<427 479>
VStem: 344 52<321 431> 484 32<360 440> 585 51<85 190> 726 32<120 225>
DStem2: 376 66 417 57 0.588938 0.808178<16.5784 465.337 488.288 531.946>
LayerCount: 3
Back
SplineSet
357.494 492.437 m 4
 360.602 492.437 361.489 492.881 362.821 492.881 c 4
 390.786 491.548 465.804 496.875 506.641 541.265 c 5
 524.399 518.628 l 5
 479.121 468.911 424.078 466.691 364.597 461.809 c 6
 357.494 461.365 l 6
 320.207 461.365 264.721 487.998 248.74 499.985 c 5
 263.39 521.733 l 5
 263.39 521.733 309.11 492.437 357.494 492.437 c 4
460.921 37.0049 m 4
 474.238 31.6777 487.999 35.2285 503.979 45.8828 c 4
 523.511 57.8672 534.609 80.5059 543.931 106.252 c 4
 553.252 130.666 558.135 156.411 555.913 179.05 c 4
 553.696 199.469 545.703 213.674 528.394 220.775 c 4
 527.949 221.22 l 4
 510.64 227.878 493.77 219.443 481.34 208.347 c 4
 464.028 193.254 454.263 175.942 445.385 153.748 c 4
 434.288 126.67 429.849 100.925 433.844 76.9551 c 4
 437.395 56.5352 445.829 43.2188 460.921 37.0049 c 4
579.438 200.801 m 4
 589.204 172.836 582.993 134.66 570.117 98.2617 c 4
 557.246 64.082 535.493 34.3408 510.64 20.1367 c 4
 481.784 3.71289 454.263 6.37598 433.844 16.1416 c 4
 412.537 26.7949 402.327 40.1123 392.118 68.9648 c 4
 383.24 93.8223 382.796 129.777 397.001 163.514 c 4
 410.762 198.137 432.068 224.326 461.809 240.751 c 4
 485.779 253.18 511.968 256.287 540.376 245.189 c 4
 566.567 234.536 570.117 228.766 579.438 200.801 c 4
546.592 542.153 m 5
 166.621 12.1465 l 5
 126.227 12.1465 l 5
 507.085 542.153 l 5
 546.592 542.153 l 5
168.396 323.759 m 4
 181.713 317.988 195.474 321.982 211.454 332.192 c 4
 230.985 344.621 242.083 366.816 251.848 393.006 c 4
 260.726 416.977 265.608 443.166 263.39 465.805 c 4
 261.17 486.223 253.18 500.43 235.868 507.529 c 4
 235.424 507.529 l 4
 218.112 514.189 201.244 505.757 188.815 495.103 c 4
 171.504 479.564 161.738 462.697 152.86 440.059 c 4
 141.763 412.98 137.324 387.68 141.318 363.266 c 4
 144.87 343.29 153.305 329.529 168.396 323.759 c 4
286.916 487.111 m 4
 296.682 459.146 290.467 420.971 277.594 384.572 c 4
 264.721 350.393 243.414 321.096 218.112 306.447 c 4
 189.259 290.023 161.738 293.13 141.763 302.451 c 4
 120.013 313.105 109.803 326.865 99.5928 355.275 c 4
 90.7158 380.133 90.7158 416.088 104.476 450.268 c 4
 118.236 484.892 139.544 510.64 169.284 527.061 c 4
 193.255 539.937 219.443 543.042 247.853 531.943 c 4
 274.043 520.845 277.594 515.078 286.916 487.111 c 4
EndSplineSet
Fore
SplineSet
1000 -84 m 6
 1000 -174 971 -212 881 -212 c 6
 249 -212 l 6
 159 -212 120 -174 120 -84 c 6
 120 625 l 6
 120 708 168 754 249 754 c 6
 851 754 l 6
 941 754 1000 715 1000 625 c 6
 1000 -84 l 6
249 718 m 6
 189 718 156 685 156 625 c 6
 156 -53 l 6
 156 -113 189 -136 249 -136 c 6
 821 -136 l 6
 881 -136 904 -113 904 -53 c 6
 904 625 l 6
 904 685 881 718 821 718 c 6
 249 718 l 6
396 343 m 3
 396 314 407 296 420 296 c 3
 455 296 484 360 484 404 c 3
 484 440 468 446 455 446 c 3
 418 446 396 386 396 343 c 3
577 438 m 3
 609 438 659 442 690 476 c 1
 725 460 l 1
 417 37 l 1
 376 46 l 1
 651 422 l 1
 621 410 592 404 570 404 c 3
 552 404 528 412 514 420 c 1
 516 414 516 410 516 404 c 3
 516 341 477 272 412 272 c 3
 366 272 344 303 344 353 c 3
 344 417 385 472 447 472 c 3
 468 472 489 466 497 457 c 1
 537 438 564 438 577 438 c 3
585 117 m 3
 585 177 621 236 688 236 c 3
 724 236 757 222 757 168 c 3
 757 94 717 34 657 34 c 3
 611 34 585 68 585 117 c 3
636 106 m 3
 636 77 648 59 662 59 c 3
 701 59 726 125 726 166 c 3
 726 206 707 209 696 209 c 3
 664 209 636 149 636 106 c 3
EndSplineSet
EndChar

StartChar: parenleft
Encoding: 40 40 5
Width: 1100
VWidth: 999
Flags: HW
VStem: 437 91<152 353>
LayerCount: 3
Back
SplineSet
101.562 -0.488281 m 4
 64.4531 81.0547 43.9453 164.551 43.9453 251.953 c 4
 43.9453 342.773 62.9883 424.805 102.051 503.418 c 4
 124.023 548.828 168.945 632.324 256.348 707.031 c 5
 273.926 689.453 l 5
 203.613 610.352 173.828 533.203 160.156 491.699 c 4
 134.277 416.504 121.582 337.891 121.582 251.953 c 4
 121.582 166.504 133.789 85.9375 160.156 10.7422 c 4
 174.316 -31.7383 203.613 -108.398 273.926 -187.012 c 5
 256.348 -203.613 l 5
 188.477 -145.02 138.184 -79.5898 101.562 -0.488281 c 4
EndSplineSet
Fore
SplineSet
1000 -84 m 6
 1000 -174 971 -212 881 -212 c 6
 249 -212 l 6
 159 -212 120 -174 120 -84 c 6
 120 625 l 6
 120 708 168 754 249 754 c 6
 851 754 l 6
 941 754 1000 715 1000 625 c 6
 1000 -84 l 6
249 718 m 6
 189 718 156 685 156 625 c 6
 156 -53 l 6
 156 -113 189 -136 249 -136 c 6
 821 -136 l 6
 881 -136 904 -113 904 -53 c 6
 904 625 l 6
 904 685 881 718 821 718 c 6
 249 718 l 6
437 252 m 3
 437 379 521 517 610 593 c 1
 634 572 l 1
 610 545 528 449 528 252 c 3
 528 55 609 -41 634 -70 c 1
 610 -90 l 1
 467 33 437 186 437 252 c 3
EndSplineSet
Substitution2: "'c2sc' Versale nach Kapitaelchen 1" parenleft.sc
AlternateSubs2: "'aalt' Alle Alternativen zeigen 1" parenleft.sc
Substitution2: "'sinf' Wissenschaftliche Indices 1" parenleft.inferior
Substitution2: "'sups' Hochgestellte 1" parenleft.superior
Substitution2: "'case' Versalformen 1" parenleft.sc
EndChar

StartChar: parenright
Encoding: 41 41 6
Width: 1100
VWidth: 999
Flags: HW
VStem: 572 91<152 353>
LayerCount: 3
Fore
SplineSet
1000 -84 m 6
 1000 -174 971 -212 881 -212 c 6
 249 -212 l 6
 159 -212 120 -174 120 -84 c 6
 120 625 l 6
 120 708 168 754 249 754 c 6
 851 754 l 6
 941 754 1000 715 1000 625 c 6
 1000 -84 l 6
249 718 m 6
 189 718 156 685 156 625 c 6
 156 -53 l 6
 156 -113 189 -136 249 -136 c 6
 821 -136 l 6
 881 -136 904 -113 904 -53 c 6
 904 625 l 6
 904 685 881 718 821 718 c 6
 249 718 l 6
663 252 m 3
 663 186 633 33 490 -90 c 1
 466 -70 l 1
 491 -41 572 55 572 252 c 3
 572 449 490 545 466 572 c 1
 490 593 l 1
 579 517 663 379 663 252 c 3
EndSplineSet
Substitution2: "'c2sc' Versale nach Kapitaelchen 1" parenright.sc
AlternateSubs2: "'aalt' Alle Alternativen zeigen 1" parenright.sc
Substitution2: "'sinf' Wissenschaftliche Indices 1" parenright.inferior
Substitution2: "'sups' Hochgestellte 1" parenright.superior
Substitution2: "'case' Versalformen 1" parenright.sc
Colour: ff00ff
EndChar

StartChar: asterisk
Encoding: 42 42 7
Width: 1100
VWidth: 999
Flags: HMW
HStem: 574 52<482 531 619 675>
VStem: 543 58<613 681>
LayerCount: 3
Back
SplineSet
155.273 557.129 m 4
 123.535 558.105 102.051 560.547 92.2852 566.406 c 4
 82.0312 572.266 76.6602 580.078 75.1953 588.867 c 4
 74.707 591.309 74.707 592.773 74.707 594.727 c 4
 74.707 600.586 76.1719 605.957 79.5898 610.84 c 4
 84.9609 619.141 91.7969 622.07 99.1211 623.535 c 4
 102.539 624.512 104.98 624.512 107.91 624.512 c 4
 114.258 624.512 119.629 623.535 125 621.582 c 4
 135.254 618.164 149.902 607.91 167.969 594.238 c 4
 180.176 584.473 192.383 578.125 204.102 573.242 c 5
 202.637 587.891 199.219 601.562 194.824 613.77 c 4
 186.035 637.207 181.641 653.32 181.152 663.086 c 4
 181.152 663.086 181.152 664.062 181.152 664.551 c 4
 181.152 673.828 183.105 681.641 187.012 688.477 c 4
 191.406 696.289 197.266 700.684 205.078 703.125 c 4
 208.496 704.102 210.938 704.59 213.867 704.102 c 4
 219.238 704.102 223.145 703.125 227.539 700.684 c 4
 236.816 695.312 241.699 687.012 243.652 677.734 c 4
 244.141 674.805 244.141 672.363 244.141 669.434 c 4
 244.141 656.25 239.746 637.207 233.398 614.746 c 4
 229.004 598.633 225.586 584.473 224.609 572.754 c 5
 238.281 578.613 250 585.449 260.742 593.75 c 4
 280.273 608.887 294.434 618.164 303.223 621.094 c 4
 309.57 623.535 314.941 624.023 320.312 624.023 c 4
 323.73 624.023 326.172 624.023 329.102 623.047 c 4
 338.379 621.582 344.238 617.188 348.633 610.352 c 4
 352.051 604.98 353.516 600.098 353.516 594.238 c 4
 353.516 591.797 353.516 590.332 353.027 588.379 c 4
 351.074 578.613 345.215 571.289 335.938 565.918 c 4
 324.707 559.57 300.781 557.617 272.949 557.129 c 4
 256.348 556.641 242.188 555.176 230.469 553.223 c 5
 240.723 541.992 251.465 533.203 262.207 526.367 c 4
 282.715 513.184 296.387 502.93 302.246 495.605 c 4
 308.594 487.793 312.012 479.98 312.988 471.68 c 4
 313.477 469.727 313.477 468.262 313.477 466.797 c 4
 313.477 459.473 311.523 454.102 307.617 449.219 c 4
 302.734 442.383 296.387 438.477 288.574 437.5 c 4
 286.621 437.012 285.645 437.012 284.18 437.012 c 4
 274.902 437.012 267.578 440.918 261.719 446.289 c 4
 251.953 454.59 241.699 475.586 231.934 501.953 c 4
 225.586 518.555 219.727 531.25 213.379 541.504 c 5
 207.031 530.273 201.172 517.578 195.312 501.953 c 4
 184.082 472.656 174.316 453.125 165.527 446.289 c 4
 158.203 439.941 150.879 437.012 143.066 437.012 c 4
 141.113 437.012 140.137 437.012 138.672 437.5 c 4
 129.395 438.965 124.023 442.871 119.141 449.219 c 4
 115.234 455.078 113.281 460.449 113.77 466.797 c 4
 113.77 468.75 113.77 470.215 113.77 471.68 c 4
 115.234 480.469 119.141 488.281 124.512 495.605 c 4
 131.348 503.906 146.484 514.648 165.039 526.367 c 4
 178.711 534.668 189.453 543.945 198.242 553.711 c 5
 185.059 556.152 170.41 557.129 155.273 557.129 c 4
EndSplineSet
Fore
SplineSet
1000 -84 m 6
 1000 -174 971 -212 881 -212 c 6
 249 -212 l 6
 159 -212 120 -174 120 -84 c 6
 120 625 l 6
 120 708 168 754 249 754 c 6
 851 754 l 6
 941 754 1000 715 1000 625 c 6
 1000 -84 l 6
249 718 m 6
 189 718 156 685 156 625 c 6
 156 -53 l 6
 156 -113 189 -136 249 -136 c 6
 821 -136 l 6
 881 -136 904 -113 904 -53 c 6
 904 625 l 6
 904 685 881 718 821 718 c 6
 249 718 l 6
521 441 m 1
 512 442 502 446 491 444 c 0
 457 438 430 438 430 472 c 0
 430 483 437 496 455 496 c 0
 480 496 493 471 526 457 c 1
 523 487 503 506 503 525 c 0
 503 541 518 555 532 555 c 0
 545 555 562 546 562 528 c 0
 562 508 545 480 543 457 c 1
 577 471 585 498 610 498 c 0
 633 498 639 480 639 472 c 0
 639 450 614 442 587 442 c 0
 573 442 560 442 547 440 c 1
 572 413 611 414 611 376 c 0
 611 363 597 354 587 354 c 0
 550 354 552 401 533 430 c 1
 515 396 525 354 481 354 c 0
 468 354 459 364 459 375 c 0
 459 416 497 412 521 441 c 1
EndSplineSet
EndChar

StartChar: plus
Encoding: 43 43 8
Width: 1100
Flags: W
HStem: -212 76<179.2 885.174> 204 56<385 513 569 697> 718 36<188.821 875.472>
VStem: 120 36<-107.953 686.051> 513 56<82 204 260 383> 904 96<-118.923 694.8>
LayerCount: 3
Back
SplineSet
-58 257 m 29
 565 257 l 29
0 572 m 5
 527 572 l 5
 527 0 l 5
 0 0 l 5
 0 572 l 5
EndSplineSet
Fore
SplineSet
1000 -84 m 2
 1000 -174 971 -212 881 -212 c 2
 249 -212 l 2
 159 -212 120 -174 120 -84 c 2
 120 625 l 2
 120 708 168 754 249 754 c 2
 851 754 l 2
 941 754 1000 715 1000 625 c 2
 1000 -84 l 2
249 718 m 2
 189 718 156 685 156 625 c 2
 156 -53 l 2
 156 -113 189 -136 249 -136 c 2
 821 -136 l 2
 881 -136 904 -113 904 -53 c 2
 904 625 l 2
 904 685 881 718 821 718 c 2
 249 718 l 2
569 260 m 5
 697 260 l 5
 697 204 l 5
 569 204 l 5
 569 82 l 5
 513 82 l 5
 513 204 l 5
 385 204 l 5
 385 260 l 5
 513 260 l 5
 513 383 l 5
 569 383 l 5
 569 260 l 5
EndSplineSet
AlternateSubs2: "'aalt' Alle Alternativen zeigen 1" plus.superior plus.inferior uni2098
Substitution2: "'sinf' Wissenschaftliche Indices 1" plus.inferior
Substitution2: "'sups' Hochgestellte 1" plus.superior
EndChar

StartChar: slash
Encoding: 47 47 9
Width: 1100
VWidth: 999
Flags: HW
HStem: 543 15G<595 645>
VStem: 422 223
DStem2: 422 29 467 29 0.318647 0.947874<14.3391 557.828>
LayerCount: 3
Back
SplineSet
267.97 661.299 m 1
 50.0186 17.6553 l 1
 14.5068 17.6553 l 1
 232.458 661.299 l 1
 267.97 661.299 l 1
EndSplineSet
Fore
SplineSet
1000 -84 m 6
 1000 -174 971 -212 881 -212 c 6
 249 -212 l 6
 159 -212 120 -174 120 -84 c 6
 120 625 l 6
 120 708 168 754 249 754 c 6
 851 754 l 6
 941 754 1000 715 1000 625 c 6
 1000 -84 l 6
249 718 m 6
 189 718 156 685 156 625 c 6
 156 -53 l 6
 156 -113 189 -136 249 -136 c 6
 821 -136 l 6
 881 -136 904 -113 904 -53 c 6
 904 625 l 6
 904 685 881 718 821 718 c 6
 249 718 l 6
645 558 m 1
 467 29 l 1
 422 29 l 1
 600 558 l 1
 645 558 l 1
EndSplineSet
Ligature2: "'frac' Brueche 1" uni2215
AlternateSubs2: "'aalt' Alle Alternativen zeigen 1" uni2215
EndChar

StartChar: one
Encoding: 49 49 10
Width: 1100
VWidth: 999
Flags: HW
HStem: 70 16G<201 252 252 303> 403 16G<125 148> 490 15G<277 299>
VStem: 209 86<74 422>
LayerCount: 3
Back
SplineSet
46.875 578.125 m 25
 347.168 578.125 l 25
0 572.012 m 1
 438.965 572.012 l 1
 438.965 0 l 1
 0 0 l 1
 0 572.012 l 1
EndSplineSet
Fore
SplineSet
1000 -84 m 2
 1000 -174 971 -212 881 -212 c 2
 249 -212 l 2
 159 -212 120 -174 120 -84 c 2
 120 625 l 2
 120 708 168 754 249 754 c 2
 851 754 l 2
 941 754 1000 715 1000 625 c 2
 1000 -84 l 2
249 718 m 2
 189 718 156 685 156 625 c 2
 156 -53 l 2
 156 -113 189 -136 249 -136 c 2
 821 -136 l 2
 881 -136 904 -113 904 -53 c 2
 904 625 l 2
 904 685 881 718 821 718 c 2
 249 718 l 2
585 176 m 2
 585 120 587 85 593 42 c 1
 592 40 l 1
 592 40 568 42 542 42 c 3
 516 42 492 40 492 40 c 1
 491 42 l 1
 498 82 499 121 499 176 c 2
 499 349 l 2
 499 374 498 392 486 392 c 3
 472 392 455 388 421 373 c 1
 410 400 l 1
 476 431 547 450 588 475 c 1
 591 475 593 475 593 472 c 1
 591 462 585 433 585 356 c 2
 585 176 l 2
EndSplineSet
AlternateSubs2: "'aalt' Alle Alternativen zeigen 1" one.oldstyle one.superior one.fitted
Substitution2: "'sups' Hochgestellte 1" one.superior
Substitution2: "'sinf' Wissenschaftliche Indices 1" one.inferior
Substitution2: "'pnum' Proportionalziffern 1" one.fitted
Substitution2: "'onum' Minuskelziffern 1" one.taboldstyle
EndChar

StartChar: two
Encoding: 50 50 11
Width: 1100
VWidth: 487
Flags: HW
HStem: 72 52<203 397> 472 34<186 291>
VStem: 120 58<392 448> 310 92<336 452>
DStem2: 198 217 259 204 0.718358 0.695673<-55.7301 156.444>
LayerCount: 3
Back
SplineSet
46.875 578.125 m 25
 347.168 578.125 l 25
0 572.012 m 1
 438.965 572.012 l 5
 438.965 0 l 1
 0 0 l 1
 0 572.012 l 1
EndSplineSet
Fore
SplineSet
1000 -84 m 2
 1000 -174 971 -212 881 -212 c 2
 249 -212 l 2
 159 -212 120 -174 120 -84 c 2
 120 625 l 2
 120 708 168 754 249 754 c 2
 851 754 l 2
 941 754 1000 715 1000 625 c 2
 1000 -84 l 2
249 718 m 2
 189 718 156 685 156 625 c 2
 156 -53 l 2
 156 -113 189 -136 249 -136 c 2
 821 -136 l 2
 881 -136 904 -113 904 -53 c 2
 904 625 l 2
 904 685 881 718 821 718 c 2
 249 718 l 2
537 44 m 7
 483 44 443 42 383 41 c 29
 382 44 l 21
 382 86 388 118 458 189 c 6
 510 241 l 6
 552 284 570 320 570 366 c 7
 570 434 533 444 507 444 c 7
 456 444 438 427 438 409 c 7
 438 403 440 397 442 392 c 4
 444 386 445 381 445 375 c 7
 445 356 426 348 413 348 c 7
 395 348 380 361 380 376 c 7
 380 419 433 477 512 477 c 7
 598 477 661 446 661 369 c 7
 661 315 630 284 590 245 c 6
 519 176 l 6
 515 172 463 130 463 96 c 5
 529 96 l 6
 600 96 620 99 661 102 c 5
 659 93 657 84 657 74 c 7
 657 66 659 50 661 41 c 5
 608 43 591 44 537 44 c 7
EndSplineSet
AlternateSubs2: "'aalt' Alle Alternativen zeigen 1" two.oldstyle two.superior two.fitted
Substitution2: "'sups' Hochgestellte 1" two.superior
Substitution2: "'sinf' Wissenschaftliche Indices 1" two.inferior
Substitution2: "'pnum' Proportionalziffern 1" two.fitted
Substitution2: "'onum' Minuskelziffern 1" two.taboldstyle
EndChar

StartChar: three
Encoding: 51 51 12
Width: 1100
VWidth: 487
Flags: HW
HStem: 64 34<184 278> 288 29<209 233> 471 34<194 278>
VStem: 128 55<392 454> 286 83<379 463> 311 90<148 270>
LayerCount: 3
Back
SplineSet
46.875 578.125 m 29
 347.168 578.125 l 29
0 572.012 m 1
 438.965 572.012 l 1
 438.965 0 l 1
 0 0 l 1
 0 572.012 l 1
EndSplineSet
Fore
SplineSet
1000 -84 m 2
 1000 -174 971 -212 881 -212 c 2
 249 -212 l 2
 159 -212 120 -174 120 -84 c 2
 120 625 l 2
 120 708 168 754 249 754 c 2
 851 754 l 2
 941 754 1000 715 1000 625 c 2
 1000 -84 l 2
249 718 m 2
 189 718 156 685 156 625 c 2
 156 -53 l 2
 156 -113 189 -136 249 -136 c 2
 821 -136 l 2
 881 -136 904 -113 904 -53 c 2
 904 625 l 2
 904 685 881 718 821 718 c 2
 249 718 l 2
504 443 m 7xf8
 483 443 443 438 443 397 c 4
 443 384 435 360 413 360 c 7
 391 360 388 382 388 384 c 7
 388 408 415 476 519 476 c 7
 549 476 579 471 594 462 c 4
 619 447 630 422 630 401 c 7xf8
 630 372 615 337 562 302 c 5
 604 295 661 264 661 186 c 7
 661 87 570 36 486 36 c 7
 443 36 380 50 380 81 c 7
 380 94 395 108 411 108 c 7
 427 108 435 100 442 89 c 4
 451 75 459 69 495 69 c 7
 519 69 571 82 571 176 c 7xf4
 571 257 534 263 493 263 c 7
 486 263 478 261 470 260 c 5
 467 289 l 5
 525 299 546 355 546 390 c 7
 546 427 532 443 504 443 c 7xf8
EndSplineSet
AlternateSubs2: "'aalt' Alle Alternativen zeigen 1" three.oldstyle three.superior three.fitted
Substitution2: "'sups' Hochgestellte 1" three.superior
Substitution2: "'sinf' Wissenschaftliche Indices 1" three.inferior
Substitution2: "'pnum' Proportionalziffern 1" three.fitted
Substitution2: "'onum' Minuskelziffern 1" three.taboldstyle
EndChar

StartChar: four
Encoding: 52 52 13
Width: 1100
VWidth: 487
Flags: HW
HStem: 70 16G<298 347 347 382> 183 1<306 374> 183 40<189 306 374 440> 490 15G<295 297>
VStem: 306 68<74 184 223 353>
LayerCount: 3
Back
SplineSet
227 189 m 6
 -12 189 l 6
 -21 189 -26 196 -26 206 c 4
 -26 218 -22 224 -8 244 c 6
 313 692 l 6
 320 701 326 706 336 706 c 6
 353 706 l 6
 363 706 368 703 368 698 c 4
 368 695 366 691 363 687 c 6
 45 247 l 6
 33 231 47 231 73 231 c 6
 228 231 l 6
 252 231 256 234 256 257 c 6
 256 441 l 6
 256 448 257 456 265 461 c 4
 277 469 300 477 316 478 c 4
 330 479 330 467 330 447 c 6
 330 254 l 6
 330 235 333 231 350 231 c 6
 414 231 l 5
 423 224 423 198 414 189 c 5
 360 189 l 6
 335 189 330 188 330 167 c 6
 330 122 l 6
 330 43 332 30 373 25 c 6
 399 22 l 5
 405 16 404 0 397 -3 c 5
 361 -1 324 0 293 0 c 4
 257 0 212 -1 168 -3 c 5
 161 0 160 16 166 22 c 5
 211 25 l 6
 253 28 256 45 256 122 c 6
 256 164 l 6
 256 188 253 189 227 189 c 6
46.875 578.125 m 25
 347.168 578.125 l 25
-58.1055 256.836 m 25
 565.43 256.836 l 25
0 572.012 m 1
 438.965 572.012 l 1
 438.965 0 l 1
 0 0 l 1
 0 572.012 l 1
EndSplineSet
Fore
SplineSet
1000 -84 m 2
 1000 -174 971 -212 881 -212 c 2
 249 -212 l 2
 159 -212 120 -174 120 -84 c 2
 120 625 l 2
 120 708 168 754 249 754 c 2
 851 754 l 2
 941 754 1000 715 1000 625 c 2
 1000 -84 l 2
249 718 m 2
 189 718 156 685 156 625 c 2
 156 -53 l 2
 156 -113 189 -136 249 -136 c 2
 821 -136 l 2
 881 -136 904 -113 904 -53 c 2
 904 625 l 2
 904 685 881 718 821 718 c 2
 249 718 l 2
604 154 m 21xd8
 604 97 606 85 612 42 c 5
 611 40 l 5
 611 40 603 42 577 42 c 7
 551 42 529 40 529 40 c 5
 528 42 l 5
 535 82 536 98 536 154 c 13
 604 154 l 21xd8
384 153 m 6xb8
 362 153 352 176 350 187 c 5
 350 187 351 188 351 189 c 5
 400 243 491 409 521 472 c 4
 522 474 523 475 526 475 c 7
 528 475 561 469 570 467 c 5
 532 376 474 280 419 193 c 5
 536 193 l 5
 536 308 l 6
 536 313 538 319 545 323 c 4
 553 329 581 336 592 336 c 7
 602 336 604 328 604 313 c 6
 604 193 l 5xb8
 663 193 l 6
 670 193 673 186 673 179 c 7
 673 171 663 153 653 153 c 6xd8
 384 153 l 6xb8
EndSplineSet
AlternateSubs2: "'aalt' Alle Alternativen zeigen 1" four.oldstyle four.superior four.fitted
Substitution2: "'sups' Hochgestellte 1" four.superior
Substitution2: "'sinf' Wissenschaftliche Indices 1" four.inferior
Substitution2: "'pnum' Proportionalziffern 1" four.fitted
Substitution2: "'onum' Minuskelziffern 1" four.taboldstyle
EndChar

StartChar: five
Encoding: 53 53 14
Width: 1100
VWidth: 487
Flags: HW
HStem: 64 36<189 275> 306 42<191 273> 443 54<204 364> 490 15G<351 375>
VStem: 297 90<146 273>
DStem2: 135 289 190 337 0.112752 0.993623<53.867 166.511>
LayerCount: 3
Back
SplineSet
46.875 578.125 m 25
 377.93 578.125 l 29
308.838 169.678 m 0
 308.838 273.438 245.117 323.242 188.477 323.242 c 0
 140.625 323.242 98.6328 311.523 74.2188 300.293 c 1
 106.445 572.754 l 1
 369.629 572.754 l 1
 355.469 514.648 l 1
 355.469 512.695 l 1
 142.09 512.695 l 1
 123.047 355.469 l 1
 140.625 365.234 170.898 370.117 212.891 370.117 c 0
 312.5 370.117 381.104 297.363 381.104 186.279 c 0
 381.104 54.9316 305.664 -9.27734 187.988 -9.27734 c 0
 130.859 -9.27734 47.8516 22.4609 47.8516 62.0117 c 0
 47.8516 81.0547 63.9648 93.75 82.0312 93.75 c 0
 102.051 93.75 114.258 79.1016 126.953 62.9883 c 0
 141.113 44.9219 157.715 24.9023 189.453 24.9023 c 0
 259.766 24.9023 308.838 75.1953 308.838 169.678 c 0
0 572.012 m 1
 438.965 572.012 l 1
 438.965 0 l 1
 0 0 l 1
 0 572.012 l 1
EndSplineSet
Fore
SplineSet
1000 -84 m 2
 1000 -174 971 -212 881 -212 c 2
 249 -212 l 2
 159 -212 120 -174 120 -84 c 2
 120 625 l 2
 120 708 168 754 249 754 c 2
 851 754 l 2
 941 754 1000 715 1000 625 c 2
 1000 -84 l 2
249 718 m 2
 189 718 156 685 156 625 c 2
 156 -53 l 2
 156 -113 189 -136 249 -136 c 2
 821 -136 l 2
 881 -136 904 -113 904 -53 c 2
 904 625 l 2
 904 685 881 718 821 718 c 2
 249 718 l 2
567 168 m 7xe8
 567 245 546 276 499 276 c 7
 465 276 435 271 405 259 c 5
 429 471 l 5
 454 468 483 467 510 467 c 7xe8
 547 467 600 470 641 474 c 5xd8
 645 472 l 5
 634 417 l 5
 605 414 567 413 546 413 c 7
 512 413 501 416 474 419 c 5
 460 307 l 5
 476 313 489 318 518 318 c 7
 597 318 657 250 657 180 c 7
 657 96 583 34 498 34 c 7
 456 34 390 56 390 88 c 7
 390 104 404 115 418 115 c 7
 435 115 446 102 456 89 c 4
 467 74 476 70 500 70 c 7
 548 70 567 102 567 168 c 7xe8
EndSplineSet
AlternateSubs2: "'aalt' Alle Alternativen zeigen 1" five.oldstyle five.superior five.fitted
Substitution2: "'sups' Hochgestellte 1" five.superior
Substitution2: "'sinf' Wissenschaftliche Indices 1" five.inferior
Substitution2: "'pnum' Proportionalziffern 1" five.fitted
Substitution2: "'onum' Minuskelziffern 1" five.taboldstyle
EndChar

StartChar: six
Encoding: 54 54 15
Width: 1100
VWidth: 487
Flags: HW
HStem: 64 28<242 315> 294 31<222 307> 478 26<338 398>
VStem: 120 85<153 301> 334 85<136 266>
LayerCount: 3
Back
SplineSet
46.875 578.125 m 25
 406.25 578.125 l 25
0 572.012 m 1
 438.965 572.012 l 1
 438.965 0 l 1
 0 0 l 1
 0 572.012 l 1
375.977 561.035 m 1
 295.898 543.945 258.403 525.747 227.051 500.977 c 0
 197.85 477.906 176.758 453.125 154.297 405.762 c 0
 135.949 367.065 124.211 330.648 118.615 290.749 c 1
 141.601 318.168 194.727 339.844 232.422 339.844 c 0
 284.18 339.844 322.266 333.008 361.328 292.48 c 0
 386.23 266.113 402.344 213.867 402.344 177.246 c 0
 402.344 129.395 383.489 72.0898 354.492 43.9453 c 0
 321.289 11.7188 277.344 -2.44141 230.469 -2.44141 c 0
 184.567 -2.44141 148.438 10.7422 118.164 37.5977 c 0
 69.2656 80.9756 45.8984 131.836 45.8984 235.84 c 0
 45.8984 295.898 62.0117 358.398 85.4492 403.809 c 0
 110.84 452.637 146.6 491.05 192.871 524.414 c 0
 239.374 557.944 293.945 573.242 375.488 580.566 c 1
 375.977 561.035 l 1
115.692 262.137 m 1
 115.06 252.512 114.746 242.629 114.746 232.422 c 0
 114.746 164.062 128.018 107.486 149.414 78.125 c 0
 170.007 49.8672 205.078 26.8555 240.234 26.8555 c 0
 270.02 26.8555 293.457 41.9922 306.641 61.5234 c 0
 328.125 91.3086 334.961 131.51 334.961 169.434 c 0
 334.961 201.188 322.754 245.117 303.223 268.066 c 0
 280.762 294.434 251.465 307.129 215.332 307.129 c 0
 194.572 307.129 156.109 305.244 115.692 262.137 c 1
EndSplineSet
Fore
SplineSet
1000 -84 m 2
 1000 -174 971 -212 881 -212 c 2
 249 -212 l 2
 159 -212 120 -174 120 -84 c 2
 120 625 l 2
 120 708 168 754 249 754 c 2
 851 754 l 2
 941 754 1000 715 1000 625 c 2
 1000 -84 l 2
249 718 m 2
 189 718 156 685 156 625 c 2
 156 -53 l 2
 156 -113 189 -136 249 -136 c 2
 821 -136 l 2
 881 -136 904 -113 904 -53 c 2
 904 625 l 2
 904 685 881 718 821 718 c 2
 249 718 l 2
456 245 m 5
 455 236 455 218 455 211 c 7
 455 85 494 62 532 62 c 7
 566 62 584 86 584 164 c 7
 584 199 580 264 513 264 c 7
 500 264 480 263 456 245 c 5
460 273 m 5
 480 286 507 295 528 295 c 7
 639 295 669 228 669 169 c 7
 669 110 628 34 524 34 c 7
 470 34 370 64 370 214 c 7
 370 321 455 462 647 474 c 5
 650 448 l 5
 605 444 489 430 460 273 c 5
EndSplineSet
AlternateSubs2: "'aalt' Alle Alternativen zeigen 1" six.oldstyle six.superior six.fitted
Substitution2: "'sups' Hochgestellte 1" six.superior
Substitution2: "'sinf' Wissenschaftliche Indices 1" six.inferior
Substitution2: "'pnum' Proportionalziffern 1" six.fitted
Substitution2: "'onum' Minuskelziffern 1" six.taboldstyle
EndChar

StartChar: seven
Encoding: 55 55 16
Width: 1100
VWidth: 487
Flags: HMW
HStem: 62 16G<149 200> 448 49<134 307>
LayerCount: 3
Back
SplineSet
164.062 522.432 m 2
 133.789 522.432 100.098 505.342 80.0781 433.075 c 1
 53.2227 436.005 l 1
 62.0117 484.833 67.3828 528.779 68.6035 573.701 c 1
 93.2617 573.701 l 1
 95.2148 567.842 104.441 561.523 120.361 561.523 c 2
46.875 578.125 m 25
 347.168 578.125 l 25
0 572.012 m 1
 438.965 572.012 l 1
 438.965 0 l 1
 0 0 l 1
 0 572.012 l 1
EndSplineSet
Fore
SplineSet
1000 -84 m 2
 1000 -174 971 -212 881 -212 c 2
 249 -212 l 2
 159 -212 120 -174 120 -84 c 2
 120 625 l 2
 120 708 168 754 249 754 c 2
 851 754 l 2
 941 754 1000 715 1000 625 c 2
 1000 -84 l 2
249 718 m 2
 189 718 156 685 156 625 c 2
 156 -53 l 2
 156 -113 189 -136 249 -136 c 2
 821 -136 l 2
 881 -136 904 -113 904 -53 c 2
 904 625 l 2
 904 685 881 718 821 718 c 2
 249 718 l 2
636 411 m 5
 595 411 527 410 420 404 c 5
 422 415 423 432 423 443 c 7
 423 453 422 461 420 471 c 5
 450 467 527 467 633 467 c 7
 655 467 668 471 679 474 c 5
 691 467 l 5
 611 273 569 155 528 34 c 5
 465 32 l 5
 463 36 l 5
 510 142 566 279 621 415 c 5
 636 411 l 5
EndSplineSet
AlternateSubs2: "'aalt' Alle Alternativen zeigen 1" seven.oldstyle seven.superior seven.fitted
Substitution2: "'sups' Hochgestellte 1" seven.superior
Substitution2: "'sinf' Wissenschaftliche Indices 1" seven.inferior
Substitution2: "'pnum' Proportionalziffern 1" seven.fitted
Substitution2: "'onum' Minuskelziffern 1" seven.taboldstyle
EndChar

StartChar: nine
Encoding: 57 57 17
Width: 1100
VWidth: 487
Flags: HW
HStem: 64 26<288 348> 243 31<379 464> 476 28<371 444>
VStem: 267 85<302 432> 481 85<267 415>
LayerCount: 3
Back
SplineSet
46.875 578.125 m 29
 347.168 578.125 l 29
0 572.012 m 1
 438.965 572.012 l 1
 438.965 0 l 1
 0 0 l 1
 0 572.012 l 1
EndSplineSet
Fore
SplineSet
1000 -84 m 2
 1000 -174 971 -212 881 -212 c 2
 249 -212 l 2
 159 -212 120 -174 120 -84 c 2
 120 625 l 2
 120 708 168 754 249 754 c 2
 851 754 l 2
 941 754 1000 715 1000 625 c 2
 1000 -84 l 2
249 718 m 2
 189 718 156 685 156 625 c 2
 156 -53 l 2
 156 -113 189 -136 249 -136 c 2
 821 -136 l 2
 881 -136 904 -113 904 -53 c 2
 904 625 l 2
 904 685 881 718 821 718 c 2
 249 718 l 2
603 261 m 5
 604 270 604 288 604 295 c 7
 604 421 565 444 527 444 c 7
 493 444 475 420 475 342 c 7
 475 307 479 242 546 242 c 7
 559 242 579 243 603 261 c 5
599 233 m 5
 579 220 552 211 531 211 c 7
 420 211 390 278 390 337 c 7
 390 396 431 472 535 472 c 7
 589 472 689 442 689 292 c 7
 689 185 604 44 412 32 c 5
 409 58 l 5
 454 62 570 76 599 233 c 5
EndSplineSet
AlternateSubs2: "'aalt' Alle Alternativen zeigen 1" nine.oldstyle nine.superior nine.fitted
Substitution2: "'sups' Hochgestellte 1" nine.superior
Substitution2: "'sinf' Wissenschaftliche Indices 1" nine.inferior
Substitution2: "'pnum' Proportionalziffern 1" nine.fitted
Substitution2: "'onum' Minuskelziffern 1" nine.taboldstyle
Colour: ff00ff
EndChar

StartChar: colon
Encoding: 58 58 18
Width: 1100
VWidth: 999
Flags: W
HStem: -212 76<179.2 885.174> 34 97<502.123 570.724> 246 97<502.123 570.724> 718 36<188.821 875.472>
VStem: 120 36<-107.953 686.051> 487 98<46.5645 115.833 258.564 327.833> 904 96<-118.923 694.8>
LayerCount: 3
Fore
SplineSet
1000 -84 m 2
 1000 -174 971 -212 881 -212 c 2
 249 -212 l 2
 159 -212 120 -174 120 -84 c 2
 120 625 l 2
 120 708 168 754 249 754 c 2
 851 754 l 2
 941 754 1000 715 1000 625 c 2
 1000 -84 l 2
249 718 m 2
 189 718 156 685 156 625 c 2
 156 -53 l 2
 156 -113 189 -136 249 -136 c 2
 821 -136 l 2
 881 -136 904 -113 904 -53 c 2
 904 625 l 2
 904 685 881 718 821 718 c 2
 249 718 l 2
487 81 m 1
 487 84 l 1
 496 107 509 121 535 131 c 1
 537 131 l 1
 562 122 576 109 585 84 c 1
 585 81 l 1
 575 53 562 40 537 34 c 1
 535 34 l 1
 507 40 495 53 487 81 c 1
487 293 m 5
 487 296 l 5
 496 319 509 333 535 343 c 5
 537 343 l 5
 562 334 576 321 585 296 c 5
 585 293 l 5
 575 265 562 252 537 246 c 5
 535 246 l 5
 507 252 495 265 487 293 c 5
EndSplineSet
Colour: ff00ff
EndChar

StartChar: less
Encoding: 60 60 19
Width: 1100
Flags: HW
DStem2: 356 256 439 240 0.939793 0.341743<72.599 326.471> 439 240 356 224 0.939793 -0.341743<0 253.872>
LayerCount: 3
Fore
SplineSet
1000 -84 m 6
 1000 -174 971 -212 881 -212 c 6
 249 -212 l 6
 159 -212 120 -174 120 -84 c 6
 120 625 l 6
 120 708 168 754 249 754 c 6
 851 754 l 6
 941 754 1000 715 1000 625 c 6
 1000 -84 l 6
249 718 m 6
 189 718 156 685 156 625 c 6
 156 -53 l 6
 156 -113 189 -136 249 -136 c 6
 821 -136 l 6
 881 -136 904 -113 904 -53 c 6
 904 625 l 6
 904 685 881 718 821 718 c 6
 249 718 l 6
439 240 m 1
 677 153 l 1
 677 106 l 1
 356 224 l 1
 356 256 l 1
 677 374 l 1
 677 327 l 1
 439 240 l 1
EndSplineSet
EndChar

StartChar: equal
Encoding: 61 61 20
Width: 1100
Flags: HW
HStem: 165 42<375 701> 258 43<375 701>
LayerCount: 3
Back
SplineSet
-58 257 m 25
 565 257 l 25
0 572 m 1
 527 572 l 1
 527 0 l 1
 0 0 l 1
 0 572 l 1
EndSplineSet
Fore
SplineSet
1000 -84 m 6
 1000 -174 971 -212 881 -212 c 6
 249 -212 l 6
 159 -212 120 -174 120 -84 c 6
 120 625 l 6
 120 708 168 754 249 754 c 6
 851 754 l 6
 941 754 1000 715 1000 625 c 6
 1000 -84 l 6
249 718 m 6
 189 718 156 685 156 625 c 6
 156 -53 l 6
 156 -113 189 -136 249 -136 c 6
 821 -136 l 6
 881 -136 904 -113 904 -53 c 6
 904 625 l 6
 904 685 881 718 821 718 c 6
 249 718 l 6
701 300 m 1
 701 258 l 1
 375 258 l 1
 375 300 l 1
 701 300 l 1
701 207 m 1
 701 165 l 1
 375 165 l 1
 375 207 l 1
 701 207 l 1
EndSplineSet
AlternateSubs2: "'aalt' Alle Alternativen zeigen 1" equal.superior
Substitution2: "'sinf' Wissenschaftliche Indices 1" equal.inferior
Substitution2: "'sups' Hochgestellte 1" equal.superior
EndChar

StartChar: greater
Encoding: 62 62 21
Width: 1100
Flags: HW
HStem: 104 267<396 396>
VStem: 396 322<254 325>
DStem2: 396 372 396 325 0.939669 -0.342086<15.9101 269.621> 396 151 396 104 0.940012 0.341142<0 253.835>
LayerCount: 3
Fore
SplineSet
1000 -84 m 6
 1000 -174 971 -212 881 -212 c 6
 249 -212 l 6
 159 -212 120 -174 120 -84 c 6
 120 625 l 6
 120 708 168 754 249 754 c 6
 851 754 l 6
 941 754 1000 715 1000 625 c 6
 1000 -84 l 6
249 718 m 6
 189 718 156 685 156 625 c 6
 156 -53 l 6
 156 -113 189 -136 249 -136 c 6
 821 -136 l 6
 881 -136 904 -113 904 -53 c 6
 904 625 l 6
 904 685 881 718 821 718 c 6
 249 718 l 6
633 238 m 1
 396 325 l 1
 396 372 l 1
 717 254 l 1
 717 221 l 1
 396 104 l 1
 396 151 l 1
 633 238 l 1
EndSplineSet
Colour: ff00ff
EndChar

StartChar: question
Encoding: 63 63 22
Width: 1100
VWidth: 487
Flags: HW
HStem: 75 92<490 548> 540 37<485 571>
VStem: 472 93<90 149> 502 34<213 317> 590 85<413 519>
LayerCount: 3
Back
SplineSet
497.5 375.775 m 0
 511.406 395.306 532.124 412.618 559.648 427.71 c 0
 578.589 437.771 600.186 454.344 624.453 477.426 c 128
 647.236 498.73 658.491 522.847 658.188 549.78 c 0
 657.891 581.152 651.089 603.936 637.773 618.14 c 128
 616.763 640.034 594.414 650.986 570.742 650.986 c 0
 545.298 650.986 522.358 640.776 501.938 620.361 c 128
 485.662 603.789 475.896 585.293 472.644 564.873 c 1
 435.357 564.873 l 1
 435.357 615.918 l 1
 442.459 625.684 459.622 639.004 486.849 655.869 c 128
 508.154 669.487 537.451 676.289 574.741 676.289 c 0
 626.528 676.289 664.106 661.787 687.485 632.788 c 128
 706.431 609.116 715.898 581.597 715.898 550.225 c 0
 715.898 520.928 704.653 492.222 682.163 464.109 c 128
 662.93 440.139 633.335 416.465 593.384 393.086 c 0
 571.187 380.065 554.766 364.678 544.111 346.922 c 0
 534.048 330.646 529.019 314.221 529.019 297.65 c 0
 529.019 282.261 533.604 269.685 542.778 259.919 c 0
 555.796 246.307 571.777 239.352 590.718 239.056 c 0
 611.138 238.76 637.471 242.459 669.731 250.152 c 1
 669.731 237.281 l 1
 662.632 231.066 652.275 224.852 638.657 218.637 c 0
 623.569 212.127 605.225 208.724 583.618 208.428 c 0
 552.246 207.836 525.469 215.974 503.271 232.842 c 0
 481.667 249.117 471.167 271.756 471.756 300.758 c 8
 472.345 327.095 480.933 352.101 497.5 375.775 c 0
EndSplineSet
Fore
SplineSet
1000 -84 m 6
 1000 -174 971 -212 881 -212 c 6
 249 -212 l 6
 159 -212 120 -174 120 -84 c 6
 120 625 l 6
 120 708 168 754 249 754 c 6
 851 754 l 6
 941 754 1000 715 1000 625 c 6
 1000 -84 l 6
249 718 m 6
 189 718 156 685 156 625 c 6
 156 -53 l 6
 156 -113 189 -136 249 -136 c 6
 821 -136 l 6
 881 -136 904 -113 904 -53 c 6
 904 625 l 6
 904 685 881 718 821 718 c 6
 249 718 l 6
477 81 m 1
 477 84 l 1
 486 106 498 119 523 129 c 1
 525 129 l 1
 549 120 562 108 571 84 c 1
 571 81 l 1
 561 54 549 42 525 36 c 1
 523 36 l 1
 496 42 485 54 477 81 c 1
530 500 m 3xd8
 488 500 457 464 438 430 c 1
 428 431 l 1
 416 488 l 1
 418 491 l 1
 437 506 482 537 537 537 c 3
 613 537 675 492 675 424 c 3
 675 365 616 332 581 306 c 0
 559 290 536 269 536 214 c 10
 536 185 l 2
 536 179 525 173 519 173 c 3
 513 173 502 179 502 185 c 2
 502 215 l 2
 502 248 511 292 559 336 c 0
 589 364 590 386 590 421 c 3
 590 470 573 500 530 500 c 3xd8
EndSplineSet
Colour: ff80cc
EndChar

StartChar: at
Encoding: 64 64 23
Width: 1100
Flags: W
HStem: -212 76<179.2 885.174> -52 29<473.254 640.961> 82 31<620 697.733> 90 32<489.175 554.329> 354 25<545.853 609.396> 506 27<473.322 615.749> 718 36<188.821 875.472>
VStem: 120 36<-107.953 686.051> 237 70<129.304 340.022> 405 73<127.662 274.948> 771 64<194.204 374.622> 904 96<-118.923 694.8>
LayerCount: 3
Back
SplineSet
658.691 46.875 m 0xbf
 658.691 35.6445 668.945 33.2031 671.387 33.2031 c 0
 791.992 33.2031 872.07 77.1484 872.07 289.062 c 0
 872.07 551.758 671.387 648.926 523.926 648.926 c 0
 345.215 648.926 142.09 521.484 142.09 242.676 c 0
 142.09 100.098 220.215 -187.988 534.18 -187.988 c 0
 634.277 -187.988 707.52 -159.668 770.996 -109.863 c 1
 786.621 -131.348 l 1
 715.82 -184.57 645.02 -226.562 512.207 -226.562 c 0
 245.605 -226.562 58.5938 -22.9492 58.5938 228.027 c 0
 58.5938 481.445 250.977 684.57 524.414 684.57 c 0
 776.855 684.57 948.242 505.859 948.242 285.156 c 0
 948.242 151.367 882.324 -5.37109 626.953 -5.37109 c 0xdf
 592.773 -5.37109 584.473 20.9961 584.473 40.0391 c 0
 584.473 58.5938 589.355 83.4961 599.121 114.746 c 1
 530.273 14.6484 474.121 -2.92969 442.871 -2.92969 c 0
 325.684 -2.92969 305.176 92.7734 305.176 139.16 c 0
 305.176 308.105 448.73 441.895 573.242 441.895 c 0
 612.793 441.895 652.344 421.875 664.062 391.602 c 1
 669.922 419.922 l 1
 726.074 434.57 l 1
 744.141 428.711 l 1
 674.316 125 l 2
 666.992 93.2617 658.691 56.6406 658.691 46.875 c 0xbf
647.949 334.961 m 0
 647.949 378.418 618.164 411.133 576.66 411.133 c 0
 556.152 411.133 506.836 410.645 464.355 363.77 c 0
 407.227 302.246 385.742 222.656 385.742 150.391 c 0
 385.742 94.2383 404.297 39.0625 478.027 39.0625 c 0xbf
 509.766 39.0625 582.031 103.516 612.793 183.105 c 0
 626.953 220.703 647.949 306.152 647.949 334.961 c 0
EndSplineSet
Fore
SplineSet
1000 -84 m 2xcff0
 1000 -174 971 -212 881 -212 c 2
 249 -212 l 2
 159 -212 120 -174 120 -84 c 2
 120 625 l 2
 120 708 168 754 249 754 c 2
 851 754 l 2
 941 754 1000 715 1000 625 c 2
 1000 -84 l 2xcff0
249 718 m 2
 189 718 156 685 156 625 c 2
 156 -53 l 2
 156 -113 189 -136 249 -136 c 2
 821 -136 l 2
 881 -136 904 -113 904 -53 c 2
 904 625 l 2
 904 685 881 718 821 718 c 2
 249 718 l 2
648 124 m 7
 648 114 653 113 661 113 c 7
 689 113 771 164 771 272 c 7
 771 438 633 506 546 506 c 7
 429 506 307 412 307 239 c 7
 307 128 375 -23 559 -23 c 7
 616 -23 669 -5 716 33 c 5
 725 30 730 21 732 11 c 5
 684 -25 637 -52 544 -52 c 7
 367 -52 237 62 237 233 c 7
 237 389 363 533 553 533 c 7
 722 533 835 425 835 283 c 7
 835 178 747 82 646 82 c 7xeff0
 594 82 580 109 580 125 c 5
 549 96 519 90 501 90 c 7xdff0
 414 90 405 155 405 186 c 7
 405 295 497 379 583 379 c 7
 619 379 641 366 654 350 c 5
 681 375 l 5
 702 367 l 5
 657 173 l 6
 653 154 648 132 648 124 c 7
622 308 m 4
 622 334 604 354 585 354 c 7
 575 354 551 353 525 325 c 4
 491 289 478 238 478 191 c 7
 478 155 485 122 520 122 c 7xdff0
 543 122 580 148 601 212 c 4
 608 237 622 290 622 308 c 4
EndSplineSet
EndChar

StartChar: A
Encoding: 65 65 24
Width: 1100
Flags: W
HStem: -212 76<179.2 885.174> 207 39<441.391 618> 412 20G<503 515 530 566> 718 36<188.821 875.472>
VStem: 120 36<-107.953 686.051> 663 114<39 86.3662> 904 96<-118.923 694.8>
LayerCount: 3
Back
SplineSet
132 79 m 6
 121.979 53.5967 134.54 31.583 172 29 c 6
 201 27 l 6
 204.991 26.7246 209 24 209 19 c 6
 209 0 l 5
 207 -2 l 5
 207 -2 98 0 74 0 c 4
 48 0 -16 -2 -16 -2 c 5
 -18 0 l 5
 -18 19 l 6
 -18 24 -14.9883 26.6562 -10 27 c 4
 33.5 30 59.1699 37.7783 86.9834 102 c 6
 309.333 622.333 l 6
 318.036 642.698 331.667 658 344 658 c 4
 355 658 362.389 648.121 370 628 c 6
 575 86 l 6
 589 47 609.193 31.6191 649 28 c 6
 660 27 l 6
 664.98 26.5469 670 24 670 19 c 6
 670 0 l 5
 667 -2 l 5
 667 -2 590 0 551 0 c 4
 516 0 418 -2 418 -2 c 5
 417 0 l 5
 417 19 l 6
 417 24 419.013 26.6436 424 27 c 6
 452 29 l 6
 489.772 31.6982 503.995 44.3066 494 72 c 6
 433 241 l 5
 225 241 l 6
 201 241 195.06 236.649 190 224 c 6
 132 79 l 6
243 283 m 6
 417 283 l 5
 319 550 l 5
 318 550 l 5
 217.826 296.333 l 6
 213.576 285.571 226.965 283 243 283 c 6
EndSplineSet
Fore
SplineSet
1000 -84 m 6
 1000 -174 971 -212 881 -212 c 6
 249 -212 l 6
 159 -212 120 -174 120 -84 c 6
 120 625 l 6
 120 708 168 754 249 754 c 6
 851 754 l 6
 941 754 1000 715 1000 625 c 6
 1000 -84 l 6
249 718 m 6
 189 718 156 685 156 625 c 6
 156 -53 l 6
 156 -113 189 -136 249 -136 c 6
 821 -136 l 6
 881 -136 904 -113 904 -53 c 6
 904 625 l 6
 904 685 881 718 821 718 c 6
 249 718 l 6
444 248 m 1
 468 248 505 246 529 246 c 3
 554 246 592 247 618 248 c 1
 627 205 l 1
 597 206 563 207 533 207 c 3
 505 207 459 206 430 205 c 1
 430 205 443 248 444 248 c 1
530 432 m 1
 476 307 400 137 374 39 c 1
 365 41 348 41 340 41 c 3
 332 41 307 41 298 39 c 1
 374 204 447 368 519 534 c 1
 572 534 l 1
 641 370 740 114 777 39 c 1
 764 41 729 41 716 41 c 3
 704 41 676 41 663 39 c 1
 656 65 617 199 515 432 c 1
 530 432 l 1
EndSplineSet
Position2: "'cpsp' Versalabstaende 1" dx=2 dy=0 dh=4 dv=0
Substitution2: "'c2sc' Versale nach Kapitaelchen 1" a.sc
EndChar

StartChar: B
Encoding: 66 66 25
Width: 1100
VWidth: 999
Flags: HW
HStem: 78 40<429 596> 322 40<450 570> 527 40<428 568>
VStem: 354 96<124 322 362 522> 589 97<398 505> 624 106<160 280>
LayerCount: 3
Fore
SplineSet
1000 -84 m 6
 1000 -174 971 -212 881 -212 c 6
 249 -212 l 6
 159 -212 120 -174 120 -84 c 6
 120 625 l 6
 120 708 168 754 249 754 c 6
 851 754 l 6
 941 754 1000 715 1000 625 c 6
 1000 -84 l 6
249 718 m 6
 189 718 156 685 156 625 c 6
 156 -53 l 6
 156 -113 189 -136 249 -136 c 6
 821 -136 l 6
 881 -136 904 -113 904 -53 c 6
 904 625 l 6
 904 685 881 718 821 718 c 6
 249 718 l 6
402 524 m 11xf4
 444 524 483 527 509 527 c 3
 648 527 686 461 686 410 c 3xf8
 686 369 654 329 616 311 c 1
 681 292 730 251 730 179 c 3
 730 114 675 38 525 38 c 3
 459 38 450 41 402 41 c 19
 376 41 348 38 348 38 c 1
 347 41 l 1
 353 81 354 134 354 191 c 2
 354 374 l 2
 354 431 353 482 347 524 c 1
 348 527 l 1
 348 527 377 524 402 524 c 11xf4
450 282 m 1
 450 113 l 2
 450 89 459 78 511 78 c 3
 612 78 624 110 624 164 c 3xf4
 624 232 603 282 516 282 c 2
 450 282 l 1
450 453 m 2
 450 322 l 1
 504 322 l 2
 567 322 589 338 589 401 c 3xf8
 589 478 556 487 514 487 c 3
 453 487 450 478 450 453 c 2
EndSplineSet
Position2: "'cpsp' Versalabstaende 1" dx=2 dy=0 dh=4 dv=0
Substitution2: "'c2sc' Versale nach Kapitaelchen 1" b.sc
EndChar

StartChar: C
Encoding: 67 67 26
Width: 1100
VWidth: 999
Flags: W
HStem: -212 76<179.2 885.174> 34 44<473.301 637.148> 492 42<476.962 628.553> 718 36<188.821 875.472>
VStem: 120 36<-107.953 686.051> 292 109<171.935 372.978> 904 96<-118.923 694.8>
LayerCount: 3
Back
SplineSet
572.754 645.508 m 5
 591.797 471.68 l 5
 562.012 468.75 l 5
 554.688 511.719 519.043 606.445 467.285 606.445 c 6
EndSplineSet
Fore
SplineSet
1000 -84 m 6
 1000 -174 971 -212 881 -212 c 6
 249 -212 l 6
 159 -212 120 -174 120 -84 c 6
 120 625 l 6
 120 708 168 754 249 754 c 6
 851 754 l 6
 941 754 1000 715 1000 625 c 6
 1000 -84 l 6
249 718 m 6
 189 718 156 685 156 625 c 6
 156 -53 l 6
 156 -113 189 -136 249 -136 c 6
 821 -136 l 6
 881 -136 904 -113 904 -53 c 6
 904 625 l 6
 904 685 881 718 821 718 c 6
 249 718 l 6
554 534 m 3
 645 534 717 501 717 501 c 1
 719 498 l 1
 710 462 706 439 704 401 c 1
 696 400 l 1
 665 462 611 492 543 492 c 3
 482 492 401 444 401 292 c 3
 401 182 434 78 550 78 c 3
 620 78 671 94 724 153 c 1
 741 135 l 1
 690 68 608 34 536 34 c 3
 374 34 292 156 292 277 c 3
 292 425 427 534 554 534 c 3
EndSplineSet
Position2: "'cpsp' Versalabstaende 1" dx=2 dy=0 dh=4 dv=0
Substitution2: "'c2sc' Versale nach Kapitaelchen 1" c.sc
EndChar

StartChar: D
Encoding: 68 68 27
Width: 1100
VWidth: 999
Flags: HW
HStem: 79 33<368 565> 534 33<368 533>
VStem: 317 64<118 526> 655 77<215 400>
LayerCount: 3
Fore
SplineSet
1000 -84 m 6
 1000 -174 971 -212 881 -212 c 6
 249 -212 l 6
 159 -212 120 -174 120 -84 c 6
 120 625 l 6
 120 708 168 754 249 754 c 6
 851 754 l 6
 941 754 1000 715 1000 625 c 6
 1000 -84 l 6
249 718 m 6
 189 718 156 685 156 625 c 6
 156 -53 l 6
 156 -113 189 -136 249 -136 c 6
 821 -136 l 6
 881 -136 904 -113 904 -53 c 6
 904 625 l 6
 904 685 881 718 821 718 c 6
 249 718 l 6
365 524 m 11
 420 524 450 527 504 527 c 19
 648 527 780 411 780 272 c 3
 780 87 624 39 518 39 c 3
 441 39 425 41 365 41 c 19
 339 41 310 38 310 38 c 1
 309 41 l 1
 315 81 317 134 317 191 c 2
 317 374 l 2
 317 431 315 482 309 524 c 1
 311 527 l 1
 311 527 339 524 365 524 c 11
413 109 m 2
 413 85 421 79 495 79 c 3
 600 79 671 102 671 254 c 3
 671 369 638 487 476 487 c 3
 439 487 413 483 413 457 c 2
 413 109 l 2
EndSplineSet
Position2: "'cpsp' Versalabstaende 1" dx=2 dy=0 dh=4 dv=0
Substitution2: "'c2sc' Versale nach Kapitaelchen 1" d.sc
EndChar

StartChar: E
Encoding: 69 69 28
Width: 1100
VWidth: 999
Flags: W
HStem: -212 76<179.2 885.174> 41 47<455.953 670.434> 278 38<453 617.588> 472 21G<459 665> 481 43<456.105 662.434> 718 36<188.821 875.472>
VStem: 120 36<-107.953 686.051> 357 96<88.8829 278 316 479.855> 904 96<-118.923 694.8>
LayerCount: 3
Back
SplineSet
98 150 m 6x3d
 98 510 l 6
 98 614 96 629 37 636 c 6
 21 638 l 5
 15 642 17 660 23 663 c 5x3b
 66 661 100 660 141 660 c 6
 329 660 l 6x3d
 393 660 452 660 464 663 c 5x3b
 470 646 476 574 480 530 c 5
 476 524 460 522 455 528 c 5
 440 575 431 610 379 623 c 4
 358 628 326 629 282 629 c 6
 210 629 l 6
 180 629 180 627 180 589 c 6
 180 389 l 6
 180 361 183 361 213 361 c 6
 271 361 l 6
 313 361 344 363 356 367 c 4
 368 371 375 377 380 402 c 6
 388 443 l 5
 393 449 410 449 414 442 c 5
 414 418 410 379 410 341 c 4
 410 305 414 267 414 245 c 5
 410 238 393 238 388 244 c 5
 379 283 l 6
 375 301 368 316 348 321 c 4
 334 325 310 326 271 326 c 6
 213 326 l 6
 183 326 180 325 180 299 c 6
 180 158 l 6
 180 105 183 71 199 54 c 4
 211 42 232 31 320 31 c 4
 397 31 426 35 448 46 c 4
 466 56 493 91 519 143 c 5
 526 148 540 145 544 136 c 5
 537 101 512 24 499 -3 c 5
 409 -1 320 0 231 0 c 6
 141 0 l 6x3d
 98 0 64 -1 5 -3 c 5x9d
 -1 0 -3 16 3 22 c 5
 36 25 l 6x5d
 93 30 98 45 98 150 c 6x3d
EndSplineSet
Fore
SplineSet
1000 -84 m 2xe780
 1000 -174 971 -212 881 -212 c 2
 249 -212 l 2
 159 -212 120 -174 120 -84 c 2
 120 625 l 2
 120 708 168 754 249 754 c 2
 851 754 l 2
 941 754 1000 715 1000 625 c 2
 1000 -84 l 2xe780
249 718 m 2
 189 718 156 685 156 625 c 2
 156 -53 l 2
 156 -113 189 -136 249 -136 c 2
 821 -136 l 2
 881 -136 904 -113 904 -53 c 2
 904 625 l 2
 904 685 881 718 821 718 c 2
 249 718 l 2
453 191 m 6
 453 178 454 106 459 88 c 5
 560 88 671 97 671 97 c 5
 672 94 l 5
 672 88 671 75 671 68 c 7
 671 60 672 51 672 41 c 5
 671 38 l 5
 659 40 642 41 626 41 c 6
 405 41 l 7
 379 41 350 38 350 38 c 5
 350 41 l 5
 356 81 357 134 357 191 c 6
 357 374 l 6
 357 431 356 482 350 524 c 5
 351 527 l 5
 351 527 380 524 405 524 c 7
 428 524 618 524 618 524 c 6
 634 524 651 525 663 527 c 5
 665 524 l 5xef80
 664 514 663 504 663 498 c 7
 663 491 664 481 665 475 c 5
 663 472 l 5xf780
 663 472 560 481 459 481 c 5xef80
 454 463 453 387 453 374 c 6
 453 316 l 5
 542 316 576 320 620 323 c 5
 623 321 l 5
 621 314 620 304 620 297 c 7
 620 290 621 279 623 272 c 5
 620 270 l 5
 569 275 489 278 453 278 c 5
 453 191 l 6
EndSplineSet
Position2: "'cpsp' Versalabstaende 1" dx=2 dy=0 dh=4 dv=0
Substitution2: "'c2sc' Versale nach Kapitaelchen 1" e.sc
EndChar

StartChar: F
Encoding: 70 70 29
Width: 1100
VWidth: 999
Flags: W
HStem: -212 76<179.2 885.174> 278 38<454 618.588> 472 21G<460 666> 481 43<457.105 663.434> 718 36<188.821 875.472>
VStem: 120 36<-107.953 686.051> 358 96<42.9753 278 316 479.855> 904 96<-118.923 694.8>
LayerCount: 3
Fore
SplineSet
1000 -84 m 2xcf
 1000 -174 971 -212 881 -212 c 2
 249 -212 l 2
 159 -212 120 -174 120 -84 c 2
 120 625 l 2
 120 708 168 754 249 754 c 2
 851 754 l 2
 941 754 1000 715 1000 625 c 2
 1000 -84 l 2xcf
249 718 m 2
 189 718 156 685 156 625 c 2
 156 -53 l 2
 156 -113 189 -136 249 -136 c 2
 821 -136 l 2
 881 -136 904 -113 904 -53 c 2
 904 625 l 2
 904 685 881 718 821 718 c 2
 249 718 l 2
617 524 m 6xdf
 635 524 652 525 664 527 c 5
 666 524 l 5xdf
 665 514 664 504 664 498 c 7
 664 491 665 481 666 475 c 5
 664 472 l 5xef
 664 472 560 481 460 481 c 5
 455 463 454 387 454 374 c 6
 454 316 l 5
 542 316 577 320 621 323 c 5
 624 321 l 5
 622 314 621 304 621 297 c 7
 621 290 622 279 624 272 c 5
 621 270 l 5
 570 275 490 278 454 278 c 5
 454 191 l 6
 454 134 456 83 462 41 c 5
 460 38 l 5
 460 38 432 41 406 41 c 7
 380 41 351 38 351 38 c 5
 350 41 l 5
 356 81 358 134 358 191 c 6
 358 374 l 6
 358 431 356 482 350 524 c 5
 352 527 l 5
 352 527 380 524 406 524 c 6
 617 524 l 6xdf
EndSplineSet
Position2: "'cpsp' Versalabstaende 1" dx=2 dy=0 dh=4 dv=0
Substitution2: "'c2sc' Versale nach Kapitaelchen 1" f.sc
EndChar

StartChar: G
Encoding: 71 71 30
Width: 1100
VWidth: 999
Flags: HW
HStem: -212 46<169.359 930.641> 74 41<489.075 658.576> 440 21G<703.5 727> 532 42<470.668 642.78> 708 46<168.938 931.062>
VStem: 120 46<-162.981 705.906> 284 108<219.789 411.607> 669 96<143.284 308.984> 934 46<-162.981 705.906>
LayerCount: 3
Back
SplineSet
593.262 612.793 m 5
 596.309 558.179 605.469 509.766 615.234 458.496 c 5
 584.961 453.613 l 5
 559.082 539.551 501.465 621.094 362.793 621.094 c 4
EndSplineSet
Fore
SplineSet
1000 -84 m 6
 1000 -174 971 -212 881 -212 c 6
 249 -212 l 6
 159 -212 120 -174 120 -84 c 6
 120 625 l 6
 120 708 168 754 249 754 c 6
 851 754 l 6
 941 754 1000 715 1000 625 c 6
 1000 -84 l 6
249 718 m 6
 189 718 156 685 156 625 c 6
 156 -53 l 6
 156 -113 189 -136 249 -136 c 6
 821 -136 l 6
 881 -136 904 -113 904 -53 c 6
 904 625 l 6
 904 685 881 718 821 718 c 6
 249 718 l 6
669 129 m 2
 669 185 668 228 662 271 c 1
 663 274 l 1
 663 274 692 271 717 271 c 3
 743 271 772 274 772 274 c 1
 772 271 l 1
 766 232 765 200 765 144 c 3
 765 119 768 109 772 103 c 1
 772 101 l 1
 722 59 645 34 557 34 c 3
 406 34 284 142 284 271 c 3
 284 436 432 534 561 534 c 3
 652 534 740 501 740 501 c 1
 742 498 l 1
 733 462 729 439 727 401 c 1
 719 400 l 1
 688 462 618 492 550 492 c 3
 449 492 392 418 392 286 c 3
 392 187 441 75 574 75 c 3
 615 75 644 79 669 103 c 1
 669 129 l 2
EndSplineSet
Position2: "'cpsp' Versalabstaende 1" dx=2 dy=0 dh=4 dv=0
Substitution2: "'c2sc' Versale nach Kapitaelchen 1" g.sc
EndChar

StartChar: grave
Encoding: 96 96 31
Width: 1100
VWidth: 999
Flags: HW
LayerCount: 3
Fore
SplineSet
1000 -84 m 6
 1000 -174 971 -212 881 -212 c 6
 249 -212 l 6
 159 -212 120 -174 120 -84 c 6
 120 625 l 6
 120 708 168 754 249 754 c 6
 851 754 l 6
 941 754 1000 715 1000 625 c 6
 1000 -84 l 6
249 718 m 6
 189 718 156 685 156 625 c 6
 156 -53 l 6
 156 -113 189 -136 249 -136 c 6
 821 -136 l 6
 881 -136 904 -113 904 -53 c 6
 904 625 l 6
 904 685 881 718 821 718 c 6
 249 718 l 6
532 513 m 1
 584 421 l 2
 587 415 590 407 590 401 c 3
 590 394 584 389 578 389 c 3
 572 389 564 393 551 404 c 2
 461 483 l 1
 462 491 l 1
 468 498 490 515 517 515 c 3
 521 515 529 514 532 513 c 1
EndSplineSet
Substitution2: "'case' Versalformen 1" grave.cap
Colour: ff00ff
EndChar

StartChar: ograve
Encoding: 242 242 32
Width: 1100
VWidth: 999
Flags: HW
HStem: 83 38<499 588> 382 38<487 583>
VStem: 363 96<174 323> 616 96<180 328>
LayerCount: 3
Back
SplineSet
-90.8203 672.852 m 5
 528.32 672.852 l 5
 528.32 510.254 l 5
 -90.8203 510.254 l 5
 -90.8203 672.852 l 5
EndSplineSet
Fore
Refer: 662 768 N 1 0 0 1 562 -28 2
Refer: 295 111 N 1 0 0 1 0 0 3
Substitution2: "'smcp' Gemeine nach Kapitaelchen 1" ograve.sc
AlternateSubs2: "'aalt' Alle Alternativen zeigen 1" ograve.sc
Colour: ff00ff
EndChar

StartChar: oacute
Encoding: 243 243 33
Width: 1100
VWidth: 999
Flags: HW
HStem: 83 38<499 588> 382 38<487 583>
VStem: 363 96<174 323> 616 96<180 328>
LayerCount: 3
Back
SplineSet
-90.8203 672.852 m 5
 528.32 672.852 l 5
 528.32 510.254 l 5
 -90.8203 510.254 l 5
 -90.8203 672.852 l 5
EndSplineSet
Fore
Refer: 663 769 N 1 0 0 1 594 -28 2
Refer: 295 111 N 1 0 0 1 0 0 3
Substitution2: "'smcp' Gemeine nach Kapitaelchen 1" oacute.sc
AlternateSubs2: "'aalt' Alle Alternativen zeigen 1" oacute.sc
Colour: ff00ff
EndChar

StartChar: ocircumflex
Encoding: 244 244 34
Width: 1100
VWidth: 999
Flags: HW
HStem: 79 38<499 588> 379 38<487 583>
VStem: 363 96<171 320> 430 190<475 475> 616 96<176 324>
LayerCount: 3
Back
SplineSet
151.855 645.508 m 1
 180.664 598.633 217.285 555.664 252.93 515.625 c 1
 232.422 502.441 l 1
 193.359 531.25 159.668 556.152 125.977 592.285 c 1
 88.8672 554.199 56.1523 529.297 19.043 502.441 c 1
 -0.488281 515.625 l 1
 34.668 555.176 72.7539 599.609 102.051 645.508 c 1
 151.855 645.508 l 1
-90.5762 664.062 m 1
 528.076 664.062 l 1
 528.076 500.732 l 1
 -90.5762 500.732 l 1
 -90.5762 664.062 l 1
EndSplineSet
Fore
Refer: 649 710 N 1 0 0 1 326 -16 2
Refer: 295 111 N 1 0 0 1 0 0 3
Substitution2: "'smcp' Gemeine nach Kapitaelchen 1" ocircumflex.sc
AlternateSubs2: "'aalt' Alle Alternativen zeigen 1" ocircumflex.sc
Colour: ff00ff
EndChar

StartChar: otilde
Encoding: 245 245 35
Width: 1100
VWidth: 999
Flags: HW
HStem: 77 38<499 588> 376 38<487 583> 479 33<533 598> 515 34<445 513> 544 8
VStem: 363 96<168 317> 616 96<174 322>
LayerCount: 3
Back
SplineSet
-87.8906 622.07 m 5
 531.25 622.07 l 5
 531.25 525.391 l 5
 -87.8906 525.391 l 5
 -87.8906 622.07 l 5
EndSplineSet
Fore
Refer: 660 732 N 1 0 0 1 349 -36 2
Refer: 295 111 N 1 0 0 1 0 0 3
Substitution2: "'smcp' Gemeine nach Kapitaelchen 1" otilde.sc
AlternateSubs2: "'aalt' Alle Alternativen zeigen 1" otilde.sc
Colour: ff00ff
EndChar

StartChar: odieresis
Encoding: 246 246 36
Width: 1100
VWidth: 999
Flags: HW
HStem: 75 38<499 588> 374 38<487 583> 478 69<436 494 556 614>
VStem: 363 96<166 315> 430 69<483 541> 550 69<483 541> 616 96<172 320>
LayerCount: 3
Back
SplineSet
-90.8203 617.676 m 5
 528.32 617.676 l 5
 528.32 526.855 l 5
 -90.8203 526.855 l 5
 -90.8203 617.676 l 5
EndSplineSet
Fore
Refer: 319 168 S 1 0 0 1 324 -2 2
Refer: 295 111 N 1 0 0 1 0 0 3
Substitution2: "'smcp' Gemeine nach Kapitaelchen 1" odieresis.sc
AlternateSubs2: "'aalt' Alle Alternativen zeigen 1" odieresis.sc
Colour: ff00ff
EndChar

StartChar: divide
Encoding: 247 247 37
Width: 527
VWidth: 999
Flags: HW
HStem: -212 76<-60.7998 645.174> 60 86<238.182 303.644> 190 59<100 427> 285 86<238.746 303.104> 718 36<-51.179 635.472>
VStem: -120 36<-107.953 686.051> 227 87<69.334 134.346 294.018 359.029> 664 96<-118.923 694.8>
LayerCount: 3
Back
SplineSet
-58.1055 256.836 m 29
 565.43 256.836 l 29
0 572.012 m 5
 527.344 572.012 l 5
 527.344 0 l 5
 0 0 l 5
 0 572.012 l 5
EndSplineSet
Fore
SplineSet
760 -84 m 2
 760 -174 731 -212 641 -212 c 2
 9 -212 l 2
 -81 -212 -120 -174 -120 -84 c 2
 -120 625 l 2
 -120 708 -72 754 9 754 c 2
 611 754 l 2
 701 754 760 715 760 625 c 2
 760 -84 l 2
9 718 m 2
 -51 718 -84 685 -84 625 c 2
 -84 -53 l 2
 -84 -113 -51 -136 9 -136 c 2
 581 -136 l 2
 641 -136 664 -113 664 -53 c 2
 664 625 l 2
 664 685 641 718 581 718 c 2
 9 718 l 2
427 248 m 17
 427 191 l 5
 100 191 l 5
 100 248 l 9
 427 248 l 17
227 102 m 1
 227 105 l 1
 235 125 247 137 270 146 c 1
 272 146 l 1
 294 138 306 127 314 105 c 1
 314 102 l 1
 305 77 294 66 272 60 c 1
 270 60 l 1
 245 66 234 77 227 102 c 1
227 326 m 1
 227 329 l 1
 235 349 247 362 270 371 c 1
 272 371 l 1
 294 363 306 351 314 329 c 1
 314 326 l 1
 305 301 294 291 272 285 c 1
 270 285 l 1
 245 291 234 301 227 326 c 1
EndSplineSet
Colour: ff00ff
EndChar

StartChar: ugrave
Encoding: 249 249 38
Width: 1100
VWidth: 999
Flags: W
HStem: -212 76<179.2 885.174> 35 48<474.899 551.764> 718 36<188.821 875.472>
VStem: 120 36<-107.953 686.051> 375 89<92.9125 362.036> 588 89<115.094 362.036> 904 96<-118.923 694.8>
LayerCount: 3
Back
SplineSet
-90.8203 672.852 m 5
 528.32 672.852 l 5
 528.32 510.254 l 5
 -90.8203 510.254 l 5
 -90.8203 672.852 l 5
EndSplineSet
Fore
Refer: 662 768 N 1 0 0 1 528 -28 2
Refer: 301 117 N 1 0 0 1 0 0 3
Substitution2: "'smcp' Gemeine nach Kapitaelchen 1" ugrave.sc
AlternateSubs2: "'aalt' Alle Alternativen zeigen 1" ugrave.sc
Colour: ff00ff
EndChar

StartChar: uacute
Encoding: 250 250 39
Width: 1100
VWidth: 999
Flags: HW
HStem: 83 48<482 557> 88 16<613 620 698 704> 399 15<368 419 419 471 596 647 647 699>
VStem: 375 88<149 410> 603 88<170 410>
LayerCount: 3
Back
SplineSet
-90.8203 672.852 m 5
 528.32 672.852 l 5
 528.32 510.254 l 5
 -90.8203 510.254 l 5
 -90.8203 672.852 l 5
EndSplineSet
Fore
Refer: 663 769 N 1 0 0 1 584 -28 2
Refer: 301 117 N 1 0 0 1 0 0 3
Substitution2: "'smcp' Gemeine nach Kapitaelchen 1" uacute.sc
AlternateSubs2: "'aalt' Alle Alternativen zeigen 1" uacute.sc
Colour: ff00ff
EndChar

StartChar: edotaccent
Encoding: 279 279 43
Width: 1100
VWidth: 999
Flags: HW
HStem: 82 51<506 621> 272 33<463 588> 382 37<495 574> 488 104<490 565>
VStem: 366 94<185 272 305 314> 476 104<503 578> 588 95<280 346>
LayerCount: 3
Back
SplineSet
-98.3887 618.652 m 5
 520.264 618.652 l 5
 520.508 522.949 l 5
 -98.6328 522.949 l 5
 -98.3887 618.652 l 5
510.742 502.441 m 5
 481.934 549.316 444.336 594.727 409.668 632.324 c 5
 430.176 645.508 l 5
 469.238 616.699 501.465 591.309 535.645 555.176 c 5
 572.754 593.262 606.445 618.652 643.555 645.508 c 5
 662.598 632.324 l 5
 627.93 592.773 589.844 548.34 560.547 502.441 c 5
 510.742 502.441 l 5
-210.449 647.949 m 5
 -208.496 596.68 -162.109 556.152 -101.562 556.152 c 4
 -55.6641 556.152 3.90625 585.938 6.34766 647.949 c 5
 32.7148 634.277 l 5
 22.9492 533.691 -51.7578 499.023 -101.562 499.023 c 4
 -179.199 499.023 -229.98 556.641 -237.305 634.277 c 5
 -210.449 647.949 l 5
144.043 645.508 m 5
 172.852 598.633 209.473 555.664 245.117 515.625 c 5
 224.609 502.441 l 5
 185.547 531.25 151.855 556.152 118.164 592.285 c 5
 81.0547 554.199 48.3398 529.297 11.2305 502.441 c 5
 -8.30078 515.625 l 5
 26.8555 555.176 64.9414 599.609 94.2383 645.508 c 5
 144.043 645.508 l 5
-98.3887 664.062 m 5
 520.264 664.062 l 5
 520.264 500.732 l 5
 -98.3887 500.732 l 5
 -98.3887 664.062 l 5
438.477 662.598 m 21
 441.895 664.062 448.242 665.039 453.125 665.039 c 4
 481.123 665.039 493.569 654.214 501.953 646.704 c 4
 504.258 644.639 506.309 642.856 508.301 641.602 c 5
 510.742 630.859 l 5
 395.996 521.973 l 6
 380.371 507.324 373.535 502.441 367.188 502.441 c 4
 359.375 502.441 352.539 507.974 352.539 514.487 c 4
 352.539 519.858 352.631 527.246 358.887 537.109 c 6
 438.477 662.598 l 21
-98.3887 616.211 m 5
 520.264 616.211 l 5
 520.508 525.391 l 5
 -98.6328 525.391 l 5
 -98.3887 616.211 l 5
80.0781 570.801 m 4
 80.0781 595.703 100.586 616.211 125.488 616.211 c 4
 150.391 616.211 170.898 595.703 170.898 570.801 c 4
 170.898 545.898 150.391 525.391 125.488 525.391 c 4
 100.586 525.391 80.0781 545.898 80.0781 570.801 c 4
240.723 570.801 m 4
 240.723 595.703 261.23 616.211 286.133 616.211 c 4
 311.035 616.211 331.543 595.703 331.543 570.801 c 4
 331.543 545.898 311.035 525.391 286.133 525.391 c 4
 261.23 525.391 240.723 545.898 240.723 570.801 c 4
EndSplineSet
Fore
Refer: 657 729 N 1 0 0 1 343 -52 2
Refer: 285 101 N 1 0 0 1 0 0 3
Colour: ff00ff
EndChar

StartChar: Eogonek
Encoding: 280 280 44
Width: 1100
VWidth: 999
Flags: HW
HStem: -125 29<529 592> 43 19<581 608> 43 47<457 630> 280 38<453 616> 474 16<459 665> 483 44<457 625>
VStem: 357 96<91 280 318 482> 474 45<-87 -13>
LayerCount: 3
Fore
SplineSet
543 -125 m 0xb3
 504 -125 474 -102 474 -61 c 0
 474 -13 530 51 604 62 c 1xd3
 620 43 l 1
 560 43 518 -13 518 -52 c 0
 518 -76 535 -96 562 -96 c 0
 584 -96 600 -85 614 -69 c 1
 626 -75 l 1
 608 -110 570 -125 543 -125 c 0xb3
EndSplineSet
Refer: 28 69 N 1 0 0 1 0 0 3
Position2: "'cpsp' Versalabstaende 1" dx=2 dy=0 dh=4 dv=0
Substitution2: "'c2sc' Versale nach Kapitaelchen 1" eogonek.sc
Colour: ff80cc
EndChar

StartChar: eogonek
Encoding: 281 281 45
Width: 1100
VWidth: 999
Flags: HW
HStem: -121 33<562 614> 16 51<506 621> 206 33<463 588> 316 37<495 574>
VStem: 366 94<119 206 239 248> 508 50<-84 -13> 588 95<215 281>
LayerCount: 3
Back
SplineSet
311.768 -193.359 m 4
 258.057 -193.359 218.506 -162.598 218.506 -107.91 c 4
 218.506 -42.9688 293.213 41.5039 392.334 56.1523 c 5
 413.33 30.7617 l 5
 333.13 30.7617 278.564 -43.9453 278.564 -95.7031 c 4
 278.564 -127.441 300.537 -153.809 336.67 -153.809 c 4
 366.455 -153.809 386.963 -139.404 406.25 -118.652 c 5
 421.387 -126.221 l 5
 397.705 -173.34 347.21 -193.359 311.768 -193.359 c 4
EndSplineSet
Fore
Refer: 285 101 N 1 0 0 1 0 0 3
Refer: 659 731 S 1 0 0 1 381 6 2
AlternateSubs2: "'aalt' Alle Alternativen zeigen 1" eogonek.sc
Substitution2: "'smcp' Gemeine nach Kapitaelchen 1" eogonek.sc
Colour: ff00ff
EndChar

StartChar: ecaron
Encoding: 283 283 47
Width: 1100
VWidth: 999
Flags: HW
HStem: 79 51<506 621> 268 33<463 588> 379 37<495 574>
VStem: 366 94<182 268 302 311> 588 95<277 343>
LayerCount: 3
Back
SplineSet
518.555 502.441 m 5
 489.746 549.316 452.148 594.727 417.48 632.324 c 5
 437.988 645.508 l 5
 477.051 616.699 509.277 591.309 543.457 555.176 c 5
 580.566 593.262 614.258 618.652 651.367 645.508 c 5
 670.41 632.324 l 5
 635.742 592.773 597.656 548.34 568.359 502.441 c 5
 518.555 502.441 l 5
-202.637 647.949 m 5
 -200.684 596.68 -154.297 556.152 -93.75 556.152 c 4
 -47.8516 556.152 11.7188 585.938 14.1602 647.949 c 5
 40.5273 634.277 l 5
 30.7617 533.691 -43.9453 499.023 -93.75 499.023 c 4
 -171.387 499.023 -222.168 556.641 -229.492 634.277 c 5
 -202.637 647.949 l 5
151.855 645.508 m 5
 180.664 598.633 217.285 555.664 252.93 515.625 c 5
 232.422 502.441 l 5
 193.359 531.25 159.668 556.152 125.977 592.285 c 5
 88.8672 554.199 56.1523 529.297 19.043 502.441 c 5
 -0.488281 515.625 l 5
 34.668 555.176 72.7539 599.609 102.051 645.508 c 5
 151.855 645.508 l 5
-90.5762 664.062 m 5
 528.076 664.062 l 5
 528.076 500.732 l 5
 -90.5762 500.732 l 5
 -90.5762 664.062 l 5
446.289 662.598 m 21
 449.707 664.062 456.055 665.039 460.938 665.039 c 4
 488.936 665.039 501.382 654.214 509.766 646.704 c 4
 512.07 644.639 514.121 642.856 516.113 641.602 c 5
 518.555 630.859 l 5
 403.809 521.973 l 6
 388.184 507.324 381.348 502.441 375 502.441 c 4
 367.188 502.441 360.352 507.974 360.352 514.487 c 4
 360.352 519.858 360.443 527.246 366.699 537.109 c 6
 446.289 662.598 l 21
-90.5762 616.211 m 5
 528.076 616.211 l 5
 528.076 525.635 l 5
 -90.5762 525.635 l 5
 -90.5762 616.211 l 5
87.8906 570.801 m 4
 87.8906 595.703 108.398 616.211 133.301 616.211 c 4
 158.203 616.211 178.711 595.703 178.711 570.801 c 4
 178.711 545.898 158.203 525.391 133.301 525.391 c 4
 108.398 525.391 87.8906 545.898 87.8906 570.801 c 4
248.535 570.801 m 4
 248.535 595.703 269.043 616.211 293.945 616.211 c 4
 318.848 616.211 339.355 595.703 339.355 570.801 c 4
 339.355 545.898 318.848 525.391 293.945 525.391 c 4
 269.043 525.391 248.535 545.898 248.535 570.801 c 4
EndSplineSet
Fore
Refer: 650 711 N 1 0 0 1 318 -13 2
Refer: 285 101 N 1 0 0 1 0 0 3
AlternateSubs2: "'aalt' Alle Alternativen zeigen 1" ecaron.sc
Substitution2: "'smcp' Gemeine nach Kapitaelchen 1" ecaron.sc
Colour: ff00ff
EndChar

StartChar: gdotaccent
Encoding: 289 289 53
Width: 1100
VWidth: 999
Flags: HW
HStem: -114 39<430 559> 53 53<448 497> 56 56<451 580> 167 40<449 530> 354 40<446 527> 463 104<451 526>
VStem: 330 81<-56 22> 350 82<224 332> 354 58<110 177> 437 104<477 552> 544 81<227 327> 600 77<-34 37>
LayerCount: 3
Back
SplineSet
-98.3887 618.652 m 5
 520.264 618.652 l 5
 520.508 522.949 l 5
 -98.6328 522.949 l 5
 -98.3887 618.652 l 5
510.742 502.441 m 5
 481.934 549.316 444.336 594.727 409.668 632.324 c 5
 430.176 645.508 l 5
 469.238 616.699 501.465 591.309 535.645 555.176 c 5
 572.754 593.262 606.445 618.652 643.555 645.508 c 5
 662.598 632.324 l 5
 627.93 592.773 589.844 548.34 560.547 502.441 c 5
 510.742 502.441 l 5
-210.449 647.949 m 5
 -208.496 596.68 -162.109 556.152 -101.562 556.152 c 4
 -55.6641 556.152 3.90625 585.938 6.34766 647.949 c 5
 32.7148 634.277 l 5
 22.9492 533.691 -51.7578 499.023 -101.562 499.023 c 4
 -179.199 499.023 -229.98 556.641 -237.305 634.277 c 5
 -210.449 647.949 l 5
144.043 645.508 m 5
 172.852 598.633 209.473 555.664 245.117 515.625 c 5
 224.609 502.441 l 5
 185.547 531.25 151.855 556.152 118.164 592.285 c 5
 81.0547 554.199 48.3398 529.297 11.2305 502.441 c 5
 -8.30078 515.625 l 5
 26.8555 555.176 64.9414 599.609 94.2383 645.508 c 5
 144.043 645.508 l 5
-98.3887 664.062 m 5
 520.264 664.062 l 5
 520.264 500.732 l 5
 -98.3887 500.732 l 5
 -98.3887 664.062 l 5
438.477 662.598 m 21
 441.895 664.062 448.242 665.039 453.125 665.039 c 4
 481.123 665.039 493.569 654.214 501.953 646.704 c 4
 504.258 644.639 506.309 642.856 508.301 641.602 c 5
 510.742 630.859 l 5
 395.996 521.973 l 6
 380.371 507.324 373.535 502.441 367.188 502.441 c 4
 359.375 502.441 352.539 507.974 352.539 514.487 c 4
 352.539 519.858 352.631 527.246 358.887 537.109 c 6
 438.477 662.598 l 21
-98.3887 616.211 m 5
 520.264 616.211 l 5
 520.508 525.391 l 5
 -98.6328 525.391 l 5
 -98.3887 616.211 l 5
80.0781 570.801 m 4
 80.0781 595.703 100.586 616.211 125.488 616.211 c 4
 150.391 616.211 170.898 595.703 170.898 570.801 c 4
 170.898 545.898 150.391 525.391 125.488 525.391 c 4
 100.586 525.391 80.0781 545.898 80.0781 570.801 c 4
240.723 570.801 m 4
 240.723 595.703 261.23 616.211 286.133 616.211 c 4
 311.035 616.211 331.543 595.703 331.543 570.801 c 4
 331.543 545.898 311.035 525.391 286.133 525.391 c 4
 261.23 525.391 240.723 545.898 240.723 570.801 c 4
EndSplineSet
Fore
Refer: 666 775 N 1 0 0 1 544 -26 2
Refer: 287 103 N 1 0 0 1 0 0 3
Colour: ff00ff
EndChar

StartChar: gcommaaccent
Encoding: 291 291 55
Width: 1100
VWidth: 999
Flags: HW
HStem: -111 39<430 559> 56 53<448 497> 58 56<451 580> 169 40<449 530> 357 40<446 527> 450 62<456 510> 572 13<494 511>
VStem: 330 81<-53 24> 350 82<227 335> 354 58<113 180> 430 24<505 544> 544 81<230 330> 600 77<-32 39>
LayerCount: 3
Back
SplineSet
518.555 502.441 m 5
 489.746 549.316 452.148 594.727 417.48 632.324 c 5
 437.988 645.508 l 5
 477.051 616.699 509.277 591.309 543.457 555.176 c 5
 580.566 593.262 614.258 618.652 651.367 645.508 c 5
 670.41 632.324 l 5
 635.742 592.773 597.656 548.34 568.359 502.441 c 5
 518.555 502.441 l 5
-202.637 647.949 m 5
 -200.684 596.68 -154.297 556.152 -93.75 556.152 c 4
 -47.8516 556.152 11.7188 585.938 14.1602 647.949 c 5
 40.5273 634.277 l 5
 30.7617 533.691 -43.9453 499.023 -93.75 499.023 c 4
 -171.387 499.023 -222.168 556.641 -229.492 634.277 c 5
 -202.637 647.949 l 5
151.855 645.508 m 5
 180.664 598.633 217.285 555.664 252.93 515.625 c 5
 232.422 502.441 l 5
 193.359 531.25 159.668 556.152 125.977 592.285 c 5
 88.8672 554.199 56.1523 529.297 19.043 502.441 c 5
 -0.488281 515.625 l 5
 34.668 555.176 72.7539 599.609 102.051 645.508 c 5
 151.855 645.508 l 5
-90.5762 664.062 m 5
 528.076 664.062 l 5
 528.076 500.732 l 5
 -90.5762 500.732 l 5
 -90.5762 664.062 l 5
446.289 662.598 m 21
 449.707 664.062 456.055 665.039 460.938 665.039 c 4
 488.936 665.039 501.382 654.214 509.766 646.704 c 4
 512.07 644.639 514.121 642.856 516.113 641.602 c 5
 518.555 630.859 l 5
 403.809 521.973 l 6
 388.184 507.324 381.348 502.441 375 502.441 c 4
 367.188 502.441 360.352 507.974 360.352 514.487 c 4
 360.352 519.858 360.443 527.246 366.699 537.109 c 6
 446.289 662.598 l 21
-90.5762 616.211 m 5
 528.076 616.211 l 5
 528.076 525.635 l 5
 -90.5762 525.635 l 5
 -90.5762 616.211 l 5
87.8906 570.801 m 4
 87.8906 595.703 108.398 616.211 133.301 616.211 c 4
 158.203 616.211 178.711 595.703 178.711 570.801 c 4
 178.711 545.898 158.203 525.391 133.301 525.391 c 4
 108.398 525.391 87.8906 545.898 87.8906 570.801 c 4
248.535 570.801 m 4
 248.535 595.703 269.043 616.211 293.945 616.211 c 4
 318.848 616.211 339.355 595.703 339.355 570.801 c 4
 339.355 545.898 318.848 525.391 293.945 525.391 c 4
 269.043 525.391 248.535 545.898 248.535 570.801 c 4
EndSplineSet
Fore
Refer: 1407 786 N 1 0 0 1 483 32 2
Refer: 287 103 N 1 0 0 1 0 0 3
Colour: ff00ff
EndChar

StartChar: Hbar
Encoding: 294 294 58
Width: 1100
VWidth: 999
Flags: HW
HStem: 78 16<377 432 432 488 683 738 738 794> 314 39<470 714> 465 26<338 799> 552 15<377 432 432 488 683 738 738 794>
VStem: 384 96<83 562> 690 96<83 562>
LayerCount: 3
Fore
SplineSet
338 490 m 17
 799 490 l 9
 799 465 l 25
 338 465 l 25
 338 490 l 17
EndSplineSet
Refer: 2230 72 N 1 0 0 1 0 0 3
Position2: "'cpsp' Versalabstaende 1" dx=2 dy=0 dh=4 dv=0
Colour: ff80cc
EndChar

StartChar: hbar
Encoding: 295 295 59
Width: 1100
VWidth: 999
Flags: HW
HStem: 85 16<354 406 406 458 589 641 641 692> 367 50<508 585> 484 29<319 555> 595 15<442 453>
VStem: 362 88<89 326 357 588> 596 88<89 356>
LayerCount: 3
Fore
SplineSet
319 514 m 25
 555 514 l 25
 555 484 l 25
 319 484 l 25
 319 514 l 25
EndSplineSet
Refer: 288 104 N 1 0 0 1 0 0 3
Colour: ff80cc
EndChar

StartChar: itilde
Encoding: 297 297 61
Width: 306
VWidth: 999
Flags: HW
HStem: 76 16<100 152 152 203> 393 15<187 199> 473 33<149 208> 509 34<69 131> 538 8
VStem: 107 88<81 385>
LayerCount: 3
Back
SplineSet
-87.8906 622.07 m 5
 531.25 622.07 l 5
 531.25 525.391 l 5
 -87.8906 525.391 l 5
 -87.8906 622.07 l 5
EndSplineSet
Fore
Refer: 660 732 N 0.9 0 0 1 5 -36 2
Refer: 419 305 N 1 0 0 1 0 0 3
Colour: ff00ff
EndChar

StartChar: imacron
Encoding: 299 299 63
Width: 306
VWidth: 999
Flags: HW
HStem: 70 16<99 151 151 203> 387 15<187 198> 476 33<44 232>
VStem: 43 190<476 509> 107 88<75 379>
LayerCount: 3
Back
SplineSet
326.66 538.574 m 2
 -70.3125 538.574 l 2
 -78.2227 538.574 -81.2988 546.387 -81.2988 553.223 c 0
 -81.2988 564.941 -72.0703 582.52 -61.5234 582.52 c 2
 335.449 582.52 l 2
 344.238 582.52 347.754 574.707 347.754 567.871 c 0
 347.754 556.152 338.085 538.574 326.66 538.574 c 2
EndSplineSet
Fore
Refer: 652 713 N 0.9 0 0 1 -37 24 2
Refer: 419 305 N 1 0 0 1 0 0 3
Colour: ff00ff
EndChar

StartChar: Iogonek
Encoding: 302 302 66
Width: 1100
VWidth: 999
Flags: HW
HStem: -126 29<463 526> 40 16<480 536 536 591> 42 19<515 542> 514 15<480 536 536 591>
VStem: 407 45<-88 -14> 488 96<45 524>
LayerCount: 3
Fore
SplineSet
477 -126 m 0xbc
 437 -126 407 -103 407 -62 c 0
 407 -14 464 50 538 61 c 1
 554 42 l 1
 494 42 452 -14 452 -52 c 0
 452 -76 469 -97 496 -97 c 0
 518 -97 534 -86 548 -70 c 1
 560 -76 l 1
 542 -111 504 -126 477 -126 c 0xbc
EndSplineSet
Refer: 258 73 N 1 0 0 1 0 0 3
Position2: "'cpsp' Versalabstaende 1" dx=2 dy=0 dh=4 dv=0
Colour: ff80cc
EndChar

StartChar: iogonek
Encoding: 303 303 67
Width: 1100
VWidth: 999
Flags: HW
HStem: -112 29<454 516> 54 16<478 530 530 581> 56 19<504 532> 371 15<565 577> 455 104<492 567>
VStem: 398 45<-74 -0> 478 104<469 544> 485 88<59 363>
LayerCount: 3
Fore
SplineSet
467 -112 m 0xbc
 427 -112 398 -89 398 -48 c 0
 398 0 453 64 528 75 c 1
 543 56 l 1
 483 56 443 0 443 -39 c 0
 443 -63 459 -83 486 -83 c 0
 508 -83 524 -72 538 -56 c 1
 550 -62 l 1
 532 -97 494 -112 467 -112 c 0xbc
EndSplineSet
Refer: 289 105 N 1 0 0 1 0 0 3
Colour: ff80cc
EndChar

StartChar: afii10057
Encoding: 1032 1032 69
Width: 385
VWidth: 999
Flags: HW
HStem: 72 45<85 169> 551 15G<192 232 232 271>
VStem: 199 64<179 561>
AnchorPoint: "top_akzent" 231 684 basechar 0
AnchorPoint: "top_punkt" 230 622 basechar 0
LayerCount: 3
Back
SplineSet
208.019 94.2383 m 4
 186.861 0 136.831 -12.207 114.258 -12.207 c 4
 72.2656 -12.207 34.668 7.8125 34.668 41.9922 c 4
 34.668 63.4766 44.4336 82.5195 69.3359 82.5195 c 4
 86.9141 82.5195 101.9 71.8691 105.957 56.1523 c 4
 109.863 41.0156 117.676 32.7148 127.441 32.7148 c 4
 138.389 32.7148 147.876 44.2939 155.241 65.4297 c 4
EndSplineSet
Fore
SplineSet
199 273 m 6
 199 414 l 6
 199 470 198 521 192 564 c 5
 193 566 l 5
 193 566 206 564 232 564 c 4
 258 564 271 566 271 566 c 5
 271 564 l 5
 265 524 264 470 264 414 c 6
 264 290 l 6
 264 204 256 181 217 129 c 28
 186 89 145 72 98 72 c 4
 84 72 70 75 64 79 c 5
 64 81 l 5
 72 96 79 122 85 143 c 5
 93 144 l 5
 101 128 115 117 136 117 c 4
 196 117 199 207 199 273 c 6
EndSplineSet
EndChar

StartChar: afii10021
Encoding: 1044 1044 74
Width: 708
VWidth: 999
Flags: HW
HStem: 63 33<225 420> 514 33<288 420>
VStem: 110 27<-40 19> 426 64<109 503> 508 27<-40 19>
LayerCount: 3
Fore
SplineSet
214 63 m 2
 154 63 145 15 137 -40 c 1
 135 -42 l 1
 111 -42 l 1
 110 -40 l 1
 101 72 l 1
 101 79 105 85 123 87 c 0
 138 89 154 87 165 99 c 0
 184 118 198 172 222 289 c 0
 238 375 247 452 247 499 c 0
 247 516 245 532 243 547 c 1
 243 549 l 1
 243 549 264 547 289 547 c 2
 459 547 l 2
 484 547 498 549 498 549 c 1
 498 547 l 1
 492 507 491 453 491 397 c 2
 491 213 l 2
 491 131 496 90 522 87 c 0
 540 86 544 79 544 72 c 1
 535 -40 l 1
 534 -42 l 1
 510 -42 l 1
 508 -40 l 1
 500 15 491 63 431 63 c 2
 214 63 l 2
399 96 m 2
 413 96 418 101 420 108 c 0
 426 126 426 201 426 213 c 2
 426 397 l 2
 426 410 426 486 420 504 c 1
 415 511 412 514 401 514 c 2
 315 514 l 2
 295 514 288 507 286 488 c 0
 280 412 269 334 260 283 c 0
 243 195 225 121 225 105 c 0
 225 96 234 96 245 96 c 2
 399 96 l 2
EndSplineSet
EndChar

StartChar: afii10024
Encoding: 1046 1046 75
Width: 924
VWidth: 999
Flags: HW
HStem: 79 16G<142 149 226 251 673 698 775 782> 80 16<422 478 478 533> 316 34<389 434 490 535> 508 67<168 245 679 756> 553 15<422 478 478 533>
VStem: 430 96<84 563>
LayerCount: 3
Back
SplineSet
19.043 -0.976562 m 1xaa
 17.0898 0.976562 l 1x42
 17.0898 19.5312 l 2
 17.0898 24.9023 20.9961 27.832 24.9023 27.832 c 2
 33.6914 27.832 l 2
 66.4062 27.832 118.652 103.516 169.922 235.84 c 0
 193.344 296.293 219.238 358.398 281.25 358.398 c 1x92
 209.473 383.789 194.336 467.773 184.57 530.273 c 0
 180.176 559.57 161.621 587.402 141.113 587.402 c 0
 128.906 587.402 117.188 582.031 105.469 575.195 c 0
 94.2383 568.359 82.0312 562.5 70.3125 562.5 c 0
 51.2695 562.5 30.7617 580.566 30.7617 604.98 c 0
 30.7617 628.418 44.9219 652.344 92.2852 652.344 c 0
 155.762 652.344 211.426 599.609 219.238 541.992 c 0
 226.562 485.352 234.375 428.711 287.598 396.484 c 0
 311.523 381.836 355.957 381.348 389.16 381.348 c 1
 389.16 338.379 l 1
 282.715 338.379 261.719 281.25 224.609 179.688 c 0
 184.57 71.7773 156.25 0.976562 83.9844 0 c 2
 19.043 -0.976562 l 1xaa
836.914 -0.976562 m 1x82
 770.508 0 l 2
 698.242 0.976562 669.941 71.4258 630.859 179.688 c 0
 594.727 279.785 573.242 338.379 466.797 338.379 c 1
 466.797 381.348 l 1xa2
 500 381.348 542.969 381.836 566.895 396.484 c 0
 620.117 428.711 629.395 485.352 636.719 541.992 c 0
 644.531 599.609 700.195 652.344 763.672 652.344 c 0
 811.035 652.344 825.195 628.418 825.195 604.98 c 0
 825.195 580.566 804.688 562.5 785.645 562.5 c 0
 773.926 562.5 761.719 568.359 750.488 575.195 c 0
 738.77 582.031 727.051 587.402 714.844 587.402 c 0
 694.336 587.402 675.781 559.57 671.387 530.273 c 0
 661.621 467.773 646.484 383.789 574.707 358.398 c 1
 636.719 358.398 662.148 296.111 686.035 235.84 c 0
 738.281 104.004 789.551 27.832 822.266 27.832 c 2
 831.055 27.832 l 2x9a
 834.961 27.832 838.867 24.9023 838.867 19.5312 c 2
 838.867 0.976562 l 1x42
 836.914 -0.976562 l 1x82
EndSplineSet
Fore
SplineSet
302 208 m 4x34
 283 170 268 136 234 79 c 5
 218 80 218 82 199 82 c 4
 182 82 154 80 144 79 c 5
 142 82 l 5
 202 148 200 187 261 260 c 4
 298 304 312 326 364 334 c 5
 364 337 l 5
 333 352 322 414 290 458 c 4
 265 494 239 508 223 508 c 4xb4
 202 508 190 503 176 493 c 5
 168 495 l 5
 147 563 l 5
 151 568 l 5x2c
 170 573 172 575 191 575 c 4
 247 575 289 526 320 480 c 4
 364 413 367 350 434 350 c 5
 434 316 l 5
 354 310 332 267 302 208 c 4x34
622 208 m 4
 592 267 570 310 490 316 c 5
 490 350 l 5
 557 350 560 413 604 480 c 4
 635 526 677 575 733 575 c 4xb4
 752 575 754 573 773 568 c 5x2c
 777 563 l 5
 756 495 l 5
 748 493 l 5
 734 503 722 508 701 508 c 4
 685 508 659 494 634 458 c 4
 602 414 591 352 560 337 c 5
 560 334 l 5
 612 326 626 304 663 260 c 4
 724 187 722 148 782 82 c 5
 780 79 l 5
 770 80 742 82 725 82 c 4
 706 82 706 80 690 79 c 5
 656 136 641 170 622 208 c 4
EndSplineSet
Refer: 258 73 N 1 0 0 1 235 0 2
Colour: ff80cc
EndChar

StartChar: afii10025
Encoding: 1047 1047 76
Width: 542
VWidth: 999
Flags: HW
HStem: 72 28<196 310> 333 28<185 297> 432 16G<103 135> 549 26<191 299>
VStem: 103 22<434 466> 348 60<405 508> 370 69<156 272>
LayerCount: 3
Back
SplineSet
257.324 -12.207 m 4
 171.387 -12.207 114.746 19.043 83.4961 43.457 c 4
 56.6406 64.4531 35.6445 95.2148 35.6445 122.07 c 4
 35.6445 147.949 48.3398 164.551 66.4062 164.551 c 4
 94.7266 164.551 106.445 152.344 117.188 119.629 c 4
 140.625 48.3398 195.801 21.4844 267.578 21.4844 c 4
68.3594 645.508 m 1
 49.3164 471.68 l 1
 79.1016 468.75 l 1
 86.4258 511.719 122.07 606.445 173.828 606.445 c 2
EndSplineSet
Fore
SplineSet
253 100 m 0xfa
 305 100 370 132 370 213 c 0xfa
 370 251 341 333 253 333 c 2
 199 333 l 2
 190 333 185 338 185 346 c 0
 185 354 190 360 199 360 c 2
 234 360 l 2
 323 360 348 419 348 460 c 0
 348 510 300 549 253 549 c 0
 161 549 144 493 126 432 c 9
 103 434 l 25
 118 565 l 17
 184 565 210 574 255 574 c 0
 325 574 408 539 408 468 c 0xfc
 408 408 376 371 322 351 c 1
 375 336 439 305 439 225 c 0
 439 112 339 72 250 72 c 0
 190 72 153 95 130 113 c 0
 109 129 94 149 94 169 c 0
 94 189 102 204 119 204 c 0
 140 204 148 195 156 171 c 0
 172 125 196 100 253 100 c 0xfa
EndSplineSet
EndChar

StartChar: afii10026
Encoding: 1048 1048 77
Width: 700
VWidth: 999
Flags: HW
HStem: 78 16<165 221 221 276 470 525 525 581> 552 15<165 221 221 276 470 525 525 581>
VStem: 173 96<83 562> 477 96<83 562>
DStem2: 234 181 234 139 0.608002 0.793935<0 370.025>
LayerCount: 3
Fore
SplineSet
479 459 m 2
 234 139 l 1
 234 181 l 2
 479 501 l 1
 479 459 l 2
EndSplineSet
Refer: 258 73 S 1 0 0 1 304 0 2
Refer: 258 73 N 1 0 0 1 0 0 2
EndChar

StartChar: afii10035
Encoding: 1057 1057 81
Width: 1100
VWidth: 999
Flags: HW
HStem: 74 45<483 623> 532 42<483 626>
VStem: 292 109<229 402>
LayerCount: 3
Back
SplineSet
574.707 645.508 m 5
 593.75 471.68 l 5
 563.965 468.75 l 5
 556.641 511.719 520.996 606.445 469.238 606.445 c 6
EndSplineSet
Fore
Refer: 26 67 N 1 0 0 1 0 0 3
Colour: ff00ff
EndChar

StartChar: afii10037
Encoding: 1059 1059 83
Width: 580
VWidth: 999
Flags: HW
HStem: 62 50<176 247> 549 15G<117 125 190 200 423 437 490 492>
DStem2: 285 182 332 199 0.410131 0.912027<-79.0328 10.4721 85.0448 246.04>
LayerCount: 3
Fore
SplineSet
332 199 m 2
 296 119 259 62 191 62 c 0
 160 62 125 79 125 103 c 0
 125 124 137 141 161 141 c 0
 171 141 188 136 195 127 c 0
 200 120 212 112 222 112 c 0
 254 112 266 139 285 182 c 1
 220 333 140 504 110 564 c 1
 123 562 143 562 155 562 c 4
 168 562 184 562 197 564 c 5
 203 542 244 431 318 260 c 1
 364 368 413 488 433 564 c 1
 442 562 462 562 470 562 c 0
 479 562 488 562 497 564 c 1
 332 199 l 2
EndSplineSet
EndChar

StartChar: afii10040
Encoding: 1062 1062 85
Width: 639
VWidth: 999
Flags: HW
HStem: 63 33<224 425> 534 15G<145 186 186 225 422 462 462 503>
VStem: 153 64<109 545> 430 64<99 545> 511 27<-40 19>
LayerCount: 3
Back
SplineSet
428.711 36.6211 m 2
 464.355 36.6211 467.773 51.2695 467.773 83.4961 c 10
548.34 76.6602 m 18
 548.34 51.7578 564.453 27.832 589.517 27.832 c 0
 614.15 27.832 618.276 16.585 618.652 7.8125 c 2
 625 -140.625 l 1
 598.145 -140.625 l 1
 583.74 -70.3125 540.039 2.44141 462.891 2.44141 c 2
622.07 644.204 m 25
 622.07 -297.852 l 25
EndSplineSet
Fore
SplineSet
494 213 m 2
 494 131 499 90 524 87 c 0
 543 86 547 79 547 72 c 1
 538 -40 l 1
 536 -42 l 1
 512 -42 l 1
 511 -40 l 1
 503 14 494 63 434 63 c 2
 186 63 l 6
 160 63 146 61 146 61 c 5
 146 63 l 5
 152 104 153 157 153 213 c 6
 153 397 l 6
 153 453 151 504 145 547 c 5
 146 549 l 5
 146 549 160 547 186 547 c 4
 212 547 224 549 224 549 c 5
 225 547 l 5
 219 507 218 453 218 397 c 6
 218 213 l 6
 218 201 218 126 224 108 c 4
 226 101 231 96 245 96 c 6
 403 96 l 2
 416 96 422 101 424 108 c 0
 429 126 430 201 430 213 c 2
 430 397 l 2
 430 453 428 507 422 547 c 1
 423 549 l 1
 423 549 436 547 462 547 c 0
 488 547 501 549 501 549 c 1
 503 547 l 1
 497 504 494 453 494 397 c 2
 494 213 l 2
EndSplineSet
EndChar

StartChar: afii10041
Encoding: 1063 1063 86
Width: 633
VWidth: 999
Flags: HW
HStem: 88 16<408 464 464 519> 274 48<242 354> 562 15G<144 184 184 224 408 464 464 519>
VStem: 152 64<346 572> 416 96<93 572>
LayerCount: 3
Back
SplineSet
400.391 2.44141 m 6x78
 400.391 2.44141 202.911 3.44141 76.6602 2.44141 c 20x78
 -31.25 -0.976562 l 5
 -33.6914 0.976562 l 5
 -33.6914 17.5781 l 6
 -33.6914 23.4375 -29.541 27.832 -24.9023 27.832 c 6
 1.46484 27.832 l 6xb8
 34.1797 28.8086 41.0156 35.1562 41.0156 74.707 c 14
 41.0156 571.777 l 6
 41.0156 610.84 34.9121 617.676 1.46484 617.676 c 6
 -28.3203 617.676 l 6
 -31.7383 617.676 -33.6914 619.141 -33.6914 622.559 c 6
 -33.6914 644.531 l 5
 -31.7383 646.484 l 5
 76.6602 644.531 l 4
 193.848 646.484 l 5
 195.801 644.692 l 5
 195.801 623.047 l 6
 195.801 619.629 193.848 617.676 190.43 617.676 c 6
 160.645 617.676 l 6
 128.418 617.676 121.582 611.816 121.582 571.777 c 6
 121.582 83.4961 l 22
 121.582 41.9922 129.395 36.6211 160.645 36.6211 c 6
 373.047 36.6211 l 6x78
 408.691 36.6211 412.109 51.2695 412.109 83.4961 c 14
 412.109 571.777 l 6
 412.109 603.516 410.635 617.061 373.047 617.676 c 6
 343.262 617.676 l 6
 339.844 617.676 337.891 619.141 337.891 622.559 c 6
 337.891 644.287 l 5
 340.332 646.484 l 5
 447.754 644.531 l 4
 563.477 646.484 l 5
 566.406 644.287 l 5
 566.406 623.047 l 6
 566.406 619.629 564.453 617.676 560.547 617.676 c 6
 531.25 617.676 l 6
 494.639 617.065 492.676 605.469 492.676 571.777 c 6
 492.676 76.6602 l 22
 492.676 45.8984 495.117 27.832 528.32 27.832 c 6
 544.922 27.832 l 6xb8
 552.246 27.832 565.918 20.5078 565.918 7.8125 c 6
 566.162 -142.822 l 5
 553.467 -142.822 547.607 -142.822 538.818 -142.822 c 5
 524.414 -72.5098 477.539 2.44141 400.391 2.44141 c 6x78
EndSplineSet
Fore
SplineSet
216 424 m 2
 216 404 l 18
 216 342 246 322 300 322 c 0
 322 322 370 325 418 357 c 1
 418 324 l 17
 363 286 312 274 269 274 c 0
 183 274 152 333 152 407 c 10
 152 424 l 2
 152 481 150 532 144 574 c 1
 146 577 l 1
 146 577 158 574 184 574 c 0
 210 574 223 577 223 577 c 1
 224 574 l 1
 218 535 216 481 216 424 c 2
EndSplineSet
Refer: 258 73 N 1 0 0 1 255 0 2
EndChar

StartChar: afii10042
Encoding: 1064 1064 87
Width: 960
VWidth: 999
Flags: HW
HStem: 81 33<268 443 519 695> 552 15G<189 230 230 270 440 480 480 520 692 732 732 773>
VStem: 198 64<126 562> 448 64<126 562> 700 64<116 562>
LayerCount: 3
Fore
SplineSet
764 231 m 2
 765 174 766 123 772 81 c 1
 770 78 l 1
 770 78 758 81 732 81 c 2
 230 81 l 2
 204 81 191 78 191 78 c 1
 190 81 l 1
 196 121 198 174 198 231 c 2
 198 414 l 2
 198 471 195 522 189 564 c 1
 191 567 l 1
 191 567 204 564 230 564 c 0
 256 564 269 567 269 567 c 1
 270 564 l 1
 264 525 262 471 262 414 c 2
 262 231 l 2
 262 218 263 143 268 125 c 0
 270 118 276 114 289 114 c 2
 421 114 l 2
 434 114 440 118 442 125 c 0
 447 143 448 218 448 231 c 2
 448 414 l 2
 448 471 446 522 440 564 c 1
 441 567 l 1
 441 567 455 564 480 564 c 0
 506 564 519 567 519 567 c 1
 520 564 l 1
 514 525 512 471 512 414 c 2
 512 231 l 2
 512 218 513 143 518 125 c 0
 521 118 526 114 540 114 c 2
 673 114 l 2
 686 114 692 118 694 125 c 0
 699 143 700 218 700 231 c 2
 700 414 l 2
 700 471 698 525 692 564 c 1
 693 567 l 1
 693 567 706 564 732 564 c 0
 758 564 771 567 771 567 c 1
 773 564 l 1
 767 522 764 471 764 414 c 2
 764 231 l 2
EndSplineSet
EndChar

StartChar: afii10043
Encoding: 1065 1065 88
Width: 948
VWidth: 999
Flags: HW
HStem: 63 33<275 451 526 703> 534 15G<197 237 237 277 447 488 488 527 700 740 740 780>
VStem: 205 64<109 545> 455 64<109 545> 707 64<99 545> 788 27<-40 19>
LayerCount: 3
Back
SplineSet
732.422 36.6211 m 6
 768.066 36.6211 771.484 51.2695 771.484 83.4961 c 14
852.051 76.6602 m 22
 852.051 51.7578 868.164 27.832 893.228 27.832 c 4
 917.861 27.832 921.987 16.585 922.363 7.8125 c 6
 928.711 -140.625 l 5
 901.855 -140.625 l 5
 887.451 -70.3125 843.75 2.44141 766.602 2.44141 c 6
EndSplineSet
Fore
SplineSet
238 63 m 2
 212 63 198 61 198 61 c 1
 197 63 l 1
 203 104 205 157 205 213 c 2
 205 397 l 2
 205 453 203 504 197 547 c 1
 198 549 l 1
 198 549 212 547 237 547 c 0
 263 547 276 549 276 549 c 1
 277 547 l 1
 271 507 269 453 269 397 c 2
 269 213 l 2
 269 201 270 126 275 108 c 0
 278 101 283 96 296 96 c 2
 428 96 l 2
 442 96 447 101 449 108 c 0
 455 126 455 201 455 213 c 2
 455 397 l 2
 455 453 453 504 447 547 c 1
 449 549 l 1
 449 549 462 547 488 547 c 0
 514 547 527 549 527 549 c 1
 527 547 l 1
 521 507 520 453 520 397 c 2
 520 213 l 2
 520 201 521 126 526 108 c 0
 528 101 533 96 547 96 c 2
 680 96 l 6
 694 96 699 101 701 108 c 4
 707 126 707 201 707 213 c 6
 707 397 l 2
 707 453 706 507 700 547 c 1
 701 549 l 1
 701 549 713 547 740 547 c 0
 765 547 779 549 779 549 c 1
 780 547 l 1
 774 504 772 453 772 397 c 2
 772 213 l 2
 772 131 777 90 802 87 c 0
 821 86 824 79 824 72 c 1
 815 -40 l 1
 814 -42 l 1
 790 -42 l 1
 788 -40 l 1
 780 14 771 63 711 63 c 2
 238 63 l 2
EndSplineSet
EndChar

StartChar: afii10044
Encoding: 1066 1066 89
Width: 717
VWidth: 999
Flags: HW
HStem: 79 26<339 468> 327 33<352 483> 507 16G<129 282> 516 48<131 284>
VStem: 288 64<109 327 360 514> 532 70<158 281>
LayerCount: 3
Back
SplineSet
41.2598 645.508 m 5
 25.6348 471.68 l 5
 55.4199 468.75 l 5
 62.7441 511.719 94.9707 606.445 146.729 606.445 c 6
EndSplineSet
Fore
SplineSet
318 564 m 2xdc
 346 564 359 567 359 567 c 1
 360 564 l 1
 354 525 354 471 352 414 c 2
 352 360 l 1
 396 360 l 2
 580 360 602 285 602 218 c 0
 602 93 484 79 394 79 c 0
 367 79 343 81 322 81 c 0
 296 81 281 78 281 78 c 1
 280 81 l 1
 286 121 288 174 288 231 c 2
 288 414 l 2
 288 427 287 498 282 516 c 1xdc
 181 516 130 507 130 507 c 1xec
 129 510 l 1
 130 522 130 543 129 564 c 1
 130 567 l 1
 142 565 160 564 175 564 c 2
 318 564 l 2xdc
352 327 m 1
 352 144 l 2
 352 119 354 105 395 105 c 0
 509 105 532 171 532 218 c 0
 532 263 512 327 416 327 c 2
 352 327 l 1
EndSplineSet
EndChar

StartChar: afii10045
Encoding: 1067 1067 90
Width: 786
VWidth: 999
Flags: HW
HStem: 79 16<542 598 598 653> 79 26<230 359> 327 33<243 374> 552 15<170 211 211 250> 552 15<542 598 598 653>
VStem: 178 64<109 327 360 562> 422 70<158 281> 550 96<83 563>
LayerCount: 3
Back
SplineSet
592.759 599.272 m 22
 592.759 608.74 592.461 615.552 591.87 619.692 c 4
 590.684 627.983 586.987 634.341 580.771 638.779 c 4
 576.924 642.031 568.643 643.662 555.913 643.662 c 6
 527.949 644.106 l 6
 524.697 644.404 523.066 645.884 523.066 648.545 c 6
 523.066 664.082 l 5
 626.05 661.865 l 4
 733.472 664.082 l 5
 733.472 649.434 l 6
 733.472 646.182 731.694 644.404 728.145 644.106 c 6
 700.625 643.662 l 6
 687.896 643.662 679.614 642.031 675.767 638.779 c 4
 668.96 633.452 665.259 627.095 664.668 619.692 c 4
 664.077 613.179 663.779 606.377 663.779 599.272 c 14
 663.779 92.7939 l 6
 663.779 85.6914 664.077 78.8857 664.668 72.375 c 4
 665.259 64.9766 668.96 58.6133 675.767 53.2871 c 4
 679.614 50.3281 687.896 48.7002 700.625 48.4043 c 6
 728.145 47.9609 l 6
 731.694 47.9609 733.472 46.333 733.472 43.0771 c 6
 733.472 27.9854 l 5
 626.05 30.2051 l 4
 523.066 27.9854 l 5
 523.066 43.5215 l 6
 523.066 46.4805 524.697 47.9609 527.949 47.9609 c 6
 555.913 48.4043 l 6
 568.643 48.7002 576.924 50.3281 580.771 53.2871 c 4
 586.987 57.7266 590.684 64.0889 591.87 72.375 c 4
 592.456 76.5176 592.759 83.3242 592.759 92.7939 c 6
 592.759 599.272 l 22
197.693 597.5 m 14
 197.693 386.207 l 21
 250.96 386.207 l 6
 329.092 386.207 386.649 377.328 423.635 359.572 c 4
 492.29 326.725 526.616 274.789 526.616 203.767 c 4
 526.616 145.173 504.126 99.748 459.146 67.4922 c 4
 423.635 42.042 381.465 29.3174 332.637 29.3174 c 6
 56.9795 29.3174 l 5
 56.9795 44.8535 l 6
 56.9795 47.7607 58.6074 49.2402 61.8623 49.293 c 6
 89.8271 49.7363 l 6
 102.428 49.9365 110.714 51.5645 114.686 54.6191 c 4
 120.899 59.0586 124.6 65.4199 125.782 73.707 c 4
 126.375 77.8477 126.67 84.6533 126.67 94.125 c 14
 126.67 597.5 l 22
 126.67 606.968 126.375 613.779 125.782 617.92 c 4
 124.732 625.273 121.033 631.636 114.686 637.007 c 4
 111.082 640.054 102.797 641.68 89.8271 641.89 c 6
 61.8623 642.334 l 6
 58.6074 642.378 56.9795 643.862 56.9795 646.772 c 6
 56.9795 662.305 l 5
 159.962 660.088 l 4
 267.385 662.305 l 5
 267.385 647.661 l 6
 267.385 644.165 265.608 642.388 262.058 642.334 c 6
 234.536 641.89 l 6
 221.564 641.68 213.277 640.054 209.678 637.007 c 4
 202.873 631.68 199.172 625.317 198.581 617.92 c 4
 197.989 611.406 197.693 604.6 197.693 597.5 c 14
197.693 354.689 m 13
 197.693 61.7207 l 21
 238.235 54.0273 277.594 52.252 315.769 56.3945 c 4
 362.229 61.7207 397.149 80.2168 420.527 111.881 c 4
 438.283 135.555 447.16 166.628 447.16 205.099 c 4
 447.16 240.313 437.543 272.126 418.308 300.535 c 4
 393.746 336.639 349.356 354.689 285.14 354.689 c 6
 197.693 354.689 l 13
EndSplineSet
Fore
Refer: 258 73 N 1 0 0 1 369 1 2
Refer: 91 1068 N 1 0 0 1 0 0 2
Colour: ff00ff
EndChar

StartChar: afii10046
Encoding: 1068 1068 91
Width: 558
VWidth: 999
Flags: HW
HStem: 79 26<205 335> 327 33<218 350> 552 15G<146 186 186 226>
VStem: 154 64<109 327 360 562> 398 70<158 281>
LayerCount: 3
Fore
SplineSet
218 327 m 1
 218 144 l 2
 218 119 220 105 261 105 c 0
 375 105 398 171 398 218 c 0
 398 263 378 327 282 327 c 2
 218 327 l 1
188 81 m 0
 162 81 147 78 147 78 c 1
 146 81 l 1
 152 121 154 174 154 231 c 2
 154 414 l 2
 154 471 152 522 146 564 c 1
 147 567 l 1
 147 567 161 564 186 564 c 0
 212 564 225 567 225 567 c 1
 226 564 l 1
 220 525 218 471 218 414 c 2
 218 360 l 1
 262 360 l 2
 446 360 468 285 468 218 c 0
 468 93 350 79 260 79 c 0
 233 79 210 81 188 81 c 0
EndSplineSet
EndChar

StartChar: afii10047
Encoding: 1069 1069 92
Width: 604
VWidth: 999
Flags: HMW
HStem: 72 26<221 345> 286 42<307 392> 314 37<192 288> 546 28<217 335>
VStem: 429 67<220 311 339 426>
LayerCount: 3
Back
SplineSet
278.809 657.715 m 0x9c
 439.453 657.715 556.152 545.41 556.152 324.219 c 0
 556.152 143.066 434.082 -12.207 264.16 -12.207 c 0
 178.16 -12.207 120.117 19.043 88.8672 43.457 c 0
 62.0977 64.3711 43.457 91.1641 43.457 118.164 c 0
 43.457 144.043 60.0586 164.551 83.0078 164.551 c 0
 111.328 164.551 124.487 152.379 135.254 119.629 c 0
 158.691 48.3398 207.52 21.4844 279.297 21.4844 c 0
 406.738 21.4844 464.844 190.43 466.797 301.758 c 1x9c
 263.184 296.391 l 2xac
 247.494 296.02 225.374 292.479 205.866 292.479 c 0
 182.292 292.479 162.531 297.648 162.531 319.824 c 0
 162.531 344.693 180.365 350.412 202.663 350.412 c 0xcc
 220.644 350.412 241.526 346.693 258.301 346.297 c 2xac
 466.797 340.82 l 1
 460.938 563.477 349.609 621.094 270.508 621.094 c 0
 176.27 621.094 97.6562 539.551 71.7773 453.613 c 1
 41.5039 458.496 l 1
 51.2695 509.766 60.4297 558.179 63.4766 612.793 c 1
 121.094 616.211 173.828 657.715 278.809 657.715 c 0x9c
EndSplineSet
Fore
SplineSet
429 311 m 1xd8
 388 286 355 286 345 286 c 0xd8
 299 286 267 314 222 314 c 0
 194 314 182 302 176 302 c 0
 173 302 169 304 169 311 c 0
 169 330 216 351 261 351 c 0xb8
 310 351 332 328 375 328 c 0
 397 328 414 332 429 339 c 1
 421 493 339 546 279 546 c 0
 207 546 149 486 129 421 c 1
 107 424 l 1
 115 464 121 499 123 540 c 1
 166 543 206 574 285 574 c 0
 408 574 496 493 496 330 c 0
 496 166 409 72 282 72 c 0
 217 72 175 95 152 113 c 0
 132 129 116 152 116 172 c 0
 116 192 125 204 138 204 c 0
 160 204 169 195 177 171 c 0
 195 117 236 96 290 96 c 0
 385 96 429 208 429 311 c 1xd8
EndSplineSet
EndChar

StartChar: afii10048
Encoding: 1070 1070 93
Width: 905
VWidth: 999
Flags: HW
HStem: 72 29<510 619> 78 16<194 250 250 306> 307 33<263 336> 545 29<494 606> 552 15<194 250 250 306>
VStem: 202 96<83 562> 336 72<226 307 340 416> 700 72<224 424>
LayerCount: 3
Fore
SplineSet
544 545 m 0xb7
 481 545 408 484 408 326 c 0
 408 182 486 101 566 101 c 0
 644 101 700 179 700 313 c 0
 700 469 638 545 544 545 c 0xb7
263 340 m 1
 337 340 l 1
 347 474 435 574 552 574 c 0
 678 574 772 476 772 328 c 0
 772 178 686 72 553 72 c 0
 434 72 338 162 336 307 c 1
 263 307 l 1
 263 340 l 1
EndSplineSet
Refer: 258 73 N 1 0 0 1 0 0 2
EndChar

StartChar: afii10049
Encoding: 1071 1071 94
Width: 561
VWidth: 999
Flags: HW
HStem: 79 16G<60 68 144 155 337 377 377 416> 296 33<264 344> 541 29<222 358>
VStem: 113 73<375 505> 344 64<83 296 329 533>
LayerCount: 3
Back
SplineSet
387.695 322.754 m 21
 281.25 322.754 266.602 281.738 230.469 179.688 c 4
 191.895 70.3125 163.085 1.07129 91.3086 0 c 6
 25.8789 -0.976562 l 5xa2
 24.4141 0.976562 l 5x62
 24.4141 19.5312 l 6
 24.4141 24.9023 27.832 27.832 31.7383 27.832 c 6xb2
 41.0156 27.832 l 6
 73.7305 27.832 125 102.539 176.758 235.84 c 4
 200.684 296.387 219.238 342.773 281.25 342.773 c 5
 263.021 350.424 84.1318 351.723 83.9844 504.395 c 5
 83.9844 562.5 117.676 646.484 303.711 646.484 c 4
 338.867 646.484 397.461 644.531 430.176 644.531 c 4
 461.914 644.531 558.594 646.484 558.594 646.484 c 5
 558.594 624.512 l 6
 558.594 620.605 556.763 617.676 551.27 617.676 c 6
 521.484 617.676 l 6
 479.98 617.676 468.262 607.939 468.262 573.73 c 6
 468.262 71.2891 l 6
 468.262 40.5273 483.398 27.832 522.949 27.832 c 6
 549.316 27.832 l 6
 553.711 27.832 557.617 24.9023 557.617 19.5312 c 6
 557.617 0.976562 l 5
 555.664 -0.976562 l 5
 555.664 -0.976562 468.75 0.976562 429.688 0.976562 c 4
 394.043 0.976562 300.781 -0.976562 300.781 -0.976562 c 5
 298.828 0.976562 l 5
 298.828 19.5312 l 6
 298.828 24.9023 301.758 27.832 306.641 27.832 c 6
 333.008 27.832 l 6
 374.023 27.832 387.695 43.457 387.695 71.2891 c 6
 387.695 322.754 l 21
387.695 575.195 m 6
 387.695 365.723 l 5
 310.059 365.723 l 6
 227.051 365.723 161.133 417.969 161.133 502.441 c 4
 161.133 594.727 240.723 611.328 296.875 611.328 c 4x36
 383.301 611.328 387.695 607.91 387.695 575.195 c 6
EndSplineSet
Fore
SplineSet
232 317 m 1
 303 306 l 1
 279 280 254 246 231 213 c 0
 193 159 159 104 151 79 c 1
 137 81 114 81 100 81 c 0
 85 81 76 81 61 79 c 1
 60 81 l 1
 99 126 186 257 232 317 c 1
344 296 m 1
 250 296 214 306 188 320 c 0
 147 340 113 379 113 440 c 0
 113 478 126 509 152 534 c 0
 188 568 236 570 283 570 c 0
 302 570 354 565 377 565 c 0
 402 565 415 567 415 567 c 1
 416 565 l 1
 410 522 409 471 409 415 c 2
 409 231 l 2
 409 175 410 122 416 81 c 1
 416 79 l 1
 416 79 403 81 377 81 c 0
 351 81 338 79 338 79 c 1
 337 81 l 1
 343 124 344 175 344 231 c 2
 344 296 l 1
282 541 m 0
 236 541 186 528 186 440 c 0
 186 346 236 329 308 329 c 2
 344 329 l 1
 344 508 l 2
 344 530 336 541 282 541 c 0
EndSplineSet
EndChar

StartChar: afii10089
Encoding: 1095 1095 95
Width: 510
VWidth: 999
Flags: HW
HStem: 58 16<301 338 338 376> 163 33<180 284> 369 15G<101 139 139 176 301 338 338 376>
VStem: 109 60<207 380> 308 60<62 380>
LayerCount: 3
Back
SplineSet
664.062 430.664 m 5
 666.016 428.711 l 5
 666.016 410.156 l 6
 666.016 404.785 663.086 401.855 658.203 401.855 c 6
 631.836 401.855 l 6
 590.82 401.855 74.2188 401.855 34.668 401.855 c 6
 8.30078 401.855 l 6
 3.90625 401.855 0 404.785 0 410.156 c 6
 0 428.711 l 5
 1.95312 430.664 l 5
 664.062 430.664 l 5
-122.07 428.711 m 5
 785.156 428.711 l 5
-57.1289 0.976562 m 5
 990.234 0.976562 l 5
741.699 27.832 m 6
 768.066 27.832 l 6
 772.461 27.832 776.367 24.9023 776.367 19.5312 c 6
 776.367 0.976562 l 5
 774.414 -0.976562 l 5
 9.27734 -0.976562 l 5
 7.32422 0.976562 l 5
 7.32422 19.5312 l 6
 7.32422 24.9023 10.2539 27.832 15.1367 27.832 c 6
 41.5039 27.832 l 6
 82.5195 27.832 702.148 27.832 741.699 27.832 c 6
EndSplineSet
Fore
SplineSet
109 279 m 0
 109 335 107 342 101 382 c 1
 102 384 l 1
 102 384 112 382 139 382 c 0
 164 382 175 384 175 384 c 1
 176 382 l 1
 170 339 169 336 169 280 c 0
 169 222 175 196 221 196 c 0
 258 196 286 205 310 229 c 9
 310 195 l 1
 280 174 256 163 211 163 c 0
 138 163 109 199 109 279 c 0
EndSplineSet
Refer: 629 618 N 1 0 0 1 178 0 2
EndChar

StartChar: afii10090
Encoding: 1096 1096 96
Width: 807
VWidth: 999
Flags: HW
HStem: 54 31<240 367 439 568> 363 15G<166 204 204 241 366 403 403 441 565 603 603 641>
VStem: 174 60<95 373> 373 60<95 373> 573 60<86 373>
CounterMasks: 1 38
LayerCount: 3
Fore
SplineSet
633 204 m 22
 633 148 634 94 640 54 c 1
 639 51 l 1
 639 51 626 54 600 54 c 2
 206 54 l 2
 180 54 167 51 167 51 c 1
 166 54 l 1
 172 94 174 147 174 204 c 10
 174 241 l 2
 174 297 173 333 166 375 c 1
 168 378 l 1
 168 378 178 375 204 375 c 0
 230 375 240 378 240 378 c 1
 241 375 l 1
 234 335 234 297 234 241 c 2
 234 204 l 18
 234 191 234 112 240 94 c 1
 245 87 248 84 259 84 c 2
 348 84 l 2
 359 84 362 87 367 94 c 1
 372 112 373 191 373 204 c 10
 373 241 l 2
 373 297 372 333 366 375 c 1
 367 378 l 1
 367 378 378 375 403 375 c 0
 429 375 440 378 440 378 c 1
 441 375 l 1
 434 335 433 297 433 241 c 2
 433 204 l 18
 433 191 434 112 439 94 c 1
 444 87 447 84 459 84 c 2
 558 84 l 2
 569 84 561 87 567 94 c 1
 572 112 573 191 573 204 c 10
 573 240 l 2
 573 297 572 333 565 375 c 1
 567 378 l 1
 567 378 578 375 603 375 c 0
 630 375 640 378 640 378 c 1
 641 375 l 1
 634 335 633 297 633 240 c 2
 633 204 l 22
EndSplineSet
EndChar

StartChar: afii10091
Encoding: 1097 1097 97
Width: 813
VWidth: 999
Flags: HW
HStem: 38 31<247 374 447 575> 347 15G<174 211 211 248 373 410 410 448 572 611 611 648>
VStem: 181 60<79 358> 380 60<79 358> 580 60<69 358> 656 27<-56 -0>
LayerCount: 3
Back
SplineSet
496.094 31.7383 m 6
 463.379 31.7383 459.961 45.4102 459.961 75.1953 c 14
385.254 72.7539 m 22
 385.254 49.8047 370.605 27.832 347.168 27.832 c 4
 324.219 27.832 320.312 17.0898 320.312 9.27734 c 6
 314.453 -128.418 l 5
 339.355 -128.418 l 5
 352.539 -63.4766 393.066 3.90625 464.355 3.90625 c 6
601.562 35.6445 m 6
 634.277 35.6445 637.695 49.3164 637.695 79.1016 c 14
712.402 72.7539 m 22
 712.402 49.8047 727.051 27.832 750.488 27.832 c 4
 773.438 27.832 777.344 17.0898 777.344 9.27734 c 6
 783.203 -128.418 l 5
 758.301 -128.418 l 5
 745.117 -63.4766 704.59 3.90625 633.301 3.90625 c 6
EndSplineSet
Fore
SplineSet
213 38 m 6
 188 38 174 36 174 36 c 5
 174 38 l 5
 180 78 181 132 181 188 c 14
 181 226 l 6
 181 282 180 317 174 360 c 5
 175 362 l 5
 175 362 186 360 211 360 c 4
 237 360 248 362 248 362 c 5
 248 360 l 5
 242 319 241 281 241 226 c 6
 241 188 l 22
 241 175 242 96 247 78 c 5
 252 72 255 69 266 69 c 6
 355 69 l 6
 366 69 369 72 374 78 c 5
 380 96 380 175 380 188 c 14
 380 226 l 6
 380 282 380 317 373 360 c 5
 374 362 l 5
 374 362 385 360 410 360 c 4
 437 360 447 362 447 362 c 5
 448 360 l 5
 441 319 440 281 440 226 c 6
 440 188 l 22
 440 175 441 96 446 78 c 5
 452 72 455 69 466 69 c 6
 565 69 l 6
 576 69 569 72 574 78 c 5
 579 96 580 175 580 188 c 14
 580 225 l 6
 580 282 579 317 572 360 c 5
 574 362 l 5
 574 362 585 360 611 360 c 4
 637 360 648 362 648 362 c 5
 648 360 l 5
 642 320 640 281 640 225 c 6
 640 188 l 22
 640 106 645 64 670 62 c 0
 689 60 692 54 692 46 c 1
 684 -56 l 1
 682 -58 l 1
 658 -58 l 1
 656 -56 l 1
 648 -1 639 38 579 38 c 6
 213 38 l 6
EndSplineSet
EndChar

StartChar: afii10092
Encoding: 1098 1098 98
Width: 539
VWidth: 999
Flags: HW
HStem: 52 27<260 369> 218 28<272 369> 334 41<94 210>
VStem: 212 60<84 218 246 333> 388 60<99 201>
LayerCount: 3
Back
SplineSet
38.0859 429.688 m 9
 26.3672 277.832 l 25
 53.2227 275.391 l 17
 65.4297 332.52 79.5898 391.113 137.207 391.113 c 10
EndSplineSet
Fore
SplineSet
212 241 m 22
 212 294 210 334 210 334 c 5
 116 334 93 326 93 326 c 1
 92 328 l 1
 93 339 93 356 92 375 c 1
 93 377 l 1
 104 376 120 375 134 375 c 6
 242 375 l 6
 268 375 278 378 278 378 c 5
 280 375 l 5
 273 333 272 304 272 248 c 14
 272 246 l 21
 315 246 l 6
 387 246 448 226 448 156 c 4
 448 93 402 52 319 52 c 12
 289 52 272 54 242 54 c 20
 216 54 206 51 206 51 c 5
 205 54 l 5
 212 94 212 132 212 188 c 6
 212 241 l 22
388 148 m 4
 388 188 376 218 322 218 c 6
 272 218 l 5
 272 113 l 6
 272 87 285 79 320 79 c 4
 357 79 388 87 388 148 c 4
EndSplineSet
EndChar

StartChar: afii10094
Encoding: 1100 1100 100
Width: 447
VWidth: 999
Flags: HW
HStem: 52 27<187 296> 218 28<199 296> 363 15G<132 169 169 207>
VStem: 139 60<84 218 246 373> 315 60<99 201>
LayerCount: 3
Back
SplineSet
180.664 357.422 m 6
 180.664 385.742 190.918 401.367 223.633 401.367 c 6
 242.676 401.367 l 6
 247.07 401.367 250.977 404.297 250.977 409.668 c 6
 250.977 428.223 l 5
 249.023 430.176 l 5
 249.023 430.176 180.664 428.223 141.602 428.223 c 4
 105.957 428.223 38.0859 430.176 38.0859 430.176 c 5
 36.1328 428.223 l 5
 36.1328 409.668 l 6
 36.1328 404.297 39.0625 401.367 43.9453 401.367 c 6
 62.9883 401.367 l 6
 96.6797 401.367 105.957 385.742 105.957 357.422 c 6
 105.957 108.398 l 2
 105.957 55.1758 97.168 46.875 83.4961 46.875 c 0
 70.3125 46.875 58.5938 48.3398 41.5039 51.7578 c 1
 36.6211 24.4141 l 1
 100.146 13.8271 112.061 9.0332 140.625 -4.45605 c 0
 151.082 -9.39453 158.317 -12.6953 165.527 -12.6953 c 2
 180.664 -12.6953 l 1
 180.664 357.422 l 6
EndSplineSet
Fore
SplineSet
199 248 m 14
 199 246 l 21
 242 246 l 6
 314 246 375 226 375 156 c 4
 375 93 329 52 246 52 c 12
 216 52 199 54 169 54 c 20
 143 54 132 51 132 51 c 5
 132 54 l 5
 138 94 139 132 139 188 c 6
 139 241 l 22
 139 294 138 335 132 375 c 5
 132 378 l 5
 132 378 143 375 169 375 c 4
 195 375 205 378 205 378 c 5
 207 375 l 5
 200 333 199 304 199 248 c 14
315 148 m 4
 315 188 303 218 249 218 c 6
 199 218 l 5
 199 113 l 6
 199 87 212 79 246 79 c 4
 284 79 315 87 315 148 c 4
EndSplineSet
EndChar

StartChar: afii10095
Encoding: 1101 1101 101
Width: 434
VWidth: 999
Flags: HMW
HStem: 46 23<154 232> 189 37<174 280> 209 31<123 195> 360 23<146 231>
VStem: 289 58<141 210 226 293>
LayerCount: 3
Back
SplineSet
136.23 390.625 m 6
 105.957 390.625 76.6602 377.93 58.1055 294.434 c 5
 31.7383 298.828 l 5
 63.4766 451.172 l 5
 86.9141 446.777 l 5
 87.6465 432.129 91.9902 429.688 107.91 429.688 c 6
309.03 207.447 m 1
 204.102 204.59 l 2
 192.383 204.59 175.781 201.66 161.133 201.66 c 0
 143.555 201.66 128.906 205.566 128.906 222.168 c 0
 128.906 241.211 142.09 245.117 158.691 245.117 c 0
 172.363 245.117 187.988 242.676 200.684 242.188 c 2
 307.162 239.663 l 1
 298.34 375 228.516 410.645 182.129 410.645 c 0
 101.562 410.645 79.5898 354.004 65.4297 287.598 c 1
 39.5508 291.992 l 1
 45.5518 336.016 48.9209 387.496 51.2695 441.865 c 1
 63.9648 441.895 l 1
 73.4863 441.895 77.3926 430.664 84.9609 430.664 c 1
 115.723 430.664 132.324 441.895 192.383 441.895 c 0
 315.43 441.895 385.742 330.566 385.742 220.215 c 0
 385.742 62.9883 271.973 -12.207 183.105 -12.207 c 0
 92.2852 -12.207 36.6211 24.4141 36.6211 84.4727 c 0
 36.6211 98.1445 48.8281 113.281 66.8945 113.281 c 0
 77.6367 113.281 103.027 109.375 107.91 76.1719 c 0
 112.863 42.4912 131.836 18.5547 182.617 18.5547 c 0
 234.276 18.5547 305.664 58.5938 309.03 207.447 c 1
EndSplineSet
Fore
SplineSet
288 231 m 1xd8
 283 285 258 360 190 360 c 0
 130 360 114 317 104 271 c 1
 84 274 l 1
 88 307 90 333 92 374 c 1
 144 374 144 383 198 383 c 0
 290 383 347 305 347 222 c 0
 347 105 266 46 187 46 c 0
 126 46 81 79 81 118 c 0
 81 129 90 140 104 140 c 0
 112 140 128 137 132 112 c 0
 137 87 160 69 192 69 c 0
 263 69 289 151 289 210 c 1
 272 201 248 189 224 189 c 0xd8
 192 189 170 209 144 209 c 0
 134 209 127 205 121 205 c 0
 116 205 116 212 116 215 c 0
 116 226 150 240 182 240 c 0xb8
 216 240 228 225 257 225 c 0
 269 225 279 227 288 231 c 1xd8
EndSplineSet
EndChar

StartChar: afii10096
Encoding: 1102 1102 102
Width: 686
VWidth: 999
Flags: HW
HStem: 46 30<406 488> 51 16<155 193 193 230> 202 29<221 294> 354 28<392 472> 363 15<155 193 193 230>
VStem: 163 60<56 373> 294 64<136 202 231 296> 516 64<134 300>
LayerCount: 3
Fore
SplineSet
221 231 m 6xb7
 295 231 l 5
 302 321 351 383 437 383 c 0
 545 383 580 294 580 216 c 0
 580 141 541 46 437 46 c 0
 341 46 296 126 294 202 c 5
 221 202 l 5
 221 231 l 6xb7
430 354 m 0
 374 354 358 288 358 223 c 0
 358 165 379 76 449 76 c 0
 480 76 516 93 516 192 c 0
 516 302 488 354 430 354 c 0
EndSplineSet
Refer: 629 618 S 1 0 0 1 -2 0 2
EndChar

StartChar: afii10097
Encoding: 1103 1103 103
Width: 429
VWidth: 999
Flags: HW
HStem: 51 22<53 64> 200 26<201 247> 207 20<163 169> 355 22<159 259>
VStem: 74 64<244 332> 247 60<56 200 226 353>
LayerCount: 3
Back
SplineSet
287.598 243.652 m 1xe8
 287.598 210.449 l 1
 204.102 210.449 186.035 172.363 164.062 112.793 c 4
 148.926 72.2656 122.559 0.976562 77.6367 0 c 6
 12.6953 -0.976562 l 5
 10.2539 0.976562 l 5
 10.2539 19.5312 l 6
 10.2539 26.8555 16.1133 27.832 20.5078 27.832 c 6
 27.832 27.832 l 6
 61.0352 27.832 97.168 119.141 111.328 156.738 c 4
 129.395 205.566 164.551 226.562 212.891 226.562 c 1
 173.34 234.375 153.32 274.902 140.137 318.359 c 0
 130.371 348.633 116.699 370.605 106.934 370.605 c 0
 99.1211 370.605 93.75 368.164 89.3555 363.77 c 0
 83.9844 357.91 71.7773 354.492 62.9883 354.492 c 0
 45.8984 354.492 28.3203 373.047 28.3203 393.066 c 0
 28.3203 417.48 38.0859 437.5 75.1953 437.5 c 0
 118.164 437.5 146.973 383.789 163.086 337.402 c 0
 182.129 281.738 208.496 243.652 269.531 243.652 c 2
 287.598 243.652 l 1xe8
EndSplineSet
Fore
SplineSet
307 242 m 2xbc
 307 187 l 2
 307 135 307 94 314 54 c 1
 313 51 l 1
 313 51 303 54 277 54 c 0
 251 54 241 51 241 51 c 1
 239 54 l 1
 246 96 247 125 247 180 c 2
 247 200 l 1
 228 200 l 2xdc
 198 200 180 162 165 117 c 0
 154 86 134 54 108 54 c 2
 53 51 l 1
 51 54 l 1
 51 68 l 2
 51 73 55 74 58 74 c 2
 64 75 l 2
 85 77 110 127 121 156 c 0
 133 186 148 202 169 207 c 5
 128 207 74 233 74 286 c 0
 74 308 88 378 208 378 c 0
 236 378 250 375 277 375 c 16
 303 375 313 378 313 378 c 1
 314 375 l 1
 307 335 307 297 307 242 c 2xbc
247 226 m 1
 247 328 l 2
 247 352 235 355 206 355 c 0
 151 355 138 330 138 294 c 0
 138 257 155 226 198 226 c 2xbc
 247 226 l 1
EndSplineSet
EndChar

StartChar: uni04DB
Encoding: 1243 1243 117
Width: 1100
VWidth: 999
Flags: HW
HStem: 60 37<400 479> 174 33<385 510> 346 51<353 468> 464 69<382 440 502 560>
VStem: 290 95<133 199> 377 69<470 527> 497 69<470 527> 513 94<165 174 208 294>
LayerCount: 3
Back
SplineSet
-90.8203 617.676 m 5
 528.32 617.676 l 5
 528.32 526.855 l 5
 -90.8203 526.855 l 5
 -90.8203 617.676 l 5
EndSplineSet
Fore
Refer: 319 168 N 1 0 0 1 305 -2 2
Refer: 115 1241 N 1 0 0 1 0 0 3
LCarets2: 1 32 
Colour: ff00ff
EndChar

StartChar: uni04E7
Encoding: 1255 1255 121
Width: 1100
VWidth: 999
Flags: HW
HStem: 75 38<499 588> 374 38<487 583> 478 69<438 495 558 615>
VStem: 363 96<166 315> 432 69<484 542> 552 69<484 542> 616 96<172 320>
LayerCount: 3
Back
SplineSet
518.555 502.441 m 5
 489.746 549.316 452.148 594.727 417.48 632.324 c 5
 437.988 645.508 l 5
 477.051 616.699 509.277 591.309 543.457 555.176 c 5
 580.566 593.262 614.258 618.652 651.367 645.508 c 5
 670.41 632.324 l 5
 635.742 592.773 597.656 548.34 568.359 502.441 c 5
 518.555 502.441 l 5
-202.637 647.949 m 5
 -200.684 596.68 -154.297 556.152 -93.75 556.152 c 4
 -47.8516 556.152 11.7188 585.938 14.1602 647.949 c 5
 40.5273 634.277 l 5
 30.7617 533.691 -43.9453 499.023 -93.75 499.023 c 4
 -171.387 499.023 -222.168 556.641 -229.492 634.277 c 5
 -202.637 647.949 l 5
151.855 645.508 m 5
 180.664 598.633 217.285 555.664 252.93 515.625 c 5
 232.422 502.441 l 5
 193.359 531.25 159.668 556.152 125.977 592.285 c 5
 88.8672 554.199 56.1523 529.297 19.043 502.441 c 5
 -0.488281 515.625 l 5
 34.668 555.176 72.7539 599.609 102.051 645.508 c 5
 151.855 645.508 l 5
-90.5762 664.062 m 5
 528.076 664.062 l 5
 528.076 500.732 l 5
 -90.5762 500.732 l 5
 -90.5762 664.062 l 5
446.289 662.598 m 21
 449.707 664.062 456.055 665.039 460.938 665.039 c 4
 488.936 665.039 501.382 654.214 509.766 646.704 c 4
 512.07 644.639 514.121 642.856 516.113 641.602 c 5
 518.555 630.859 l 5
 403.809 521.973 l 6
 388.184 507.324 381.348 502.441 375 502.441 c 4
 367.188 502.441 360.352 507.974 360.352 514.487 c 4
 360.352 519.858 360.443 527.246 366.699 537.109 c 6
 446.289 662.598 l 21
-90.5762 616.211 m 5
 528.076 616.211 l 5
 528.076 525.635 l 5
 -90.5762 525.635 l 5
 -90.5762 616.211 l 5
87.8906 570.801 m 4
 87.8906 595.703 108.398 616.211 133.301 616.211 c 4
 158.203 616.211 178.711 595.703 178.711 570.801 c 4
 178.711 545.898 158.203 525.391 133.301 525.391 c 4
 108.398 525.391 87.8906 545.898 87.8906 570.801 c 4
248.535 570.801 m 4
 248.535 595.703 269.043 616.211 293.945 616.211 c 4
 318.848 616.211 339.355 595.703 339.355 570.801 c 4
 339.355 545.898 318.848 525.391 293.945 525.391 c 4
 269.043 525.391 248.535 545.898 248.535 570.801 c 4
EndSplineSet
Fore
Refer: 783 1086 N 1 0 0 1 0 0 3
Refer: 319 168 N 1 0 0 1 326 -1 2
LCarets2: 1 66 
Colour: ff00ff
EndChar

StartChar: uni04E8
Encoding: 1256 1256 122
Width: 1100
VWidth: 999
Flags: HW
HStem: 74 40<496 626> 280 43<555 666> 315 44<398 520> 535 40<479 613>
VStem: 296 106<222 410> 340 11<281 284> 697 106<230 424>
LayerCount: 3
Back
SplineSet
592.285 296.875 m 5
 107.422 296.875 l 5
 107.422 353.027 l 5
 590.82 353.027 l 5
 592.285 296.875 l 5
EndSplineSet
Fore
Refer: 1962 1138 N 1 0 0 1 0 0 3
Colour: ff00ff
EndChar

StartChar: uni04E9
Encoding: 1257 1257 123
Width: 1100
VWidth: 999
Flags: HMW
HStem: 45 27<488 582> 188 37<489 598> 209 32<424 514> 360 25<473 564>
VStem: 369 59<147 294> 619 59<138 292>
AnchorPoint: "unten_punkt" 250 -27 basechar 0
AnchorPoint: "top_punkt" 250 466 basechar 0
AnchorPoint: "top_akzent" 243 537 basechar 0
LayerCount: 3
Fore
SplineSet
621 218 m 1xdc
 607 208 572 188 542 188 c 0xdc
 509 188 484 209 458 209 c 0
 448 209 425 204 420 204 c 0
 415 204 414 210 414 213 c 0
 414 225 464 240 496 240 c 0xbc
 530 240 546 225 574 225 c 0
 591 225 608 231 619 237 c 1
 621 218 l 1xdc
EndSplineSet
Refer: 783 1086 N 1 0 0 1 0 0 3
Colour: ff80cc
EndChar

StartChar: uni04EB
Encoding: 1259 1259 125
Width: 1100
VWidth: 999
Flags: HW
HStem: 73 27<488 582> 216 37<489 598> 238 32<424 514> 389 25<473 564> 478 69<439 497 559 617>
VStem: 369 59<175 322> 434 69<483 541> 554 69<483 541> 619 59<167 321>
LayerCount: 3
Back
SplineSet
-90.8203 617.676 m 5
 528.32 617.676 l 5
 528.32 526.855 l 5
 -90.8203 526.855 l 5
 -90.8203 617.676 l 5
EndSplineSet
Fore
Refer: 123 1257 N 1 0 0 1 0 0 3
Refer: 319 168 N 1 0 0 1 327 -2 2
LCarets2: 1 66 
Colour: ff00ff
EndChar

StartChar: uni04EF
Encoding: 1263 1263 126
Width: 1100
VWidth: 999
Flags: HW
HStem: -124 16<409 423 479 497> 362 15<354 363 448 467 611 628 688 697> 457 33<404 613>
VStem: 403 211<457 490>
LayerCount: 3
Back
SplineSet
326.66 538.574 m 6
 -70.3125 538.574 l 6
 -78.2227 538.574 -81.2988 546.387 -81.2988 553.223 c 4
 -81.2988 564.941 -72.0703 582.52 -61.5234 582.52 c 6
 335.449 582.52 l 6
 344.238 582.52 347.754 574.707 347.754 567.871 c 4
 347.754 556.152 338.085 538.574 326.66 538.574 c 6
EndSplineSet
Fore
Refer: 788 1091 N 1 0 0 1 0 0 3
Refer: 652 713 N 1 0 0 1 294 24 2
LCarets2: 1 61 
Colour: ff00ff
EndChar

StartChar: uni04F1
Encoding: 1265 1265 127
Width: 1100
VWidth: 999
Flags: HW
HStem: -120 16<416 430 486 504> 366 15<361 370 455 474 618 635 695 704> 453 69<435 493 555 613>
VStem: 429 69<458 516> 549 69<458 516>
LayerCount: 3
Back
SplineSet
-90.8203 617.676 m 5
 528.32 617.676 l 5
 528.32 526.855 l 5
 -90.8203 526.855 l 5
 -90.8203 617.676 l 5
EndSplineSet
Fore
Refer: 788 1091 N 1 0 0 1 0 0 3
Refer: 319 168 N 1 0 0 1 321 -2 2
LCarets2: 1 68 
Colour: ff00ff
EndChar

StartChar: uni1E03
Encoding: 7683 7683 132
Width: 1100
VWidth: 999
Flags: HW
HStem: 83 40<486 578> 372 47<499 587> 489 104<498 573> 599 15<459 471>
VStem: 379 88<141 354 378 591> 484 104<503 578> 618 92<195 337>
LayerCount: 3
Back
SplineSet
-98.3887 618.652 m 5
 520.264 618.652 l 5
 520.508 522.949 l 5
 -98.6328 522.949 l 5
 -98.3887 618.652 l 5
-98.3887 664.062 m 5
 520.264 664.062 l 5
 520.264 500.732 l 5
 -98.3887 500.732 l 5
 -98.3887 664.062 l 5
-98.3887 616.211 m 5
 520.264 616.211 l 5
 520.508 525.391 l 5
 -98.6328 525.391 l 5
 -98.3887 616.211 l 5
240.723 570.801 m 4
 240.723 595.703 261.23 616.211 286.133 616.211 c 4
 311.035 616.211 331.543 595.703 331.543 570.801 c 4
 331.543 545.898 311.035 525.391 286.133 525.391 c 4
 261.23 525.391 240.723 545.898 240.723 570.801 c 4
EndSplineSet
Fore
Refer: 657 729 N 1 0 0 1 339 -52 2
Refer: 282 98 N 1 0 0 1 0 0 3
LCarets2: 1 73 
Colour: ff00ff
EndChar

StartChar: uni1E09
Encoding: 7689 7689 138
Width: 1100
VWidth: 999
Flags: HW
HStem: -72 19<439 512> 4 24<492 519> 55 47<490 592> 351 40<485 582>
VStem: 352 92<153 294> 524 40<-46 1>
DStem2: 455 4 492 26 0.397156 0.917751<34.5565 71.5>
LayerCount: 3
Back
SplineSet
-90.8203 672.852 m 5
 528.32 672.852 l 5
 528.32 510.254 l 5
 -90.8203 510.254 l 5
 -90.8203 672.852 l 5
EndSplineSet
Fore
Refer: 663 769 N 1 0 0 1 609 -28 2
Refer: 382 231 N 1 0 0 1 0 0 3
LCarets2: 1 55 
Colour: ff00ff
EndChar

StartChar: uni1E0B
Encoding: 7691 7691 140
Width: 1100
VWidth: 999
Flags: HW
HStem: 83 50<443 525> 88 16<583 590 668 674> 379 40<447 550> 489 104<439 514> 599 15<653 665>
VStem: 318 92<170 313> 425 104<504 578> 573 88<163 357 403 591>
LayerCount: 3
Back
SplineSet
-98.3887 618.652 m 5
 520.264 618.652 l 5
 520.508 522.949 l 5
 -98.6328 522.949 l 5
 -98.3887 618.652 l 5
-98.3887 664.062 m 5
 520.264 664.062 l 5
 520.264 500.732 l 5
 -98.3887 500.732 l 5
 -98.3887 664.062 l 5
-98.3887 616.211 m 5
 520.264 616.211 l 5
 520.508 525.391 l 5
 -98.6328 525.391 l 5
 -98.3887 616.211 l 5
240.723 570.801 m 4
 240.723 595.703 261.23 616.211 286.133 616.211 c 4
 311.035 616.211 331.543 595.703 331.543 570.801 c 4
 331.543 545.898 311.035 525.391 286.133 525.391 c 4
 261.23 525.391 240.723 545.898 240.723 570.801 c 4
EndSplineSet
Fore
Refer: 657 729 N 1 0 0 1 284 -52 2
Refer: 284 100 N 1 0 0 1 0 0 3
LCarets2: 1 68 
Colour: ff00ff
EndChar

StartChar: uni1E21
Encoding: 7713 7713 162
Width: 1100
VWidth: 999
Flags: HW
HStem: -125 39<423 552> 42 53<441 490> 44 56<444 573> 155 40<442 523> 343 40<438 520> 457 33<375 584>
VStem: 322 81<-67 10> 343 82<213 321> 346 58<99 166> 374 211<457 490> 537 81<216 316> 592 77<-46 25>
LayerCount: 3
Back
SplineSet
326.66 538.574 m 6
 -70.3125 538.574 l 6
 -78.2227 538.574 -81.2988 546.387 -81.2988 553.223 c 4
 -81.2988 564.941 -72.0703 582.52 -61.5234 582.52 c 6
 335.449 582.52 l 6
 344.238 582.52 347.754 574.707 347.754 567.871 c 4
 347.754 556.152 338.085 538.574 326.66 538.574 c 6
EndSplineSet
Fore
Refer: 652 713 N 1 0 0 1 268 24 2
Refer: 287 103 N 1 0 0 1 0 0 3
LCarets2: 1 58 
Colour: ff00ff
EndChar

StartChar: uni1E23
Encoding: 7715 7715 164
Width: 1100
VWidth: 999
Flags: HW
HStem: 89 16<367 419 419 470 602 653 653 705> 371 50<520 598> 490 104<505 580> 600 15<454 466>
VStem: 374 88<93 330 361 592> 491 104<504 579> 609 88<93 360>
LayerCount: 3
Back
SplineSet
-98.3887 618.652 m 5
 520.264 618.652 l 5
 520.508 522.949 l 5
 -98.6328 522.949 l 5
 -98.3887 618.652 l 5
-98.3887 664.062 m 5
 520.264 664.062 l 5
 520.264 500.732 l 5
 -98.3887 500.732 l 5
 -98.3887 664.062 l 5
-98.3887 616.211 m 5
 520.264 616.211 l 5
 520.508 525.391 l 5
 -98.6328 525.391 l 5
 -98.3887 616.211 l 5
240.723 570.801 m 4
 240.723 595.703 261.23 616.211 286.133 616.211 c 4
 311.035 616.211 331.543 595.703 331.543 570.801 c 4
 331.543 545.898 311.035 525.391 286.133 525.391 c 4
 261.23 525.391 240.723 545.898 240.723 570.801 c 4
EndSplineSet
Fore
Refer: 657 729 N 1 0 0 1 346 -52 2
Refer: 288 104 N 1 0 0 1 0 0 3
LCarets2: 1 72 
Colour: ff00ff
EndChar

StartChar: uni1E27
Encoding: 7719 7719 168
Width: 1100
VWidth: 999
Flags: HW
HStem: 86 16<367 419 419 470 602 653 653 705> 368 50<520 598> 483 68<473 530 576 634> 596 15<454 466>
VStem: 374 88<90 327 358 589> 468 68<488 546> 571 68<488 546> 609 88<90 357>
LayerCount: 3
Back
SplineSet
-90.8203 617.676 m 5
 528.32 617.676 l 5
 528.32 526.855 l 5
 -90.8203 526.855 l 5
 -90.8203 617.676 l 5
EndSplineSet
Fore
SplineSet
468 517 m 0xfc
 468 536 483 551 502 551 c 0
 521 551 536 536 536 517 c 0
 536 498 521 483 502 483 c 0
 483 483 468 498 468 517 c 0xfc
571 517 m 0xfe
 571 536 586 551 605 551 c 0
 623 551 639 536 639 517 c 0
 639 498 623 483 605 483 c 0
 586 483 571 498 571 517 c 0xfe
EndSplineSet
Refer: 288 104 N 1 0 0 1 0 0 3
LCarets2: 1 72 
Colour: ff80cc
EndChar

StartChar: uni1E31
Encoding: 7729 7729 178
Width: 1100
VWidth: 999
Flags: HW
HStem: 90 16<389 440 440 492 590 622 736 741> 248 26<479 500> 402 15<717 725> 601 15<476 488>
VStem: 396 88<95 593>
LayerCount: 3
Back
SplineSet
-90.8203 672.852 m 5
 528.32 672.852 l 5
 528.32 510.254 l 5
 -90.8203 510.254 l 5
 -90.8203 672.852 l 5
EndSplineSet
Fore
Refer: 663 769 N 1 0 0 1 634 -28 2
Refer: 291 107 N 1 0 0 1 0 0 3
LCarets2: 1 72 
Colour: ff00ff
EndChar

StartChar: uni1E3F
Encoding: 7743 7743 192
Width: 1100
VWidth: 999
Flags: HW
HStem: 86 16<277 329 329 381 502 554 554 606 728 780 780 832> 367 50<423 493 645 723>
VStem: 285 88<90 329> 510 88<90 314> 736 88<90 356>
LayerCount: 3
Back
SplineSet
-90.8203 672.852 m 5
 528.32 672.852 l 5
 528.32 510.254 l 5
 -90.8203 510.254 l 5
 -90.8203 672.852 l 5
EndSplineSet
Fore
Refer: 663 769 N 1 0 0 1 525 -28 2
Refer: 293 109 N 1 0 0 1 0 0 3
LCarets2: 1 105 
Colour: ff00ff
EndChar

StartChar: uni1E45
Encoding: 7749 7749 198
Width: 1100
VWidth: 999
Flags: HW
HStem: 85 16<378 430 430 481 612 664 664 715> 366 50<525 608> 486 104<511 585>
VStem: 385 88<89 328> 496 104<500 575> 619 88<89 355>
LayerCount: 3
Back
SplineSet
-90.8203 618.652 m 5
 528.32 618.652 l 5
 528.32 522.949 l 5
 -90.8203 522.949 l 5
 -90.8203 618.652 l 5
EndSplineSet
Fore
Refer: 657 729 N 1 0 0 1 352 -52 2
Refer: 294 110 N 1 0 0 1 0 0 3
LCarets2: 1 72 
Colour: ff00ff
EndChar

StartChar: uni1E4D
Encoding: 7757 7757 206
Width: 1100
VWidth: 999
Flags: HW
HStem: 90 38<499 588> 389 38<487 583> 476 33<533 598> 512 34<445 513> 541 8
VStem: 363 96<181 330> 616 96<187 335>
LayerCount: 3
Back
SplineSet
488.281 715.005 m 25
 -33.2031 715.005 l 17
 -33.2031 584.961 l 9
 488.442 584.961 l 25
 488.281 715.005 l 25
EndSplineSet
Fore
Refer: 665 771 N 1 0 0 1 568 -52 2
Refer: 295 111 N 1 0 0 1 0 0 3
Refer: 663 769 N 0.77 0 0 0.88 621 95 2
LCarets2: 1 66 
Colour: ff00ff
EndChar

StartChar: uni1E4E
Encoding: 7758 7758 207
Width: 1100
VWidth: 999
Flags: HW
HStem: 102 40<493 623> 563 40<476 610> 631 36<534 590> 639 68<348 405 655 712> 671 38<459 517> 703 8
VStem: 294 106<250 438> 343 68<645 702> 650 68<645 702> 694 106<258 452>
LayerCount: 3
Fore
SplineSet
650 673 m 0xd080
 650 692 665 708 684 708 c 0
 703 708 718 692 718 673 c 0
 718 655 703 639 684 639 c 0
 665 639 650 655 650 673 c 0xd080
343 673 m 0xd1
 343 692 358 708 376 708 c 0
 395 708 411 692 411 673 c 0
 411 655 395 639 376 639 c 0
 358 639 343 655 343 673 c 0xd1
EndSplineSet
Refer: 660 732 N 0.85 0 0 1.1 341 49 2
Refer: 264 79 N 1 0 0 1 0 0 3
LCarets2: 1 92 
Colour: ff80cc
EndChar

StartChar: uni1E55
Encoding: 7765 7765 214
Width: 1100
VWidth: 999
Flags: HW
HStem: -113 16<362 414 414 466> 56 40<475 575> 344 49<500 577>
VStem: 370 88<-109 72 112 308> 605 100<162 303>
LayerCount: 3
Back
SplineSet
-90.8203 672.852 m 5
 528.32 672.852 l 5
 528.32 510.254 l 5
 -90.8203 510.254 l 5
 -90.8203 672.852 l 5
EndSplineSet
Fore
Refer: 663 769 N 1 0 0 1 589 -28 2
Refer: 296 112 N 1 0 0 1 0 0 3
LCarets2: 1 74 
Colour: ff00ff
EndChar

StartChar: uni1E57
Encoding: 7767 7767 216
Width: 1100
VWidth: 999
Flags: HW
HStem: -115 16<362 414 414 466> 54 40<475 575> 342 49<500 577> 461 104<485 560>
VStem: 370 88<-110 71 111 307> 471 104<475 550> 605 100<161 302>
LayerCount: 3
Back
SplineSet
-90.8203 618.652 m 5
 528.32 618.652 l 5
 528.32 522.949 l 5
 -90.8203 522.949 l 5
 -90.8203 618.652 l 5
EndSplineSet
Fore
Refer: 657 729 N 1 0 0 1 326 -52 2
Refer: 296 112 N 1 0 0 1 0 0 3
LCarets2: 1 74 
Colour: ff00ff
EndChar

StartChar: uni1E59
Encoding: 7769 7769 218
Width: 1100
VWidth: 999
Flags: HW
HStem: 85 16<417 465 465 520> 355 62<560 625> 486 104<480 555>
VStem: 424 88<89 332> 466 104<500 575>
LayerCount: 3
Back
SplineSet
-90.8203 618.652 m 5
 528.32 618.652 l 5
 528.32 522.949 l 5
 -90.8203 522.949 l 5
 -90.8203 618.652 l 5
EndSplineSet
Fore
Refer: 657 729 N 1 0 0 1 340 -52 2
Refer: 298 114 N 1 0 0 1 0 0 3
LCarets2: 1 54 
Colour: ff00ff
EndChar

StartChar: uni1E61
Encoding: 7777 7777 226
Width: 1100
VWidth: 999
Flags: HW
HStem: 79 34<449 544> 332 60<601 621> 382 34<494 581> 485 104<487 562>
VStem: 403 81<299 372> 472 104<500 574> 557 86<133 210>
LayerCount: 3
Back
SplineSet
-90.8203 618.652 m 5
 528.32 618.652 l 5
 528.32 522.949 l 5
 -90.8203 522.949 l 5
 -90.8203 618.652 l 5
EndSplineSet
Fore
Refer: 2011 115 N 1 0 0 1 0 0 3
Refer: 657 729 N 1 0 0 1 350 -52 2
LCarets2: 1 50 
Colour: ff00ff
EndChar

StartChar: uni1E65
Encoding: 7781 7781 230
Width: 1100
VWidth: 999
Flags: HW
HStem: 85 34<439 534> 338 60<591 611> 388 34<484 571> 539 93<407 474>
VStem: 393 81<305 378> 394 93<552 619> 547 86<140 217>
LayerCount: 3
Back
SplineSet
-90.8203 672.852 m 5
 528.32 672.852 l 5
 528.32 510.254 l 5
 -90.8203 510.254 l 5
 -90.8203 672.852 l 5
EndSplineSet
Fore
Refer: 2011 115 N 1 0 0 1 0 0 3
Refer: 663 769 N 1 0 0 1 608 -28 2
Refer: 657 729 N 0.9 0 0 0.9 288 40 2
LCarets2: 1 40 
Colour: ff00ff
EndChar

StartChar: uni1E69
Encoding: 7785 7785 234
Width: 1100
VWidth: 999
Flags: HW
HStem: -30 104<482 557> 78 34<448 543> 331 60<600 620> 381 34<492 580> 485 104<482 557>
VStem: 401 81<298 371> 468 104<-15 60 499 574> 556 86<133 210>
LayerCount: 3
Back
SplineSet
-90.8203 618.652 m 5
 528.32 618.652 l 5
 528.32 522.949 l 5
 -90.8203 522.949 l 5
 -90.8203 618.652 l 5
EndSplineSet
Fore
Refer: 228 7779 N 1 0 0 1 0 0 3
Refer: 657 729 N 1 0 0 1 347 -52 2
LCarets2: 1 49 
Colour: ff00ff
EndChar

StartChar: uni1E6B
Encoding: 7787 7787 236
Width: 1100
VWidth: 999
Flags: HW
HStem: 95 52<483 577> 384 40<387 437 525 612> 521 15<513 525> 584 104<472 547>
VStem: 437 88<148 384 424 513> 458 104<598 673>
LayerCount: 3
Back
SplineSet
-90.8203 618.652 m 5
 528.32 618.652 l 5
 528.32 522.949 l 5
 -90.8203 522.949 l 5
 -90.8203 618.652 l 5
EndSplineSet
Fore
Refer: 657 729 N 1 0 0 1 344 31 2
Refer: 300 116 N 1 0 0 1 0 0 3
LCarets2: 1 42 
Colour: ff00ff
EndChar

StartChar: ampersand
Encoding: 38 38 252
Width: 1100
Flags: HW
HStem: 73 46<710 770> 73 31<453 545> 382 26<683 717 786 822> 540 31<520 585>
VStem: 330 88<142 251> 428 75<420 519> 598 70<441 529>
DStem2: 636 241 597 172 0.571149 -0.820847<-142.298 9.32685 76.824 157.05>
LayerCount: 3
Back
SplineSet
433.594 118.652 m 4x7e
 570.312 324.219 576.836 404.297 631.836 404.297 c 6
 660.156 404.297 l 6
 665.039 404.297 669.434 406.25 669.922 412.109 c 6
 669.922 428.711 l 5
 667.969 431.152 l 5
 667.969 431.152 613.472 429.199 578.613 429.199 c 28
 544.326 429.199 490.723 431.152 490.723 431.152 c 5
 488.77 428.711 l 5
 488.77 411.133 l 6
 488.77 408.203 489.258 404.785 494.141 404.297 c 6
 522.949 404.297 l 6
 560.913 404.297 534.18 337.891 411.682 160.427 c 4
 352.712 74.9961 314.941 25.3906 231.934 25.3906 c 4x7e
 166.992 25.3906 102.539 61.5234 102.539 163.086 c 4
 102.539 244.629 147.508 296.748 273.926 361.816 c 4
 373.535 413.086 457.031 486.793 457.031 550.293 c 4
 457.031 613.867 399.915 657.227 328.125 657.227 c 4
 225.886 657.227 171.875 587.466 171.875 527.832 c 4
 171.875 481.934 190.479 434.878 246.238 345.703 c 4
 329.59 212.402 449.846 61.5234 449.846 61.5234 c 6
 497.31 -4.72461 535.298 -8.78906 566.895 -8.78906 c 4
 602.051 -8.78906 643.369 23.4111 666.504 95.7031 c 5
 650.879 103.516 l 5
 630.371 63.4766 606.934 46.3867 572.754 46.3867 c 4xbe
 556.401 46.3867 526.562 68.209 494.521 113.281 c 6
 494.521 113.281 342.058 317.451 310.547 372.07 c 4
 266.602 448.242 245.117 499.512 245.117 529.785 c 4
 245.117 596.68 296.613 623.047 323.242 623.047 c 4
 364.746 623.047 389.16 596.191 389.16 550.293 c 4
 389.16 506.406 332.52 445.312 245.495 397.477 c 4
 135.39 336.954 21.9727 266.602 21.9727 162.598 c 4
 21.9727 30.7617 112.793 -8.78906 225.098 -8.78906 c 4
 319.336 -8.78906 384.27 44.4902 433.594 118.652 c 4x7e
EndSplineSet
Fore
SplineSet
1000 -84 m 6
 1000 -174 971 -212 881 -212 c 6
 249 -212 l 6
 159 -212 120 -174 120 -84 c 6
 120 625 l 6
 120 708 168 754 249 754 c 6
 851 754 l 6
 941 754 1000 715 1000 625 c 6
 1000 -84 l 6
249 718 m 6
 189 718 156 685 156 625 c 6
 156 -53 l 6
 156 -113 189 -136 249 -136 c 6
 821 -136 l 6
 881 -136 904 -113 904 -53 c 6
 904 625 l 6
 904 685 881 718 821 718 c 6
 249 718 l 6
630 198 m 1
 674 267 689 320 694 365 c 1
 702 363 727 363 735 363 c 3
 742 363 770 363 777 365 c 1
 748 315 676 184 660 159 c 1
 681 125 704 80 727 80 c 3
 748 80 762 87 780 123 c 1
 804 106 l 1
 769 42 741 34 708 34 c 3xbe
 672 34 651 46 615 100 c 1
 581 63 543 34 477 34 c 3
 387 34 321 68 321 154 c 3
 321 209 351 249 465 315 c 1
 435 361 419 397 419 432 c 3
 419 477 466 532 552 532 c 3
 621 532 659 501 659 444 c 3
 659 406 612 357 548 321 c 1
 560 299 584 262 630 198 c 1
588 133 m 1
 552 182 498 256 481 283 c 1
 425 247 409 216 409 169 c 3
 409 103 445 65 483 65 c 3x7e
 524 65 553 83 588 133 c 1
494 434 m 3
 494 418 505 385 525 357 c 1
 557 382 589 407 589 437 c 3
 589 477 573 501 544 501 c 3
 519 501 494 481 494 434 c 3
EndSplineSet
Substitution2: "'salt' Stilistische Alternativformen 1" ampersand.alt
Substitution2: "'smcp' Gemeine nach Kapitaelchen 1" ampersand.alt
Substitution2: "'c2sc' Versale nach Kapitaelchen 1" ampersand.alt
AlternateSubs2: "'aalt' Alle Alternativen zeigen 1" ampersand.alt
EndChar

StartChar: quotesingle
Encoding: 39 39 253
Width: 1100
Flags: HW
HStem: 449 167<510 534 520 534>
LayerCount: 3
Fore
SplineSet
1000 -84 m 6
 1000 -174 971 -212 881 -212 c 6
 249 -212 l 6
 159 -212 120 -174 120 -84 c 6
 120 625 l 6
 120 708 168 754 249 754 c 6
 851 754 l 6
 941 754 1000 715 1000 625 c 6
 1000 -84 l 6
249 718 m 6
 189 718 156 685 156 625 c 6
 156 -53 l 6
 156 -113 189 -136 249 -136 c 6
 821 -136 l 6
 881 -136 904 -113 904 -53 c 6
 904 625 l 6
 904 685 881 718 821 718 c 6
 249 718 l 6
520 399 m 1
 509 402 l 1
 509 402 485 522 485 526 c 3
 485 544 501 567 534 567 c 3
 565 567 567 553 567 539 c 3
 567 528 540 404 540 404 c 1
 520 399 l 1
EndSplineSet
EndChar

StartChar: comma
Encoding: 44 44 254
Width: 1100
VWidth: 999
Flags: HW
HStem: -114 20<487 511> -6 86<506 556>
VStem: 557 32<-59 20>
LayerCount: 3
Back
SplineSet
111.1 111.1 m 0
 149.6 111.1 198 75.9004 198 3.2998 c 0
 198 -83.5996 132 -133.1 55 -156.2 c 1
 45.0996 -152.9 41.7998 -135.3 48.4004 -129.8 c 1
 82.5 -118.8 138.6 -91.2998 138.6 -34.0996 c 0
 138.6 12.0996 85.7998 24.2002 75.9004 29.7002 c 0
 61.5996 37.4004 57.2002 48.4004 57.2002 61.5996 c 0
 57.2002 86.9004 75.9004 111.1 111.1 111.1 c 0
54.7852 47.2656 m 0
 54.7852 79.4922 81.1035 105.811 113.33 105.811 c 0
 145.557 105.811 171.875 79.4922 171.875 47.2656 c 0
 171.875 15.0391 145.557 -11.2793 113.33 -11.2793 c 0
 81.1035 -11.2793 54.7852 15.0391 54.7852 47.2656 c 0
EndSplineSet
Fore
SplineSet
1000 -84 m 6
 1000 -174 971 -212 881 -212 c 6
 249 -212 l 6
 159 -212 120 -174 120 -84 c 6
 120 625 l 6
 120 708 168 754 249 754 c 6
 851 754 l 6
 941 754 1000 715 1000 625 c 6
 1000 -84 l 6
249 718 m 6
 189 718 156 685 156 625 c 6
 156 -53 l 6
 156 -113 189 -136 249 -136 c 6
 821 -136 l 6
 881 -136 904 -113 904 -53 c 6
 904 625 l 6
 904 685 881 718 821 718 c 6
 249 718 l 6
489 32 m 1
 489 36 l 1
 497 57 509 70 533 80 c 1
 537 80 l 1
 566 69 590 47 590 -6 c 0
 590 -64 540 -105 491 -114 c 1
 485 -109 484 -102 487 -94 c 1
 530 -82 557 -46 557 -28 c 0
 557 -8 544 -6 533 -6 c 1
 508 -1 496 5 489 32 c 1
EndSplineSet
EndChar

StartChar: hyphen
Encoding: 45 45 255
Width: 1100
VWidth: 999
Flags: HW
HStem: 239 47<441 632>
VStem: 436 201<240 286>
LayerCount: 3
Back
SplineSet
-58.1055 256.836 m 29
 565.43 256.836 l 29
0 572.012 m 5
 527.344 572.012 l 5
 527.344 0 l 5
 0 0 l 5
 0 572.012 l 5
293.457 287.109 m 1
 293.457 238.281 l 1
 39.5508 238.281 l 1
 39.5508 287.109 l 1
 293.457 287.109 l 1
EndSplineSet
Fore
SplineSet
1000 -84 m 6
 1000 -174 971 -212 881 -212 c 6
 249 -212 l 6
 159 -212 120 -174 120 -84 c 6
 120 625 l 6
 120 708 168 754 249 754 c 6
 851 754 l 6
 941 754 1000 715 1000 625 c 6
 1000 -84 l 6
249 718 m 6
 189 718 156 685 156 625 c 6
 156 -53 l 6
 156 -113 189 -136 249 -136 c 6
 821 -136 l 6
 881 -136 904 -113 904 -53 c 6
 904 625 l 6
 904 685 881 718 821 718 c 6
 249 718 l 6
617 239 m 2
 448 239 l 2
 441 239 436 245 436 252 c 3
 436 264 446 286 455 286 c 2
 627 286 l 2
 634 286 638 279 638 273 c 3
 638 264 627 239 617 239 c 2
EndSplineSet
Substitution2: "'c2sc' Versale nach Kapitaelchen 1" hyphen.sc
AlternateSubs2: "'aalt' Alle Alternativen zeigen 1" hyphen.sc
Substitution2: "'smcp' Gemeine nach Kapitaelchen 1" hyphen.sc
Substitution2: "'case' Versalformen 1" hyphen.cap
EndChar

StartChar: period
Encoding: 46 46 256
Width: 334
VWidth: 999
Flags: HW
HStem: 4 92<138 196>
VStem: 120 93<20 79>
LayerCount: 3
Back
SplineSet
57 43 m 4
 57 72 81 96 110 96 c 4
 139 96 163 72 163 43 c 4
 163 14 139 -10 110 -10 c 4
 81 -10 57 14 57 43 c 4
EndSplineSet
Fore
SplineSet
660 -84 m 2
 660 -174 631 -212 541 -212 c 2
 -91 -212 l 2
 -181 -212 -220 -174 -220 -84 c 2
 -220 625 l 2
 -220 708 -172 754 -91 754 c 2
 511 754 l 2
 601 754 660 715 660 625 c 2
 660 -84 l 2
-91 718 m 2
 -151 718 -184 685 -184 625 c 2
 -184 -53 l 2
 -184 -113 -151 -136 -91 -136 c 2
 481 -136 l 2
 541 -136 564 -113 564 -53 c 2
 564 625 l 2
 564 685 541 718 481 718 c 2
 -91 718 l 2
120 79 m 5
 120 82 l 5
 129 104 141 117 166 127 c 5
 168 127 l 5
 192 118 205 106 214 82 c 5
 214 79 l 5
 204 52 192 40 168 34 c 5
 166 34 l 5
 139 40 128 52 120 79 c 5
EndSplineSet
EndChar

StartChar: zero
Encoding: 48 48 257
Width: 1100
VWidth: 487
Flags: HW
HStem: 64 34<505 566> 468 37<506 573>
VStem: 387 89<179 383> 598 88<176 390>
LayerCount: 3
Back
SplineSet
47 578 m 25
 347 578 l 25
0 568 m 5
 440 568 l 1
 440 0 l 1
 0 0 l 1
 0 568 l 5
EndSplineSet
Fore
SplineSet
1000 -84 m 2
 1000 -174 971 -212 881 -212 c 2
 249 -212 l 2
 159 -212 120 -174 120 -84 c 2
 120 625 l 2
 120 708 168 754 249 754 c 2
 851 754 l 2
 941 754 1000 715 1000 625 c 2
 1000 -84 l 2
249 718 m 2
 189 718 156 685 156 625 c 2
 156 -53 l 2
 156 -113 189 -136 249 -136 c 2
 821 -136 l 2
 881 -136 904 -113 904 -53 c 2
 904 625 l 2
 904 685 881 718 821 718 c 2
 249 718 l 2
536 28 m 7
 444 28 387 129 387 244 c 7
 387 384 463 468 538 468 c 7
 614 468 687 389 687 250 c 7
 687 84 607 28 536 28 c 7
538 432 m 7
 506 432 476 411 476 236 c 7
 476 174 478 62 536 62 c 7
 596 62 598 191 598 264 c 7
 598 341 598 432 538 432 c 7
EndSplineSet
AlternateSubs2: "'aalt' Alle Alternativen zeigen 1" zero.oldstyle zero.fitted zero.slash zero.slashfitted perthousandzero
Substitution2: "'zero' gestrichene Null 1" zero.slash
Substitution2: "'sups' Hochgestellte 1" zero.superior
Substitution2: "'sinf' Wissenschaftliche Indices 1" zero.inferior
Substitution2: "'pnum' Proportionalziffern 1" zero.fitted
Substitution2: "'onum' Minuskelziffern 1" zero.taboldstyle
EndChar

StartChar: I
Encoding: 73 73 258
Width: 1100
VWidth: 999
Flags: HW
HStem: 78 16G<494 550 550 606> 552 15G<494 550 550 606>
VStem: 502 96<83 562>
LayerCount: 3
Back
SplineSet
547.905 600.781 m 2
 547.905 73.7793 l 2
 547.905 37.7793 550.908 26.7793 629.907 26.7793 c 2
 655.903 26.7793 l 1
 655.903 -4.2207 l 1
 620.908 -1.2207 541.904 -1.2207 502.905 -1.2207 c 0
 464.906 -1.2207 385.906 -1.2207 350.905 -4.2207 c 1
 350.905 26.7793 l 1
 376.905 26.7793 l 2
 455.906 26.7793 458.906 37.7793 458.906 73.7793 c 2
 458.906 600.781 l 2
 458.906 636.777 455.906 647.778 376.905 647.778 c 2
 350.905 647.778 l 1
 350.905 678.779 l 1
 385.906 675.781 464.906 675.781 503.906 675.781 c 0
 541.904 675.781 620.908 675.781 655.903 678.779 c 1
 655.903 647.778 l 1
 629.907 647.778 l 2
 550.908 647.778 547.905 636.777 547.905 600.781 c 2
958.984 0.390625 m 1
 693.984 0.390625 l 1
 693.984 28.3906 l 1
 775.986 34.3906 783.984 40.3906 783.984 125.391 c 2
 783.984 525.391 l 2
 783.984 610.391 775.986 616.392 693.984 622.393 c 1
 693.984 650.391 l 1
 958.984 650.391 l 1
 958.984 622.393 l 1
 876.982 616.392 868.984 610.391 868.984 525.391 c 2
 868.984 125.391 l 2
 868.984 39.3906 876.982 34.3906 958.984 28.3906 c 1
 958.984 0.390625 l 1
186.523 72.7539 m 2
 186.523 46.875 189.941 41.5039 195.312 36.1328 c 0
 199.219 32.7148 207.52 28.8086 224.609 28.8086 c 2
 250.977 28.8086 l 2
 255.371 28.8086 259.277 25.8789 259.277 20.5078 c 2
 259.277 -0.976562 l 1
 259.277 -0.976562 186.523 0.976562 147.461 0.976562 c 0
 111.979 0.976562 33.2031 -0.976562 33.2031 -0.976562 c 1
 33.2031 20.5078 l 2
 33.2031 26.041 35.9697 28.8086 41.0156 28.8086 c 2
 67.3828 28.8086 l 2
 85.9375 28.8086 92.7734 32.7148 96.1914 36.1328 c 0
 105.469 45.8984 105.469 55.1758 105.469 72.7539 c 2
EndSplineSet
Fore
SplineSet
1000 -84 m 6
 1000 -174 971 -212 881 -212 c 6
 249 -212 l 6
 159 -212 120 -174 120 -84 c 6
 120 625 l 6
 120 708 168 754 249 754 c 6
 851 754 l 6
 941 754 1000 715 1000 625 c 6
 1000 -84 l 6
249 718 m 6
 189 718 156 685 156 625 c 6
 156 -53 l 6
 156 -113 189 -136 249 -136 c 6
 821 -136 l 6
 881 -136 904 -113 904 -53 c 6
 904 625 l 6
 904 685 881 718 821 718 c 6
 249 718 l 6
502 374 m 2
 502 431 500 482 494 524 c 1
 496 527 l 1
 496 527 524 524 550 524 c 3
 576 524 605 527 605 527 c 1
 606 524 l 1
 600 485 598 431 598 374 c 2
 598 191 l 2
 598 134 600 83 606 41 c 1
 604 38 l 1
 604 38 576 41 550 41 c 3
 524 41 495 38 495 38 c 1
 494 41 l 1
 500 81 502 134 502 191 c 2
 502 374 l 2
EndSplineSet
Position2: "'cpsp' Versalabstaende 1" dx=2 dy=0 dh=4 dv=0
Substitution2: "'c2sc' Versale nach Kapitaelchen 1" i.sc
EndChar

StartChar: J
Encoding: 74 74 259
Width: 1100
VWidth: 999
Flags: HW
HStem: -77 52<396 485> 529 15G<506 561 561 617>
VStem: 513 96<24 540>
LayerCount: 3
Back
SplineSet
139.16 24.4141 m 2
 139.16 431.641 l 2
 139.16 496.582 138.184 518.066 137.207 560.059 c 0
 136.719 613.77 121.094 621.094 41.9922 621.094 c 0
 31.7383 621.094 31.7383 628.418 31.7383 636.23 c 0
 31.7383 642.09 33.6914 648.438 40.0391 648.438 c 0
 47.3633 648.438 126.465 644.531 183.594 644.531 c 0
 242.188 644.531 300.293 648.438 307.617 648.438 c 0
 313.965 648.438 315.43 642.09 315.43 636.23 c 0
 315.43 628.418 315.43 621.094 305.664 621.094 c 0
 247.559 621.094 231.934 613.77 230.957 560.059 c 0
 229.98 518.066 229.004 496.582 229.004 431.641 c 2
 229.004 108.887 l 2
 229.004 -22.9492 176.27 -118.164 64.4531 -169.922 c 0
 32.7148 -184.57 13.6719 -188.965 -7.32422 -188.965 c 0
 -55.1758 -188.965 -75.1953 -159.18 -75.1953 -128.418 c 0
 -75.1953 -103.516 -58.1055 -75.6836 -21.4844 -75.6836 c 0
 22.9492 -75.6836 49.3164 -127.441 80.0781 -127.441 c 0
 109.375 -127.441 139.16 -108.887 139.16 24.4141 c 2
EndSplineSet
Fore
SplineSet
1000 -84 m 2
 1000 -174 971 -212 881 -212 c 2
 249 -212 l 2
 159 -212 120 -174 120 -84 c 2
 120 625 l 2
 120 708 168 754 249 754 c 2
 851 754 l 2
 941 754 1000 715 1000 625 c 2
 1000 -84 l 2
249 718 m 2
 189 718 156 685 156 625 c 2
 156 -53 l 2
 156 -113 189 -136 249 -136 c 2
 821 -136 l 2
 881 -136 904 -113 904 -53 c 2
 904 625 l 2
 904 685 881 718 821 718 c 2
 249 718 l 2
513 112 m 6
 513 374 l 6
 513 430 512 481 506 524 c 5
 507 526 l 5
 507 526 536 524 561 524 c 7
 588 524 616 526 616 526 c 5
 617 524 l 5
 611 484 609 430 609 374 c 6
 609 128 l 6
 609 42 607 12 562 -38 c 28
 521 -86 459 -95 412 -95 c 7
 398 -95 377 -92 371 -89 c 5
 370 -86 l 5
 378 -72 386 -31 391 -11 c 5
 407 -10 l 5
 415 -25 429 -44 450 -44 c 7
 510 -44 513 46 513 112 c 6
EndSplineSet
Substitution2: "'ss02' Stilgruppe 2 1" J.alt
Position2: "'cpsp' Versalabstaende 1" dx=2 dy=0 dh=4 dv=0
Substitution2: "'c2sc' Versale nach Kapitaelchen 1" j.sc
EndChar

StartChar: K
Encoding: 75 75 260
Width: 1100
VWidth: 999
Flags: HW
HStem: 78 16G<331 386 386 442 602 642 753 760> 324 19<426 445> 552 15G<331 386 386 442 613 652 726 753>
VStem: 338 96<83 562>
LayerCount: 3
Back
SplineSet
186 347 m 5x3c
 224 349 246 364 267 386 c 6
 435 562 l 6
 462.997 593.108 469.154 612.366 431 616 c 6
 410 618 l 6
 406.019 618.379 402 621 402 626 c 6
 402 645 l 5
 404 646 l 5
 404 646 480 645 520 645 c 4
 555 645 616 646 616 646 c 5
 621 645 l 5
 621 626 l 6
 621 621 616 618 610 618 c 4
 570 613 531 607 485 558 c 6
 345 407 l 6
 312 372 308 365 308 358 c 4
 308 350 311 343 320 333 c 6
 539 73 l 6
 564 42 588.23 32.11 617 28 c 6
 624 27 l 6x3c
 627.96 26.4346 633 24 633 19 c 6x9c
 633 0 l 5x3c
 630 -2 l 5x5c
 630 -2 555 0 516 0 c 4x3c
 480 0 456 -2 456 -2 c 5x9c
 454 0 l 5
 454 6 l 6
 454 24 454 48 434 73 c 6
 271 271 l 6
 250 298 222 309 186 309 c 5
 186 347 l 5x3c
EndSplineSet
Fore
SplineSet
1000 -84 m 6
 1000 -174 971 -212 881 -212 c 6
 249 -212 l 6
 159 -212 120 -174 120 -84 c 6
 120 625 l 6
 120 708 168 754 249 754 c 6
 851 754 l 6
 941 754 1000 715 1000 625 c 6
 1000 -84 l 6
249 718 m 6
 189 718 156 685 156 625 c 6
 156 -53 l 6
 156 -113 189 -136 249 -136 c 6
 821 -136 l 6
 881 -136 904 -113 904 -53 c 6
 904 625 l 6
 904 685 881 718 821 718 c 6
 249 718 l 6
342 375 m 2
 342 432 340 483 334 525 c 1
 336 528 l 1
 336 528 364 525 390 525 c 3
 416 525 445 528 445 528 c 1
 446 525 l 1
 440 486 438 432 438 375 c 2
 438 192 l 2
 438 135 440 84 446 42 c 1
 444 39 l 1
 444 39 416 42 390 42 c 3
 364 42 335 39 335 39 c 1
 334 42 l 1
 340 82 342 135 342 192 c 2
 342 375 l 2
426 300 m 2
 426 304 428 303 430 303 c 0
 433 303 442 305 448 310 c 0
 514 368 580 451 647 528 c 1
 656 525 696 525 706 525 c 3
 717 525 747 525 759 528 c 1
 693 470 582 366 531 307 c 1
 531 306 l 1
 767 39 l 1
 752 42 719 42 705 42 c 3
 692 42 649 42 636 39 c 1
 569 123 476 249 446 279 c 0
 441 283 431 285 429 285 c 0
 428 285 426 285 426 287 c 2
 426 300 l 2
EndSplineSet
Position2: "'cpsp' Versalabstaende 1" dx=2 dy=0 dh=4 dv=0
AlternateSubs2: "'aalt' Alle Alternativen zeigen 1" K.alt k.sc
Substitution2: "'ss02' Stilgruppe 2 1" K.alt
Substitution2: "'c2sc' Versale nach Kapitaelchen 1" k.sc
Colour: ff80cc
EndChar

StartChar: L
Encoding: 76 76 261
Width: 1100
VWidth: 999
Flags: W
HStem: -212 76<179.2 885.174> 41 47<492.953 707.433> 718 36<188.821 875.472>
VStem: 120 36<-107.953 686.051> 394 96<88.8829 522.025> 904 96<-118.923 694.8>
LayerCount: 3
Fore
SplineSet
1000 -84 m 2
 1000 -174 971 -212 881 -212 c 2
 249 -212 l 2
 159 -212 120 -174 120 -84 c 2
 120 625 l 2
 120 708 168 754 249 754 c 2
 851 754 l 2
 941 754 1000 715 1000 625 c 2
 1000 -84 l 2
249 718 m 2
 189 718 156 685 156 625 c 2
 156 -53 l 2
 156 -113 189 -136 249 -136 c 2
 821 -136 l 2
 881 -136 904 -113 904 -53 c 2
 904 625 l 2
 904 685 881 718 821 718 c 2
 249 718 l 2
490 191 m 6
 490 178 491 106 496 88 c 5
 597 88 708 97 708 97 c 5
 709 94 l 5
 708 88 708 77 708 69 c 7
 708 62 708 51 709 41 c 5
 708 38 l 5
 696 40 678 41 663 41 c 6
 442 41 l 7
 417 41 387 38 387 38 c 5
 387 41 l 5
 393 81 394 134 394 191 c 6
 394 374 l 6
 394 431 392 482 386 524 c 5
 387 527 l 5
 387 527 417 524 442 524 c 7
 468 524 497 527 497 527 c 5
 498 524 l 5
 492 485 490 431 490 374 c 6
 490 191 l 6
EndSplineSet
Position2: "'cpsp' Versalabstaende 1" dx=2 dy=0 dh=4 dv=0
Substitution2: "'c2sc' Versale nach Kapitaelchen 1" l.sc
EndChar

StartChar: M
Encoding: 77 77 262
Width: 1100
Flags: HW
HStem: 80 16G<245 253 309 314 482 566 748 759 832 838> 421 15G<335 339>
LayerCount: 3
Back
SplineSet
665 87 m 2
 637 534 l 1
 635 534 l 1
 410 5 l 2
 406 -3 402 -6 396 -6 c 0
 390 -6 383.821 -2.07324 381 5 c 2
 174 524 l 1
 172 524 l 1
 130 86 l 18
 127.231 57.1328 134.712 31.2529 164 29 c 2
 190 27 l 2
 194.985 26.6162 200 24 200 19 c 2
 200 1 l 1
 198 -2 l 1
 198 -2 146 0 106 0 c 0
 71 0 16 -2 16 -2 c 1
 15 0 l 1
 15 19 l 2
 15 24 18.0166 26.5566 24 27 c 2
 51 29 l 2
 81.1862 31.236 89 59 91 86 c 2
 139 574 l 18
 141.839 602.86 134.204 613.71 101 616 c 2
 72 618 l 2
 65.0166 618.481 62 621 62 625 c 2
 62 643 l 1
 65 646 l 1
 212 646 l 1
 417 137 l 2
 420 128 422 124 425 124 c 0
 427 124 429.853 128.062 434 138 c 2
 646 646 l 1
 780 646 l 1
 782 643 l 1
 782 625 l 2
 782 619 773.992 618.222 771 618 c 2
 744 616 l 2
 714.661 613.827 704.164 599.545 706 574 c 10
 741 87 l 2
 743 55 749.143 31.4338 782 29 c 2
 809 27 l 2
 815.98 26.4824 820 24 820 19 c 2
 820 0 l 1
 818 -2 l 1
 818 -2 745 0 706 0 c 0
 670 0 599 -2 599 -2 c 1
 596 0 l 1
 596 19 l 2
 596 24 601.011 26.7041 605 27 c 2
 632 29 l 2
 659.81 31.06 666.625 61.0518 665 87 c 2
1565.43 458.496 m 1
 1592.29 458.496 l 1
 1376.46 -70.8008 l 1
 1349.61 -70.8008 l 1
 1565.43 458.496 l 1
EndSplineSet
Fore
SplineSet
1000 -84 m 6
 1000 -174 971 -212 881 -212 c 6
 249 -212 l 6
 159 -212 120 -174 120 -84 c 6
 120 625 l 6
 120 708 168 754 249 754 c 6
 851 754 l 6
 941 754 1000 715 1000 625 c 6
 1000 -84 l 6
249 718 m 6
 189 718 156 685 156 625 c 6
 156 -53 l 6
 156 -113 189 -136 249 -136 c 6
 821 -136 l 6
 881 -136 904 -113 904 -53 c 6
 904 625 l 6
 904 685 881 718 821 718 c 6
 249 718 l 6
309 538 m 1
 361 538 l 1
 424 407 489 282 560 151 c 1
 533 160 l 1
 737 538 l 1
 785 538 l 1
 806 356 820 202 843 39 c 1
 832 41 809 41 798 41 c 3
 787 41 765 41 753 39 c 1
 743 163 734 278 719 396 c 1
 656 280 593 166 538 41 c 1
 508 41 l 1
 456 153 394 270 335 386 c 1
 346 395 l 1
 332 278 314 117 313 39 c 1
 305 41 285 41 277 41 c 3
 268 41 249 41 241 39 c 1
 265 197 294 387 309 538 c 1
EndSplineSet
Position2: "'cpsp' Versalabstaende 1" dx=2 dy=0 dh=4 dv=0
Substitution2: "'c2sc' Versale nach Kapitaelchen 1" m.sc
EndChar

StartChar: N
Encoding: 78 78 263
Width: 1100
VWidth: 999
Flags: HW
HStem: 78 10G<314 349 349 384 697 721> 564 2<670 683>
VStem: 322 55<82 421> 691 56<202 561>
DStem2: 394 565 390 421 0.611346 -0.791363<109.132 463.688>
LayerCount: 3
Back
SplineSet
590 -8 m 5
 605 -8 l 5
 602 52 601 139 601 237 c 6
 601 313 l 6
 601 370 603 434 605 494 c 4
 607 554 610 609 614 647 c 5
 602 646 588 645 577 645 c 4
 567 645 555 646 542 647 c 5
 547 609 551 557 555 500 c 4
 558 443 558 381 558 324 c 6
 558 162 l 5
 557 161 l 5
 554 165 551 169 548 172 c 4
 545 175 542 178 540 181 c 4
 479 241 400 322 320 408 c 4
 241 493 159 580 94 655 c 5
 79 655 l 5
 79 632 80 593 81 544 c 4
 81 496 82 439 82 379 c 6
 82 332 l 6
 82 275 82 211 80 151 c 4
 79 91 75 36 70 -2 c 5
 82 -1 97 0 107 0 c 4
 117 0 132 -1 142 -2 c 5
 135 36 133 91 130 151 c 4
 126 211 125 275 125 332 c 6
 125 491 l 5
 128 492 l 5
 134 484 140 476 147 470 c 4
 230 386 319 294 397 211 c 4
 475 126 544 48 590 -8 c 5
EndSplineSet
Fore
SplineSet
1000 -84 m 6
 1000 -174 971 -212 881 -212 c 6
 249 -212 l 6
 159 -212 120 -174 120 -84 c 6
 120 625 l 6
 120 708 168 754 249 754 c 6
 851 754 l 6
 941 754 1000 715 1000 625 c 6
 1000 -84 l 6
249 718 m 6
 189 718 156 685 156 625 c 6
 156 -53 l 6
 156 -113 189 -136 249 -136 c 6
 821 -136 l 6
 881 -136 904 -113 904 -53 c 6
 904 625 l 6
 904 685 881 718 821 718 c 6
 249 718 l 6
322 375 m 18
 322 431 320 482 314 525 c 1
 316 527 l 1
 316 527 344 525 369 525 c 1
 372 525 394 526 394 526 c 1
 652 193 l 2
 684 151 691 133 691 174 c 10
 691 375 l 2
 691 431 689 482 683 525 c 1
 670 527 l 1
 670 527 700 525 718 525 c 0
 735 525 738 527 738 527 c 1
 754 525 l 1
 748 485 746 431 746 375 c 2
 746 57 l 2
 746 42 726 33 716 33 c 0
 679 33 661 39 625 85 c 2
 390 382 l 2
 362 418 376 416 376 370 c 2
 376 191 l 2
 376 135 378 83 384 41 c 1
 382 39 l 1
 382 39 367 41 349 41 c 0
 332 41 315 39 315 39 c 1
 314 41 l 1
 320 81 322 135 322 191 c 2
 322 375 l 18
EndSplineSet
Position2: "'cpsp' Versalabstaende 1" dx=2 dy=0 dh=4 dv=0
Substitution2: "'c2sc' Versale nach Kapitaelchen 1" n.sc
EndChar

StartChar: O
Encoding: 79 79 264
Width: 1100
VWidth: 999
Flags: HW
HStem: 74 40<496 626> 535 40<479 613>
VStem: 296 106<222 410> 697 106<230 424>
LayerCount: 3
Back
SplineSet
60.0586 657.715 m 29
 584.473 657.715 l 29
563.477 566.406 m 0
 629.395 499.023 659.668 426.27 659.668 324.707 c 0
 659.668 233.887 630.371 155.762 571.289 87.4023 c 0
 510.742 17.5781 439.453 -12.207 355.469 -12.207 c 0
 270.02 -12.207 186.035 20.5078 129.883 76.6602 c 0
 65.918 141.113 34.1797 214.844 34.1797 318.359 c 0
 34.1797 377.441 42.4805 476.074 136.23 569.824 c 0
 195.801 629.883 263.672 657.227 343.75 657.227 c 0
 436.523 657.227 501.953 628.906 563.477 566.406 c 0
331.055 622.559 m 0
 273.926 622.559 228.516 601.562 190.43 555.176 c 0
 145.996 500.977 124.023 433.594 124.023 327.148 c 0
 124.023 227.539 145.508 147.949 214.844 78.6133 c 0
 243.164 50.7812 289.062 20.5078 353.516 20.5078 c 0
 416.992 20.5078 468.75 41.9922 508.789 90.332 c 0
 547.852 137.695 566.895 200.684 566.895 305.176 c 0
 566.895 409.18 549.316 490.723 479.98 560.059 c 0
 435.547 604.492 389.648 622.559 331.055 622.559 c 0
EndSplineSet
Fore
SplineSet
1000 -84 m 2
 1000 -174 971 -212 881 -212 c 2
 249 -212 l 2
 159 -212 120 -174 120 -84 c 2
 120 625 l 2
 120 708 168 754 249 754 c 2
 851 754 l 2
 941 754 1000 715 1000 625 c 2
 1000 -84 l 2
249 718 m 2
 189 718 156 685 156 625 c 2
 156 -53 l 2
 156 -113 189 -136 249 -136 c 2
 821 -136 l 2
 881 -136 904 -113 904 -53 c 2
 904 625 l 2
 904 685 881 718 821 718 c 2
 249 718 l 2
793 288 m 7
 793 138 699 34 538 34 c 7
 390 34 286 132 286 274 c 7
 286 420 385 534 538 534 c 7
 697 534 793 436 793 288 c 7
528 495 m 7
 456 495 392 444 392 286 c 7
 392 142 463 73 553 73 c 7
 639 73 687 139 687 274 c 7
 687 430 634 495 528 495 c 7
EndSplineSet
Position2: "'cpsp' Versalabstaende 1" dx=2 dy=0 dh=4 dv=0
Substitution2: "'c2sc' Versale nach Kapitaelchen 1" o.sc
EndChar

StartChar: P
Encoding: 80 80 265
Width: 1100
VWidth: 999
Flags: W
HStem: -212 76<179.2 885.174> 253 32<463.636 578.1> 498 32<441.076 581.199> 718 36<188.821 875.472>
VStem: 120 36<-107.953 686.051> 369 94<43.0215 260 286.732 493.486> 606 105<335.916 464.917> 904 96<-118.923 694.8>
LayerCount: 3
Back
SplineSet
105.957 71.2891 m 2xdc
 105.957 573.73 l 2
 105.957 605.957 79.1016 619.141 61.5234 619.141 c 0
 53.2227 619.141 28.8086 617.188 24.9023 617.188 c 0
 18.0664 617.188 17.0898 621.094 17.0898 624.023 c 2
 17.0898 644.531 l 1xec
 20.0195 646.484 l 1
 38.0859 646.973 92.9912 647.109 138.672 649.414 c 0
 190.43 652.344 250.488 653.809 276.367 653.809 c 0
 461.426 653.809 497.07 544.922 497.07 485.84 c 0
 497.07 401.367 445.312 281.738 263.184 281.738 c 0
 227.539 281.738 209.473 284.668 186.523 291.992 c 1
 186.523 71.2891 l 2
 186.523 40.5273 201.66 27.832 241.211 27.832 c 2
 267.578 27.832 l 2
 271.973 27.832 275.879 24.9023 275.879 19.5312 c 2
 275.879 0.976562 l 1
 273.926 -0.976562 l 1
 273.926 -0.976562 187.012 0.976562 147.949 0.976562 c 0
 112.305 0.976562 19.043 -0.976562 19.043 -0.976562 c 1
 17.0898 0.976562 l 1
 17.0898 19.5312 l 2
 17.0898 24.9023 20.0195 27.832 24.9023 27.832 c 2
 51.2695 27.832 l 2
 92.2852 27.832 105.957 43.457 105.957 71.2891 c 2xdc
186.523 573.73 m 2
 186.523 319.824 l 1
 197.754 317.383 233.398 314.941 257.812 314.941 c 0
 355.469 314.941 411.621 360.352 411.621 468.262 c 0
 411.621 594.727 337.891 619.629 268.555 619.629 c 0xdc
 197.266 619.629 186.523 603.027 186.523 573.73 c 2
-125.977 644.531 m 1
 781.25 644.531 l 1
EndSplineSet
Fore
SplineSet
1000 -84 m 2
 1000 -174 971 -212 881 -212 c 2
 249 -212 l 2
 159 -212 120 -174 120 -84 c 2
 120 625 l 2
 120 708 168 754 249 754 c 2
 851 754 l 2
 941 754 1000 715 1000 625 c 2
 1000 -84 l 2
249 718 m 2
 189 718 156 685 156 625 c 2
 156 -53 l 2
 156 -113 189 -136 249 -136 c 2
 821 -136 l 2
 881 -136 904 -113 904 -53 c 2
 904 625 l 2
 904 685 881 718 821 718 c 2
 249 718 l 2
369 375 m 6
 369 431 367 482 361 525 c 5
 363 527 l 5
 363 527 390 525 415 525 c 7
 438 525 509 530 528 530 c 7
 667 530 711 450 711 406 c 7
 711 342 655 253 519 253 c 7
 492 253 480 255 463 260 c 5
 463 191 l 6
 463 135 465 84 471 41 c 5
 469 39 l 5
 469 39 441 41 415 41 c 7
 389 41 362 39 362 39 c 5
 361 41 l 5
 367 82 369 135 369 191 c 6
 369 375 l 6
463 465 m 6
 463 292 l 5
 473 287 496 285 515 285 c 7
 588 285 606 311 606 392 c 7
 606 487 575 498 523 498 c 7
 469 498 463 487 463 465 c 6
EndSplineSet
Position2: "'cpsp' Versalabstaende 1" dx=2 dy=0 dh=4 dv=0
Substitution2: "'c2sc' Versale nach Kapitaelchen 1" p.sc
EndChar

StartChar: Q
Encoding: 81 81 266
Width: 1100
VWidth: 999
Flags: HW
HStem: 46 40<487 617> 508 40<470 604>
VStem: 287 106<195 383> 688 106<203 396>
LayerCount: 3
Back
SplineSet
422 -2 m 5xde
 371 -13 256 -62 178 -173 c 5
 139 -153 l 5
 188 -82 305 13 413 28 c 5
 422 -2 l 5xde
139 -153 m 5
 171 -98 253 -70 298 -70 c 4
 408 -70 489 -152 577 -152 c 4
 606 -152 642 -142 664 -115 c 5
 681 -127 l 5
 642 -183 600 -209 537 -209 c 4
 407 -209 344 -114 251 -114 c 4
 236 -114 198 -127 178 -173 c 5
 139 -153 l 5
60.0586 657.715 m 25
 584.473 657.715 l 25
EndSplineSet
Fore
SplineSet
1000 -84 m 6
 1000 -174 971 -212 881 -212 c 6
 249 -212 l 6
 159 -212 120 -174 120 -84 c 6
 120 625 l 6
 120 708 168 754 249 754 c 6
 851 754 l 6
 941 754 1000 715 1000 625 c 6
 1000 -84 l 6
249 718 m 6
 189 718 156 685 156 625 c 6
 156 -53 l 6
 156 -113 189 -136 249 -136 c 6
 821 -136 l 6
 881 -136 904 -113 904 -53 c 6
 904 625 l 6
 904 685 881 718 821 718 c 6
 249 718 l 6
773 288 m 3
 773 138 679 34 518 34 c 3
 370 34 266 132 266 274 c 3
 266 420 365 534 518 534 c 3
 677 534 773 436 773 288 c 3
508 495 m 3
 436 495 372 444 372 286 c 3
 372 142 443 73 533 73 c 3
 619 73 667 139 667 274 c 3
 667 430 614 495 508 495 c 3
655 102 m 1
 698 80 764 31 856 0 c 1
 856 -5 l 1
 829 -19 800 -43 785 -54 c 1
 701 -6 709 6 606 60 c 1
 655 102 l 1
EndSplineSet
Position2: "'cpsp' Versalabstaende 1" dx=2 dy=0 dh=4 dv=0
Substitution2: "'c2sc' Versale nach Kapitaelchen 1" q.sc
Colour: ff80cc
EndChar

StartChar: R
Encoding: 82 82 267
Width: 1100
VWidth: 999
Flags: HW
HStem: -212 46<169.359 930.641> 296 39<454 567.238> 534 36<431.813 576.366> 708 46<168.938 931.062>
VStem: 120 46<-162.981 705.906> 358 96<83.0215 296 335 529.097> 597 104<365.315 511.072> 934 46<-162.981 705.906>
LayerCount: 3
Back
SplineSet
609 18 m 5xbc
 605 -8 l 5
 593 -8 582 -8 570 -7 c 4
 495 -3 453 19 408 84 c 4xbc
 373 133 337 195 307 244 c 4
 290 272 273 284 221 284 c 6
 189 284 l 5
 189 125 l 6
 189 40 198 34 278 28 c 5
 278 0 l 5
 15 0 l 5
 15 28 l 5
 97 34 106 40 106 125 c 6x7c
 106 527 l 6
 106 612 98 615 20 622 c 5
 20 650 l 5
 268 650 l 6
 341 650 390 641 428 616 c 4
 468 590 494 545 494 485 c 4
 494 399 441 346 367 314 c 5
 384 281 426 214 456 169 c 4
 492 117 512 91 537 65 c 4
 564 35 587 24 609 18 c 5xbc
189 317 m 5
 237 317 l 6
 288 317 321 325 346 345 c 4
 385 375 401 415 401 469 c 4
 401 577 330 617 254 617 c 4
 225 617 208 613 200 607 c 4
 193 602 189 590 189 563 c 6
 189 317 l 5
EndSplineSet
Fore
SplineSet
1000 -84 m 6
 1000 -174 971 -212 881 -212 c 6
 249 -212 l 6
 159 -212 120 -174 120 -84 c 6
 120 625 l 6
 120 708 168 754 249 754 c 6
 851 754 l 6
 941 754 1000 715 1000 625 c 6
 1000 -84 l 6
249 718 m 6
 189 718 156 685 156 625 c 6
 156 -53 l 6
 156 -113 189 -136 249 -136 c 6
 821 -136 l 6
 881 -136 904 -113 904 -53 c 6
 904 625 l 6
 904 685 881 718 821 718 c 6
 249 718 l 6
582 277 m 1
 629 217 715 86 755 41 c 1
 753 39 l 1
 738 41 713 41 698 41 c 3
 684 41 662 41 647 39 c 1
 639 64 605 119 567 173 c 0
 544 206 519 240 494 266 c 1
 582 277 l 1
454 256 m 1
 454 191 l 2
 454 135 455 84 461 41 c 1
 460 39 l 1
 460 39 431 41 406 41 c 3
 380 41 351 39 351 39 c 1
 350 41 l 1
 356 82 358 135 358 191 c 2
 358 375 l 2
 358 431 356 482 350 525 c 1
 352 527 l 1
 352 527 380 525 406 525 c 3
 428 525 497 530 515 530 c 3
 608 530 701 504 701 400 c 3
 701 267 557 256 454 256 c 1
516 494 m 3
 463 494 454 483 454 461 c 2
 454 295 l 1
 490 295 l 2
 563 295 597 306 597 400 c 3
 597 488 562 494 516 494 c 3
EndSplineSet
Position2: "'cpsp' Versalabstaende 1" dx=2 dy=0 dh=4 dv=0
AlternateSubs2: "'aalt' Alle Alternativen zeigen 1" R.alt r.sc
Substitution2: "'ss02' Stilgruppe 2 1" R.alt
Substitution2: "'c2sc' Versale nach Kapitaelchen 1" r.sc
EndChar

StartChar: S
Encoding: 83 83 268
Width: 1100
VWidth: 999
Flags: W
HStem: -212 76<179.2 885.174> 34 38<443.251 567.381> 498 36<470.864 577.116> 718 36<188.821 875.472>
VStem: 120 36<-107.953 686.051> 365 87<367.835 472.565> 590 96<106.371 228.085> 904 96<-118.923 694.8>
LayerCount: 3
Back
SplineSet
60 121 m 5xd8
 72 121 l 5xd8
 92 76 140 23 221 23 c 4
 304 23 355 84 355 159 c 4
 355 333 58 258 58 480 c 4
 58 584 138 658 263 658 c 4
 322 658 365 644 403 614 c 5
 391 592 385 570 377 535 c 5
 366 535 l 5
 353 569 324 623 254 623 c 4
 183 623 132 575 132 506 c 4xe8
 132 330 429 403 429 195 c 4
 429 80 343 -17 198 -17 c 4
 120 -17 75 10 42 37 c 5
 54 66 57 85 60 121 c 5xd8
EndSplineSet
Fore
SplineSet
1000 -84 m 6
 1000 -174 971 -212 881 -212 c 6
 249 -212 l 6
 159 -212 120 -174 120 -84 c 6
 120 625 l 6
 120 708 168 754 249 754 c 6
 851 754 l 6
 941 754 1000 715 1000 625 c 6
 1000 -84 l 6
249 718 m 6
 189 718 156 685 156 625 c 6
 156 -53 l 6
 156 -113 189 -136 249 -136 c 6
 821 -136 l 6
 881 -136 904 -113 904 -53 c 6
 904 625 l 6
 904 685 881 718 821 718 c 6
 249 718 l 6
512 72 m 3
 563 72 590 101 590 154 c 3
 590 214 571 237 525 255 c 0
 457 281 365 321 365 405 c 3
 365 484 439 534 524 534 c 3
 615 534 658 501 658 501 c 1
 659 498 l 1
 652 476 647 439 644 412 c 1
 637 412 l 1
 616 458 571 498 517 498 c 3
 476 498 452 471 452 425 c 3
 452 363 505 340 536 329 c 0
 599 306 686 268 686 180 c 3
 686 104 626 34 506 34 c 3
 414 34 354 67 354 67 c 1
 352 70 l 1
 358 92 364 130 368 157 c 1
 375 158 l 1
 396 112 458 72 512 72 c 3
EndSplineSet
Position2: "'cpsp' Versalabstaende 1" dx=2 dy=0 dh=4 dv=0
Substitution2: "'c2sc' Versale nach Kapitaelchen 1" s.sc
EndChar

StartChar: T
Encoding: 84 84 269
Width: 1100
VWidth: 999
Flags: W
HStem: -212 76<179.2 885.174> 464 21G<324 477 585 738> 473 51<326.566 479.895 582.105 735.434> 718 36<188.821 875.472>
VStem: 120 36<-107.953 686.051> 483 96<42.9753 472.115> 904 96<-118.923 694.8>
LayerCount: 3
Back
SplineSet
340 518 m 2
 340 545 340 597 343 637 c 1
 427 637 511.761 630.172 553 623 c 1
 552 630 552 635 552 640 c 2
 552 665 l 2
 552 669 552 675 553 682 c 1
 534.271 680.752 440.2 678 365 678 c 2
 229 678 l 2
 206 678 183 678 160 679 c 0
 114 679 70 681 41 682 c 1
 42 675 42 669 42 665 c 2
 42 640 l 2
 42 635 42 630 41 623 c 1
 82.2393 630.172 167 637 251 637 c 1
 254 598 254 546 254 518 c 2
EndSplineSet
Fore
SplineSet
1000 -84 m 6x9e
 1000 -174 971 -212 881 -212 c 6
 249 -212 l 6
 159 -212 120 -174 120 -84 c 6
 120 625 l 6
 120 708 168 754 249 754 c 6
 851 754 l 6
 941 754 1000 715 1000 625 c 6
 1000 -84 l 6x9e
249 718 m 6
 189 718 156 685 156 625 c 6
 156 -53 l 6
 156 -113 189 -136 249 -136 c 6
 821 -136 l 6
 881 -136 904 -113 904 -53 c 6
 904 625 l 6
 904 685 881 718 821 718 c 6
 249 718 l 6
483 368 m 2
 483 380 482 455 477 473 c 1xbe
 376 473 326 464 326 464 c 1xde
 324 467 l 1
 326 479 326 503 324 524 c 1
 326 527 l 1
 338 525 355 524 370 524 c 2
 692 524 l 2
 707 524 724 525 736 527 c 1
 738 524 l 1xbe
 736 503 736 479 738 467 c 1
 736 464 l 1xde
 736 464 686 473 585 473 c 1xbe
 580 455 579 380 579 368 c 2
 579 191 l 2
 579 134 580 83 586 41 c 1
 585 38 l 1
 585 38 556 41 531 41 c 3
 505 41 476 38 476 38 c 1
 476 41 l 1
 482 81 483 134 483 191 c 2
 483 368 l 2
EndSplineSet
Position2: "'cpsp' Versalabstaende 1" dx=2 dy=0 dh=4 dv=0
Substitution2: "'c2sc' Versale nach Kapitaelchen 1" t.sc
EndChar

StartChar: U
Encoding: 85 85 270
Width: 1100
VWidth: 999
Flags: HW
HStem: 72 45<491 619> 551 15G<335 390 390 446 668 708 708 747>
VStem: 342 96<178 561> 676 64<191 561>
LayerCount: 3
Back
SplineSet
-46.875 0.976562 m 1
 990.234 0.976562 l 1
741.699 27.832 m 2
 768.066 27.832 l 2
 772.461 27.832 776.367 24.9023 776.367 19.5312 c 2
 776.367 0.976562 l 1
 774.414 -0.976562 l 1
 19.5312 -0.976562 l 1
 17.5781 0.976562 l 1
 17.5781 19.5312 l 2
 17.5781 24.9023 20.5078 27.832 25.3906 27.832 c 2
 51.7578 27.832 l 2
 92.7734 27.832 702.148 27.832 741.699 27.832 c 2
681.152 646.484 m 1
 683.105 644.531 l 1
 683.105 625.977 l 2
 683.105 620.605 680.176 617.676 675.293 617.676 c 2
 648.926 617.676 l 2
 607.91 617.676 70.8008 617.676 31.25 617.676 c 6
 4.88281 617.676 l 6
 0.488281 617.676 -3.41797 620.605 -3.41797 625.977 c 6
 -3.41797 644.531 l 5
 -1.46484 646.484 l 5
 681.152 646.484 l 1
-104.98 644.531 m 1
 802.246 644.531 l 1
EndSplineSet
Fore
SplineSet
1000 -84 m 6
 1000 -174 971 -212 881 -212 c 6
 249 -212 l 6
 159 -212 120 -174 120 -84 c 6
 120 625 l 6
 120 708 168 754 249 754 c 6
 851 754 l 6
 941 754 1000 715 1000 625 c 6
 1000 -84 l 6
249 718 m 6
 189 718 156 685 156 625 c 6
 156 -53 l 6
 156 -113 189 -136 249 -136 c 6
 821 -136 l 6
 881 -136 904 -113 904 -53 c 6
 904 625 l 6
 904 685 881 718 821 718 c 6
 249 718 l 6
676 376 m 2
 676 432 674 483 668 526 c 1
 670 528 l 1
 670 528 690 526 708 526 c 3
 725 526 746 528 746 528 c 1
 747 526 l 1
 741 486 740 432 740 376 c 2
 740 263 l 2
 740 123 683 34 534 34 c 3
 456 34 342 66 342 219 c 2
 342 376 l 2
 342 432 341 483 335 526 c 1
 336 528 l 1
 336 528 365 526 390 526 c 3
 416 526 445 528 445 528 c 1
 446 526 l 1
 440 486 438 432 438 376 c 2
 438 244 l 2
 438 187 441 79 550 79 c 3
 665 79 676 166 676 250 c 2
 676 376 l 2
EndSplineSet
Position2: "'cpsp' Versalabstaende 1" dx=2 dy=0 dh=4 dv=0
Substitution2: "'c2sc' Versale nach Kapitaelchen 1" u.sc
EndChar

StartChar: V
Encoding: 86 86 271
Width: 1100
Flags: HW
HStem: 72 16G<474 582> 551 15G<310 322 415 425 674 692 729 762>
LayerCount: 3
Back
SplineSet
484.162 565 m 6
 497.79 603.253 477.084 614.682 440 617 c 6
 424 618 l 6
 420.006 618.222 416 621 416 626 c 6
 416 645 l 5
 418 646 l 5
 418 646 489 645 528 645 c 4
 563 645 620 646 620 646 c 5
 622 645 l 5
 622 626 l 6
 622 621 618.993 618.271 614 618 c 4
 558.667 615 541.737 587.723 528.5 552.5 c 6
 325 11 l 6
 319.342 -4.13086 312 -12 301 -12 c 4
 291 -12 283.31 -3.89355 278 11 c 6
 83.7041 556 l 6
 68.7268 598.011 60.5 613.5 8 618 c 4
 4.01462 618.342 0 621 0 626 c 6
 0 645 l 5
 2 646 l 5
 2 646 80 645 119 645 c 4
 154 645 233 646 233 646 c 5
 235 645 l 5
 235 626 l 6
 235 621 231.966 618.584 227 618 c 6
 210 616 l 6
 162.655 610.43 155.487 601.942 166 572 c 6
 323.5 127 l 5
 328.125 127 l 5
 484.162 565 l 6
EndSplineSet
Fore
SplineSet
1000 -84 m 6
 1000 -174 971 -212 881 -212 c 6
 249 -212 l 6
 159 -212 120 -174 120 -84 c 6
 120 625 l 6
 120 708 168 754 249 754 c 6
 851 754 l 6
 941 754 1000 715 1000 625 c 6
 1000 -84 l 6
249 718 m 6
 189 718 156 685 156 625 c 6
 156 -53 l 6
 156 -113 189 -136 249 -136 c 6
 821 -136 l 6
 881 -136 904 -113 904 -53 c 6
 904 625 l 6
 904 685 881 718 821 718 c 6
 249 718 l 6
534 146 m 1
 588 270 661 436 687 533 c 1
 696 531 732 531 740 531 c 0
 749 531 758 531 767 533 c 1
 691 367 618 206 546 39 c 1
 509 39 l 1
 440 203 341 457 303 533 c 1
 316 531 351 531 364 531 c 0
 377 531 408 531 421 533 c 1
 428 507 466 374 564 146 c 1
 534 146 l 1
EndSplineSet
Position2: "'cpsp' Versalabstaende 1" dx=2 dy=0 dh=4 dv=0
Substitution2: "'c2sc' Versale nach Kapitaelchen 1" v.sc
AlternateSubs2: "'aalt' Alle Alternativen zeigen 1" V.alt
EndChar

StartChar: W
Encoding: 87 87 272
Width: 1100
Flags: HW
HStem: 72 16G<357 451 613 720> 551 15G<192 205 294 304 448 460 553 563 813 830 867 901>
LayerCount: 3
Back
SplineSet
785.495 565.001 m 6
 798.16 603.583 778.417 614.684 741.333 617.001 c 6
 725.333 618.001 l 6
 721.339 618.223 717.333 621.001 717.333 626.001 c 6
 717.333 645.001 l 5
 719.333 646.001 l 5
 719.333 646.001 790.333 645.001 829.333 645.001 c 4
 864.333 645.001 921.333 646.001 921.333 646.001 c 5
 923.333 645.001 l 5
 923.333 626.001 l 6
 923.333 621.001 920.325 618.271 915.333 618.001 c 4
 860 615.001 841.866 588.153 829.833 552.501 c 6
 643 11 l 6
 637.92 -3.72363 630 -12 616 -12 c 4
 603 -12 591 -5 585 12 c 6
 468 367 l 22
 463 381 458 395 454 395 c 4
 449 395 443.99 382.004 440 370 c 14
 321 12 l 6
 317 -2 307 -12 293 -12 c 4
 278 -12 267.422 -4.20508 262 12 c 6
 80.1514 555.5 l 6
 62.4639 608.95 56.7257 614.537 12 618 c 4
 5.02075 618.54 0 621 0 625 c 6
 0 644 l 5
 2 646 l 5
 2 646 54 645 92 645 c 4
 143 645 213 646 213 646 c 5
 215 644 l 5
 215 626 l 6
 215 621 211.994 618.272 206 618 c 6
 184 617 l 6
 164.586 616.118 156 611 156 598 c 4
 156 591 158.367 583.127 162 572 c 6
 312.5 111 l 5
 314 111 l 5
 420 442 l 6
 424 454 427 467 427 480 c 4
 427 489 426 498 422 508 c 6
 406.906 554 l 6
 398.753 578.847 385.75 615 333 618 c 4
 326.011 618.397 321 621 321 625 c 6
 321 644 l 5
 323 646 l 5
 323 646 379 645 419 645 c 4
 468 645 547 646 547 646 c 5
 550 644 l 5
 550 625 l 6
 550 620 544.991 618.275 541 618 c 6
 512 616 l 6
 485.891 614.199 476.332 596.237 490 554 c 6
 634 109 l 5
 636 109 l 5
 785.495 565.001 l 6
EndSplineSet
Fore
SplineSet
1000 -84 m 6
 1000 -174 971 -212 881 -212 c 6
 249 -212 l 6
 159 -212 120 -174 120 -84 c 6
 120 625 l 6
 120 708 168 754 249 754 c 6
 851 754 l 6
 941 754 1000 715 1000 625 c 6
 1000 -84 l 6
249 718 m 6
 189 718 156 685 156 625 c 6
 156 -53 l 6
 156 -113 189 -136 249 -136 c 6
 821 -136 l 6
 881 -136 904 -113 904 -53 c 6
 904 625 l 6
 904 685 881 718 821 718 c 6
 249 718 l 6
577 335 m 1
 444 39 l 1
 391 39 l 1
 322 203 223 457 186 533 c 1
 199 531 234 531 247 531 c 3
 259 531 287 531 300 533 c 1
 307 507 346 372 448 139 c 1
 433 139 l 1
 466 215 507 308 540 391 c 1
 561 445 577 335 577 335 c 1
673 146 m 1
 727 270 800 436 826 533 c 1
 835 531 856 531 864 531 c 3
 872 531 896 531 905 533 c 1
 829 367 756 206 684 39 c 1
 647 39 l 1
 578 203 479 457 442 533 c 1
 454 531 490 531 502 531 c 3
 515 531 547 531 559 533 c 1
 567 507 604 374 703 146 c 1
 673 146 l 1
EndSplineSet
Position2: "'cpsp' Versalabstaende 1" dx=2 dy=0 dh=4 dv=0
Substitution2: "'c2sc' Versale nach Kapitaelchen 1" w.sc
AlternateSubs2: "'aalt' Alle Alternativen zeigen 1" W.alt
EndChar

StartChar: X
Encoding: 88 88 273
Width: 1100
Flags: HMW
HStem: 79 21<309 352 433 449 605 621 734 769> 520 20<614 639 710 754>
DStem2: 398 155 422 135 0.593199 0.805056<-26.4267 172.53 246.653 439.717> 449 488 493 325 0.578967 -0.815351<-26.6196 162.358 218.978 419.486>
LayerCount: 3
Back
SplineSet
13 625 m 2
 13 644 l 1
 17 646 l 1
 17 646 108 645 119 645 c 4
 124 645 239 646 239 646 c 1
 239 646 242 644 243 644 c 1
 243 625 l 2
 243 620 240.656 618.166 238 618 c 2
 206 616 l 2
 173.471 613.967 181.611 599.144 201 572 c 2
 320 396 l 2
 325 389 329 385 332 385 c 0
 335 385 339 389 345 397 c 2
 474 572 l 2
 492.282 597.595 497.436 614.038 468 616 c 2
 438 618 l 2
 434.009 618.266 431 620 431 625 c 2
 431 645 l 1
 433 646 l 1
 433 646 521 645 532 645 c 0
 537 645 629 646 629 646 c 1
 632 645 l 1
 632 625 l 2
 632 622 630.996 618.264 623 618 c 0
 562.5 616 540 588 513 552 c 2
 382 375 l 2
 373 363 369 354 369 345 c 0
 369 335 375 325 385 312 c 2
 539 102 l 2
 566 63 600.5 30 645 27 c 0
 649.989 26.6637 652 23 652 20 c 2
 652 0 l 1
 650 -2 l 1
 623 -1 557 0 545 0 c 0
 539 0 420 -2 420 -2 c 1
 417 0 l 1
 417 20 l 2
 417 24 419.02 26.6016 423 27 c 2
 443 29 l 2
 483.099 33.0099 480.911 39.0298 456 73 c 2
 324 261 l 2
 318 269 314 272 310 272 c 0
 307 272 301 266 295 258 c 2
 163 77 l 2
 146.389 53.0062 138.881 33.1178 178 29 c 2
 197 27 l 2
 202.07 26.4658 203 23 203 20 c 2
 203 0 l 1
 200 -2 l 1
 200 -2 103 0 88 0 c 0
 83 0 4 -2 4 -2 c 1
 3 0 l 1
 3 20 l 2
 3 25 8.00801 26.6901 14 27 c 0
 72 30 107 74 129 104 c 2
 266 291 l 2
 272 299 276 308 276 314 c 0
 276 324 271 333 262 344 c 2
 118 549 l 2
 77 607 46.5 615 29 618 c 0
 19.1438 619.69 13 621 13 625 c 2
966.577 92.5117 m 10
 1311.04 595.884 l 18
 1317.25 604.761 1321.54 611.567 1323.91 616.304 c 0
 1328.05 623.994 1328.65 630.361 1325.68 635.391 c 0
 1323.91 638.354 1316.66 639.976 1303.94 640.273 c 2
 1272.42 640.718 l 2
 1270.94 640.718 1270.35 642.192 1270.64 645.156 c 2
 1270.64 660.693 l 1
 1363.86 658.472 l 0
 1454.86 660.693 l 1
 1454.86 645.601 l 2
 1454.86 642.349 1451.89 640.718 1445.98 640.718 c 2
 1422.01 640.273 l 2
 1409.28 639.976 1399.96 638.354 1394.04 635.391 c 0
 1383.69 630.063 1375.7 623.706 1370.07 616.304 c 0
 1365.63 610.679 1360.75 603.877 1355.42 595.884 c 10
 1010.97 92.5117 l 18
 1004.75 82.7461 1004.75 82.7461 998.091 72.0928 c 0
 993.95 64.6934 993.354 58.332 996.318 53.0049 c 0
 998.389 50.0449 1005.64 48.418 1018.07 48.1221 c 2
 1050.91 47.6777 l 2
 1052.39 47.6777 1053.13 46.0508 1053.13 42.7949 c 2
 1053.13 27.7031 l 1
 948.818 29.9229 l 0
 869.805 27.7031 l 1
 869.805 43.2393 l 2
 869.805 46.1982 872.471 47.6777 877.798 47.6777 c 2
 899.99 48.1221 l 2
 913.013 48.418 922.334 50.0449 927.959 53.0049 c 0
 937.427 57.4443 945.415 63.8066 951.929 72.0928 c 0
 954.888 75.6426 959.771 82.4492 966.577 92.5117 c 10
1303.49 90.7354 m 10
 953.257 598.55 l 18
 947.046 607.427 942.012 614.229 938.164 618.965 c 0
 931.064 627.256 922.925 633.613 913.75 638.057 c 0
 907.832 641.016 898.364 642.637 885.342 642.939 c 2
 868.477 643.379 l 2
 862.852 643.379 860.19 644.858 860.483 647.822 c 2
 860.483 663.354 l 1
 965.688 661.138 l 0
 1082.88 663.354 l 1
 1082.43 648.262 l 2
 1082.43 645.01 1081.84 643.379 1080.65 643.379 c 2
 1042.48 642.939 l 2
 1030.05 642.939 1022.95 641.309 1021.17 638.057 c 0
 1017.92 632.729 1018.66 626.367 1023.39 618.965 c 0
 1026.65 613.34 1031.09 606.538 1036.71 598.55 c 2
 1386.5 90.7354 l 2
 1393.15 81.4141 1393.15 81.4141 1401.59 70.3164 c 0
 1407.21 62.918 1415.35 56.5557 1426 51.2285 c 0
 1431.92 48.2705 1441.39 46.6426 1454.41 46.3457 c 2
 1475.27 45.9023 l 2
 1481.19 45.9023 1484.16 44.2744 1484.16 41.0195 c 2
 1483.71 25.9277 l 1
 1380.73 28.1465 l 0
 1261.32 25.9277 l 1
 1260.87 41.4629 l 2
 1260.87 44.4229 1261.62 45.9023 1263.1 45.9023 c 2
 1297.72 46.3457 l 2
 1310.15 46.6426 1317.25 48.2705 1319.02 51.2285 c 0
 1321.99 56.2598 1321.25 62.623 1316.81 70.3164 c 0
 1315.03 73.5723 1310.59 80.3779 1303.49 90.7354 c 10
EndSplineSet
Fore
SplineSet
1000 -84 m 6
 1000 -174 971 -212 881 -212 c 6
 249 -212 l 6
 159 -212 120 -174 120 -84 c 6
 120 625 l 6
 120 708 168 754 249 754 c 6
 851 754 l 6
 941 754 1000 715 1000 625 c 6
 1000 -84 l 6
249 718 m 6
 189 718 156 685 156 625 c 6
 156 -53 l 6
 156 -113 189 -136 249 -136 c 6
 821 -136 l 6
 881 -136 904 -113 904 -53 c 6
 904 625 l 6
 904 685 881 718 821 718 c 6
 249 718 l 6
402 38 m 1
 394 41 380 41 371 41 c 3
 362 41 332 41 323 38 c 1
 574 410 579 402 647 527 c 1
 655 524 686 524 694 524 c 3
 702 524 717 524 725 527 c 1
 668 446 520 255 402 38 c 1
746 38 m 1
 732 41 700 41 686 41 c 3
 673 41 641 41 627 38 c 1
 549 189 495 281 335 527 c 1
 347 524 380 524 392 524 c 3
 405 524 437 524 451 527 c 1
 490 446 564 333 746 38 c 1
EndSplineSet
Position2: "'cpsp' Versalabstaende 1" dx=2 dy=0 dh=4 dv=0
Substitution2: "'c2sc' Versale nach Kapitaelchen 1" x.sc
EndChar

StartChar: Y
Encoding: 89 89 274
Width: 1100
Flags: HW
HStem: 78 16G<480 483 580 584> 552 15G<316 325 420 447 654 678 707 747>
VStem: 482 98<112 327>
LayerCount: 3
Back
SplineSet
254 72 m 6
 254 259 l 6
 254 269.667 250.808 292.502 245.49 301.667 c 6
 99.6655 547 l 6
 68.0469 600.194 57.8897 614.009 22 617 c 6
 10 618 l 6
 7.01074 618.249 0 619 0 625 c 6
 0 645 l 5
 1 646 l 5
 1 646 94 645 107 645 c 4
 113 645 222 646 222 646 c 5
 223 645 l 5
 223 626 l 6
 223 622 220.998 618.138 217 618 c 6
 188 617 l 6
 152.709 615.783 160.005 602.379 175 576 c 6
 312 335 l 5
 314 335 l 5
 442 576 l 6
 458.712 607.466 450.4 614.507 428 616 c 6
 398 618 l 6
 394.009 618.266 393 622 393 625 c 6
 393 645 l 5
 394 646 l 5
 394 646 473 645 486 645 c 4
 495 645 573 646 573 646 c 5
 575 645 l 5
 575 625 l 6
 575 620 570.973 618.568 565 618 c 6
 544 616 l 6
 508.725 612.64 498.565 594.556 482.228 565 c 6
 341.265 310 l 6
 335.506 299.433 334 286 334 267.667 c 6
 334 72 l 6
 334 41 350 27 389 27 c 6
 416 27 l 6
 420 27 424 24 424 19 c 6
 424 0 l 5
 422 -2 l 5
 422 -2 335 0 296 0 c 4
 260 0 167 -2 167 -2 c 5
 165 0 l 5
 165 19 l 6
 165 24 168 27 173 27 c 6
 199 27 l 6
 240 27 254 44 254 72 c 6
EndSplineSet
Fore
SplineSet
1000 -84 m 6
 1000 -174 971 -212 881 -212 c 6
 249 -212 l 6
 159 -212 120 -174 120 -84 c 6
 120 625 l 6
 120 708 168 754 249 754 c 6
 851 754 l 6
 941 754 1000 715 1000 625 c 6
 1000 -84 l 6
249 718 m 6
 189 718 156 685 156 625 c 6
 156 -53 l 6
 156 -113 189 -136 249 -136 c 6
 821 -136 l 6
 881 -136 904 -113 904 -53 c 6
 904 625 l 6
 904 685 881 718 821 718 c 6
 249 718 l 6
482 247 m 1
 454 296 340 482 310 527 c 1
 322 524 356 524 368 524 c 3
 381 524 414 524 427 527 c 1
 468 446 513 374 562 290 c 1
 482 247 l 1
540 293 m 1
 584 361 635 447 674 527 c 1
 682 524 711 524 721 524 c 3
 730 524 742 524 752 527 c 1
 662 388 610 314 580 254 c 1
 540 293 l 1
580 294 m 1
 580 225 582 81 586 38 c 1
 574 41 542 41 531 41 c 3
 520 41 489 41 477 38 c 1
 482 88 482 213 482 287 c 1
 580 294 l 1
EndSplineSet
Position2: "'cpsp' Versalabstaende 1" dx=2 dy=0 dh=4 dv=0
Substitution2: "'c2sc' Versale nach Kapitaelchen 1" y.sc
EndChar

StartChar: Z
Encoding: 90 90 275
Width: 1100
VWidth: 999
Flags: HW
HStem: -212 46<169.359 930.641> 81 55<528.105 746> 81 47<446 655.632> 509 56<350 572.603> 516.811 48.1895<406.333 619> 708 46<168.938 931.062>
VStem: 120 46<-162.981 705.906> 934 46<-162.981 705.906>
DStem2: 326 110 450 135 0.584227 0.811591<84.8633 501.342>
LayerCount: 3
Back
SplineSet
307 628 m 29
 484 628 l 29
405 531 m 29
 405 711 l 29
372 628 m 4
 372 646 387 661 405 661 c 4
 423 661 438 646 438 628 c 4
 438 610 423 595 405 595 c 4
 387 595 372 610 372 628 c 4
326 628 m 4
 326 671 362 707 405 707 c 4
 448 707 484 671 484 628 c 4
 484 585 448 549 405 549 c 4
 362 549 326 585 326 628 c 4
307 -133 m 25
 484 -133 l 25
405 -230 m 25
 405 -50 l 25
372 -133 m 0
 372 -115 387 -100 405 -100 c 0
 423 -100 438 -115 438 -133 c 0
 438 -151 423 -166 405 -166 c 0
 387 -166 372 -151 372 -133 c 0
326 -133 m 0
 326 -90 362 -54 405 -54 c 0
 448 -54 484 -90 484 -133 c 0
 484 -176 448 -212 405 -212 c 0
 362 -212 326 -176 326 -133 c 0
EndSplineSet
Fore
SplineSet
1000 -84 m 6
 1000 -174 971 -212 881 -212 c 6
 249 -212 l 6
 159 -212 120 -174 120 -84 c 6
 120 625 l 6
 120 708 168 754 249 754 c 6
 851 754 l 6
 941 754 1000 715 1000 625 c 6
 1000 -84 l 6
249 718 m 6
 189 718 156 685 156 625 c 6
 156 -53 l 6
 156 -113 189 -136 249 -136 c 6
 821 -136 l 6
 881 -136 904 -113 904 -53 c 6
 904 625 l 6
 904 685 881 718 821 718 c 6
 249 718 l 6
619 476.811 m 17xaf
 536.956 475.77 453.784 471.684 350 469 c 9x97
 348 472 l 1
 349 478 350 489 350 496 c 3
 350 504 349 514 348 525 c 1x8f
 350 527 l 1
 362 526 379 525 396 525 c 2x97
 654 525 l 2
 678 525 737 528 749 529 c 1
 752 529 754 528 754 525 c 3
 754 516 746 505 731 484 c 2
 450 95 l 2
 446 88 446 92 446 88 c 1xaf
 544 88 746 96 746 96 c 1xc7
 748 94 l 1
 747 88 746 77 746 70 c 3
 746 62 747 52 748 41 c 1xa7
 746 39 l 1
 734 40 720 41 693 41 c 2xc7
 406 41 l 2
 383 41 309 39 309 39 c 1
 306 42 l 17
 315 52 322 64 326 70 c 2
 619 476.811 l 17xaf
EndSplineSet
Layer: 2
SplineSet
-16 -134 m 6
 -16 628 l 6
 -16 672 21 707 63 707 c 6
 575 707 l 6
 617 707 654 672 654 628 c 6
 654 -134 l 6
 654 -178 616 -212 575 -212 c 6
 63 -212 l 6
 22 -212 -16 -178 -16 -134 c 6
575 661 m 6
 63 661 l 6
 49 661 30 650 30 628 c 6
 30 -133 l 6
 30 -152 46 -166 63 -166 c 6
 575 -166 l 6
 592 -166 608 -152 608 -133 c 6
 608 628 l 6
 608 650 589 661 575 661 c 6
EndSplineSet
Position2: "'cpsp' Versalabstaende 1" dx=2 dy=0 dh=4 dv=0
Substitution2: "'c2sc' Versale nach Kapitaelchen 1" z.sc
EndChar

StartChar: bracketleft
Encoding: 91 91 276
Width: 1100
VWidth: 999
Flags: HW
HStem: -80 28<549 631> 562 29<547 631>
VStem: 442 80<-31 540>
LayerCount: 3
Fore
SplineSet
1000 -84 m 6
 1000 -174 971 -212 881 -212 c 6
 249 -212 l 6
 159 -212 120 -174 120 -84 c 6
 120 625 l 6
 120 708 168 754 249 754 c 6
 851 754 l 6
 941 754 1000 715 1000 625 c 6
 1000 -84 l 6
249 718 m 6
 189 718 156 685 156 625 c 6
 156 -53 l 6
 156 -113 189 -136 249 -136 c 6
 821 -136 l 6
 881 -136 904 -113 904 -53 c 6
 904 625 l 6
 904 685 881 718 821 718 c 6
 249 718 l 6
442 -80 m 1
 442 591 l 1
 631 591 l 1
 631 562 l 1
 529 554 521 543 521 478 c 2
 521 33 l 2
 521 -32 528 -43 631 -52 c 1
 631 -80 l 1
 442 -80 l 1
EndSplineSet
Substitution2: "'c2sc' Versale nach Kapitaelchen 1" bracketleft.sc
AlternateSubs2: "'aalt' Alle Alternativen zeigen 1" bracketleft.sc
Substitution2: "'case' Versalformen 1" bracketleft.sc
EndChar

StartChar: backslash
Encoding: 92 92 277
Width: 1100
VWidth: 999
Flags: HMW
HStem: 597 8G<438 474>
DStem2: 472 605 438 605 0.294569 -0.95563<0 575.841>
LayerCount: 3
Fore
SplineSet
1000 -84 m 6
 1000 -174 971 -212 881 -212 c 6
 249 -212 l 6
 159 -212 120 -174 120 -84 c 6
 120 625 l 6
 120 708 168 754 249 754 c 6
 851 754 l 6
 941 754 1000 715 1000 625 c 6
 1000 -84 l 6
249 718 m 6
 189 718 156 685 156 625 c 6
 156 -53 l 6
 156 -113 189 -136 249 -136 c 6
 821 -136 l 6
 881 -136 904 -113 904 -53 c 6
 904 625 l 6
 904 685 881 718 821 718 c 6
 249 718 l 6
491 565 m 1
 664 5 l 1
 611 5 l 1
 438 565 l 1
 491 565 l 1
EndSplineSet
EndChar

StartChar: bracketright
Encoding: 93 93 278
Width: 1100
VWidth: 999
Flags: HW
HStem: -212 46<169.359 930.641> -80 28<469 549.068> 562 29<469 550.627> 708 46<168.938 931.062>
VStem: 120 46<-162.981 705.906> 579 79<-33.6958 544.532> 934 46<-162.981 705.906>
LayerCount: 3
Back
Refer: 276 91 S -1 0 0 -1 356 511 3
Fore
SplineSet
1000 -84 m 6
 1000 -174 971 -212 881 -212 c 6
 249 -212 l 6
 159 -212 120 -174 120 -84 c 6
 120 625 l 6
 120 708 168 754 249 754 c 6
 851 754 l 6
 941 754 1000 715 1000 625 c 6
 1000 -84 l 6
249 718 m 6
 189 718 156 685 156 625 c 6
 156 -53 l 6
 156 -113 189 -136 249 -136 c 6
 821 -136 l 6
 881 -136 904 -113 904 -53 c 6
 904 625 l 6
 904 685 881 718 821 718 c 6
 249 718 l 6
658 -80 m 1
 469 -80 l 1
 469 -52 l 1
 572 -43 579 -32 579 33 c 2
 579 478 l 2
 579 543 571 554 469 562 c 1
 469 591 l 1
 658 591 l 1
 658 -80 l 1
EndSplineSet
Substitution2: "'c2sc' Versale nach Kapitaelchen 1" bracketright.sc
AlternateSubs2: "'aalt' Alle Alternativen zeigen 1" bracketright.sc
Substitution2: "'case' Versalformen 1" bracketright.sc
Colour: ff00ff
EndChar

StartChar: underscore
Encoding: 95 95 280
Width: 1100
VWidth: 999
Flags: HW
HStem: -148 38<365 722>
LayerCount: 3
Fore
SplineSet
1000 -84 m 6
 1000 -174 971 -212 881 -212 c 6
 249 -212 l 6
 159 -212 120 -174 120 -84 c 6
 120 625 l 6
 120 708 168 754 249 754 c 6
 851 754 l 6
 941 754 1000 715 1000 625 c 6
 1000 -84 l 6
249 718 m 6
 189 718 156 685 156 625 c 6
 156 -53 l 6
 156 -113 189 -136 249 -136 c 6
 821 -136 l 6
 881 -136 904 -113 904 -53 c 6
 904 625 l 6
 904 685 881 718 821 718 c 6
 249 718 l 6
732 21 m 1
 732 -18 l 1
 375 -18 l 1
 375 21 l 1
 732 21 l 1
EndSplineSet
EndChar

StartChar: a
Encoding: 97 97 281
Width: 1100
VWidth: 999
Flags: W
HStem: -212 76<179.2 885.174> 36 48<467.504 544.014 618.5 698.581> 332 41<465.184 562.304> 718 36<188.821 875.472>
VStem: 120 36<-107.953 686.051> 374 90<84.5338 168.541> 576 83<106.606 208 245.002 319.583> 904 96<-118.923 694.8>
DStem2: 506 229 516 192 0.97185 0.2356<-47.2497 63.0819>
AnchorPoint: "ogonek" 693 66 basechar 0
AnchorPoint: "unten_anhang" 482 50 basechar 0
AnchorPoint: "unten_punkt" 504 -27 basechar 0
AnchorPoint: "top_punkt" 515 466 basechar 0
AnchorPoint: "top_akzent" 514 537 basechar 0
LayerCount: 3
Back
SplineSet
408 299 m 6xb4
 401 147 l 6
 398 79 426 51 446 51 c 0
 458 51 468 54 484 63 c 1
 493 61 499 49 496 40 c 1
 484 24 437 -14 380 -14 c 0xb4
 345 -14 323 -2 296 21 c 0
 289 27 285 29 280 29 c 0x78
 275 29 269 25 259 18 c 0
 241 5 211 -14 174 -14 c 0
 116 -14 62 31 62 101 c 4
 62 152 93 203 166 225 c 4
 204 237 232 245 260 253 c 4
 278 258 283 265 284 273 c 4
 285 284 286 295 286 307 c 4
 286 345 271 393 228 393 c 4
 204 393 183 379 176 336 c 4
 174 320 168 311 159 304 c 4
 144 293 105 281 87 281 c 4
 70 281 64 292 64 306 c 4
 64 332 88 364 112 383 c 4
 146 410 209 444 280 444 c 4
 364 444 413 402 408 299 c 6xb4
279 110 m 6xb8
 281 193 l 6
 282 209 281 212 274 211 c 4
 229 205 190 168 190 121 c 4
 190 89 213 51 241 51 c 0
 272 51 278 79 279 110 c 6xb8
EndSplineSet
Fore
SplineSet
1000 -84 m 6
 1000 -174 971 -212 881 -212 c 6
 249 -212 l 6
 159 -212 120 -174 120 -84 c 6
 120 625 l 6
 120 708 168 754 249 754 c 6
 851 754 l 6
 941 754 1000 715 1000 625 c 6
 1000 -84 l 6
249 718 m 6
 189 718 156 685 156 625 c 6
 156 -53 l 6
 156 -113 189 -136 249 -136 c 6
 821 -136 l 6
 881 -136 904 -113 904 -53 c 6
 904 625 l 6
 904 685 881 718 821 718 c 6
 249 718 l 6
656 107 m 3
 656 92 665 84 674 84 c 3
 684 84 694 95 701 100 c 1
 703 98 l 1
 711 94 715 86 719 78 c 1
 695 48 664 36 635 36 c 3
 602 36 581 56 575 80 c 1
 574 80 l 1
 536 46 499 36 470 36 c 3
 417 36 374 62 374 117 c 3
 374 168 434 212 506 229 c 2
 572 245 l 2
 574 245 576 248 576 254 c 3
 576 311 557 332 517 332 c 3
 483 332 452 307 432 273 c 1
 415 274 l 1
 395 323 l 1
 398 326 l 1
 416 342 470 373 524 373 c 3
 591 373 659 348 659 251 c 3
 659 243 656 129 656 107 c 3
576 208 m 1
 516 192 l 2
 474 181 464 155 464 124 c 3
 464 104 476 81 499 81 c 3
 520 81 544 98 563 113 c 0
 569 118 576 123 576 133 c 2
 576 208 l 1
EndSplineSet
Substitution2: "'sups' Hochgestellte 1" a.superior
AlternateSubs2: "'aalt' Alle Alternativen zeigen 1" a.sc
Substitution2: "'sinf' Wissenschaftliche Indices 1" a.inferior
Substitution2: "'smcp' Gemeine nach Kapitaelchen 1" a.sc
EndChar

StartChar: b
Encoding: 98 98 282
Width: 1100
VWidth: 999
Flags: HW
HStem: 78 40<486 578> 368 47<499 587> 594 15G<459 471>
VStem: 379 88<136 349 374 587> 618 92<191 332>
AnchorPoint: "unten_punkt" 545 5 basechar 0
AnchorPoint: "top_punkt" 558 500 basechar 0
LayerCount: 3
Back
SplineSet
144.043 696.289 m 5
 144.043 386.719 l 5
 156.738 400.391 168.945 410.645 181.152 417.969 c 4
 210.449 436.035 239.746 443.848 270.508 443.848 c 4
 305.664 443.848 339.355 432.617 369.629 405.273 c 4
 418.945 361.328 441.895 306.152 441.895 239.258 c 4
 441.895 161.133 417.48 99.6094 369.629 53.2227 c 4
 355.469 39.5508 339.844 27.3438 321.777 16.6016 c 4
 296.387 0.976562 264.16 -9.76562 225.586 -9.76562 c 4
 183.105 -9.76562 147.461 1.95312 118.164 27.3438 c 5
 109.375 14.4854 96.1914 -1.30176 86.9141 -11.2305 c 5
 66.4062 -6.34766 l 5
 68.8477 17.0898 69.3359 33.2031 69.3359 72.2656 c 6
 69.3359 576.66 l 6
 69.3359 623.047 59.5703 644.043 39.5508 644.043 c 4
 7.32422 640.625 l 6
 4.39453 640.137 1.95312 642.578 1.95312 645.508 c 6
 0 670.898 l 5
 15.625 670.898 52.2461 676.27 69.3359 679.688 c 4
 87.4023 683.105 102.051 687.5 122.07 696.289 c 5
 144.043 696.289 l 5
144.043 56.1523 m 5
 164.062 31.7383 189.453 18.0664 220.215 18.0664 c 4
 240.723 18.0664 292.48 22.4609 325.684 75.6836 c 4
 349.609 113.77 364.746 162.109 364.746 226.074 c 4
 364.746 251.953 361.816 305.664 330.078 351.074 c 4
 308.594 381.348 284.18 400.391 250 400.391 c 4
 229.004 400.391 209.961 396.973 192.383 388.672 c 4
 173.34 380.371 157.715 369.629 144.043 355.957 c 5
 144.043 56.1523 l 5
EndSplineSet
Fore
SplineSet
1000 -84 m 2
 1000 -174 971 -212 881 -212 c 2
 249 -212 l 2
 159 -212 120 -174 120 -84 c 2
 120 625 l 2
 120 708 168 754 249 754 c 2
 851 754 l 2
 941 754 1000 715 1000 625 c 2
 1000 -84 l 2
249 718 m 2
 189 718 156 685 156 625 c 2
 156 -53 l 2
 156 -113 189 -136 249 -136 c 2
 821 -136 l 2
 881 -136 904 -113 904 -53 c 2
 904 625 l 2
 904 685 881 718 821 718 c 2
 249 718 l 2
468 421 m 6
 468 334 l 5
 493 362 525 375 561 375 c 4
 626 375 710 319 710 227 c 4
 710 108 605 38 528 38 c 4
 496 38 474 47 452 66 c 5
 441 56 423 47 416 37 c 5
 409 37 380 38 375 40 c 5
 378 57 379 70 379 99 c 6
 379 407 l 6
 379 464 377 516 372 548 c 5
 373 550 l 5
 403 553 449 562 468 569 c 5
 473 569 475 567 475 562 c 5
 469 516 468 476 468 421 c 6
468 113 m 5
 482 94 500 78 524 78 c 4
 595 78 618 128 618 214 c 4
 618 286 592 328 546 328 c 4
 538 328 497 326 468 296 c 5
 468 113 l 5
EndSplineSet
Substitution2: "'sinf' Wissenschaftliche Indices 1" b.inferior
Substitution2: "'sups' Hochgestellte 1" b.superior
AlternateSubs2: "'aalt' Alle Alternativen zeigen 1" b.sc
Substitution2: "'smcp' Gemeine nach Kapitaelchen 1" b.sc
EndChar

StartChar: c
Encoding: 99 99 283
Width: 1100
VWidth: 999
Flags: HW
HStem: 46 49<500 595> 342 40<488 578>
VStem: 356 92<155 285>
AnchorPoint: "ogonek" 620 92 basechar 0
AnchorPoint: "unten_anhang" 540 56 basechar 0
AnchorPoint: "unten_punkt" 528 -31 basechar 0
AnchorPoint: "top_punkt" 535 466 basechar 0
AnchorPoint: "top_akzent" 533 537 basechar 0
LayerCount: 3
Back
SplineSet
281 440 m 4
 315 440 359 433 386 423 c 5
 399 412 407 398 407 371 c 4
 407 341 393 314 381 314 c 4
 376 314 367 316 365 319 c 4
 337 359 298 394 262 394 c 4
 197 394 162 309 162 240 c 0
 162 161 213 66 305 66 c 0
 342 66 372 78 394 115 c 1
 406 116 420 109 420 93 c 1
 398 43 338 -14 243 -14 c 0
 117 -14 31 85 31 203 c 0
 31 345 146 440 281 440 c 4
EndSplineSet
Fore
SplineSet
1000 -84 m 2
 1000 -174 971 -212 881 -212 c 2
 249 -212 l 2
 159 -212 120 -174 120 -84 c 2
 120 625 l 2
 120 708 168 754 249 754 c 2
 851 754 l 2
 941 754 1000 715 1000 625 c 2
 1000 -84 l 2
249 718 m 2
 189 718 156 685 156 625 c 2
 156 -53 l 2
 156 -113 189 -136 249 -136 c 2
 821 -136 l 2
 881 -136 904 -113 904 -53 c 2
 904 625 l 2
 904 685 881 718 821 718 c 2
 249 718 l 2
538 332 m 7
 488 332 448 296 448 219 c 7
 448 140 491 85 548 85 c 7
 578 85 607 95 636 131 c 5
 638 131 l 5
 648 125 653 119 654 112 c 5
 635 71 587 36 530 36 c 7
 420 36 356 103 356 200 c 7
 356 306 438 373 539 373 c 7
 576 373 624 361 647 349 c 5
 648 347 l 5
 631 271 l 5
 618 270 l 5
 598 304 567 332 538 332 c 7
EndSplineSet
Substitution2: "'sinf' Wissenschaftliche Indices 1" c.inferior
Substitution2: "'sups' Hochgestellte 1" c.superior
Substitution2: "'smcp' Gemeine nach Kapitaelchen 1" c.sc
AlternateSubs2: "'aalt' Alle Alternativen zeigen 1" c.sc
EndChar

StartChar: d
Encoding: 100 100 284
Width: 1100
VWidth: 999
Flags: HW
HStem: 78 50<443 521> 84 16G<575 583 660 667> 375 40<447 545> 594 15G<645 657>
VStem: 318 92<166 309> 566 88<156 354 399 587>
AnchorPoint: "top_akzent" 482 570 basechar 0
AnchorPoint: "top_punkt" 482 498 basechar 0
AnchorPoint: "ogonek" 552 101 basechar 0
AnchorPoint: "unten_punkt" 512 6 basechar 0
LayerCount: 3
Back
SplineSet
515.84 50.293 m 5xaf
 515.84 25.3906 l 5x6f
 494.355 21.4844 420.625 8.78906 363.496 -11.7188 c 5
 363.496 52.2461 l 5
 303.438 16.6016 l 6
 264.863 -5.85938 238.496 -11.7188 226.289 -11.7188 c 4
 147.676 -11.7188 44.6484 60.0586 44.6484 197.754 c 4
 44.6484 334.473 164.277 441.895 298.555 441.895 c 4xaf
 312.227 441.895 340.547 438.965 363.496 431.152 c 5x9f
 363.496 569.824 l 6
 363.496 634.766 358.613 637.695 287.324 642.578 c 5
 287.324 666.504 l 5
 338.594 673.34 404.512 687.988 441.133 700.684 c 5
 441.133 113.281 l 6
 441.133 62.0117 447.969 57.1289 484.59 53.2227 c 6
 515.84 50.293 l 5xaf
363.496 83.4961 m 5xaf
 363.496 355.469 l 5
 339.57 389.648 299.531 405.273 261.934 405.273 c 4
 216.523 405.273 134.004 367.188 134.004 224.609 c 4
 134.004 107.422 205.781 50.293 268.77 50.293 c 4
 304.414 50.293 339.57 65.918 363.496 83.4961 c 5xaf
EndSplineSet
Fore
SplineSet
1000 -84 m 2
 1000 -174 971 -212 881 -212 c 2
 249 -212 l 2
 159 -212 120 -174 120 -84 c 2
 120 625 l 2
 120 708 168 754 249 754 c 2
 851 754 l 2
 941 754 1000 715 1000 625 c 2
 1000 -84 l 2
249 718 m 2
 189 718 156 685 156 625 c 2
 156 -53 l 2
 156 -113 189 -136 249 -136 c 2
 821 -136 l 2
 881 -136 904 -113 904 -53 c 2
 904 625 l 2
 904 685 881 718 821 718 c 2
 249 718 l 2
566 91 m 5x7c
 539 56 502 35 466 35 c 7xbc
 385 35 318 103 318 195 c 7
 318 297 412 372 510 372 c 7
 525 372 548 365 566 356 c 5
 566 405 l 6
 566 461 564 513 558 545 c 5
 560 548 l 5
 590 550 636 559 655 567 c 5
 660 567 662 564 662 559 c 5
 656 513 654 473 654 418 c 6
 654 187 l 6
 654 131 661 75 667 43 c 5
 665 41 l 5
 656 42 627 43 618 43 c 7
 607 43 588 42 578 41 c 5
 573 41 571 41 571 43 c 5
 567 91 l 5
 566 91 l 5x7c
566 131 m 5
 566 287 l 5
 548 316 537 332 502 332 c 7
 466 332 410 321 410 209 c 7
 410 115 445 85 485 85 c 7
 516 85 538 97 566 131 c 5
EndSplineSet
Substitution2: "'sinf' Wissenschaftliche Indices 1" d.inferior
Substitution2: "'sups' Hochgestellte 1" d.superior
AlternateSubs2: "'aalt' Alle Alternativen zeigen 1" d.sc
Substitution2: "'smcp' Gemeine nach Kapitaelchen 1" d.sc
EndChar

StartChar: e
Encoding: 101 101 285
Width: 1100
VWidth: 999
Flags: W
HStem: -212 76<179.2 885.174> 36 51<502.912 627.15> 226 33<463 580.998> 336 37<491.543 570.209> 718 36<188.821 875.472>
VStem: 120 36<-107.953 686.051> 366 95<132.814 226 259 277.396> 581 95<234.5 314.188> 904 96<-118.923 694.8>
AnchorPoint: "ogonek" 657 84 basechar 0
AnchorPoint: "top_akzent" 534 537 basechar 0
AnchorPoint: "top_punkt" 539 466 basechar 0
AnchorPoint: "unten_punkt" 533 -27 basechar 0
LayerCount: 3
Back
SplineSet
377.93 93.2617 m 5
 397.949 76.6602 l 5
 360.352 24.9023 300.781 -12.207 229.492 -12.207 c 4
 91.7969 -12.207 34.1797 90.332 34.1797 199.219 c 4
 34.1797 351.074 134.277 441.895 229.492 441.895 c 4
 360.84 441.895 392.09 339.355 392.09 254.883 c 4
 392.09 243.652 384.766 237.793 374.023 237.793 c 6
 110.84 237.793 l 5
 110.84 231.934 109.863 226.074 109.863 217.773 c 4
 109.863 116.211 180.664 37.1094 253.418 37.1094 c 4
 308.105 37.1094 343.262 55.1758 377.93 93.2617 c 5
114.258 276.855 m 5
 297.852 276.855 l 6
 307.617 276.855 312.5 281.738 312.5 290.527 c 4
 312.5 383.789 264.648 407.715 228.516 407.715 c 4
 205.566 407.715 130.859 398.926 114.258 276.855 c 5
EndSplineSet
Fore
SplineSet
1000 -84 m 2
 1000 -174 971 -212 881 -212 c 2
 249 -212 l 2
 159 -212 120 -174 120 -84 c 2
 120 625 l 2
 120 708 168 754 249 754 c 2
 851 754 l 2
 941 754 1000 715 1000 625 c 2
 1000 -84 l 2
249 718 m 2
 189 718 156 685 156 625 c 2
 156 -53 l 2
 156 -113 189 -136 249 -136 c 2
 821 -136 l 2
 881 -136 904 -113 904 -53 c 2
 904 625 l 2
 904 685 881 718 821 718 c 2
 249 718 l 2
666 129 m 5
 677 123 682 114 682 103 c 5
 653 64 597 36 543 36 c 7
 431 36 366 107 366 193 c 7
 366 307 463 373 534 373 c 7
 634 373 676 302 676 239 c 7
 676 230 671 226 663 226 c 6
 461 226 l 5
 461 120 515 87 558 87 c 7
 599 87 640 101 666 129 c 5
463 259 m 5
 570 259 l 6
 578 259 581 263 581 269 c 7
 581 323 562 336 534 336 c 7
 517 336 474 326 463 259 c 5
EndSplineSet
Substitution2: "'sups' Hochgestellte 1" e.superior
AlternateSubs2: "'aalt' Alle Alternativen zeigen 1" e.sc
Substitution2: "'sinf' Wissenschaftliche Indices 1" e.inferior
Substitution2: "'smcp' Gemeine nach Kapitaelchen 1" e.sc
EndChar

StartChar: f
Encoding: 102 102 286
Width: 1100
VWidth: 999
Flags: W
HStem: -212 76<179.2 885.174> 327 40<378 431 519 606> 517 51<532.039 629.138> 718 36<188.821 875.472>
VStem: 120 36<-107.953 686.051> 431 88<47.0215 327 367 474.657> 904 96<-118.923 694.8>
AnchorPoint: "unten_anhang" 475 94 basechar 0
AnchorPoint: "unten_punkt" 474 4 basechar 0
LayerCount: 3
Back
SplineSet
452.406 87.2852 m 10
 452.406 378.035 l 25
 380.496 378.035 l 25
 380.496 413.546 l 25
 452.406 413.546 l 25
 452.406 423.312 l 2
 452.406 495.811 458.327 548.188 470.163 580.449 c 0
 478.451 603.232 492.061 622.031 511.001 636.821 c 0
 534.38 655.171 558.94 664.346 584.688 664.346 c 0
 623.75 664.048 654.678 653.989 677.461 634.16 c 0
 687.524 625.874 692.554 614.482 692.554 599.98 c 0
 692.554 590.806 689.741 583.413 684.116 577.788 c 0
 677.905 571.87 669.912 569.497 660.146 570.684 c 0
 644.468 572.759 633.96 580.747 628.633 594.653 c 0
 621.23 613.887 612.651 626.47 602.886 632.383 c 0
 596.968 635.938 590.459 637.71 583.354 637.71 c 0
 562.349 637.71 544.438 621.733 529.644 589.771 c 0
 520.469 567.876 515.884 525.552 515.884 462.818 c 10
 515.884 413.546 l 25
 612.207 413.546 l 25
 612.207 378.035 l 25
 515.884 378.035 l 17
 515.884 87.2852 l 18
 515.884 80.1836 516.182 73.377 516.772 66.8662 c 0
 517.358 59.4688 521.064 53.1055 527.866 47.7783 c 0
 531.421 44.8203 539.707 43.1914 552.725 42.8965 c 2
 567.373 42.4521 l 2
 570.928 42.4521 572.7 40.8242 572.7 37.5693 c 2
 572.7 22.4775 l 1
 482.591 24.252 l 0
 396.032 22.4775 l 1
 396.032 38.0137 l 2
 396.032 40.9727 397.66 42.4521 400.915 42.4521 c 2
 415.563 42.8965 l 2
 428.586 43.1914 436.87 44.8203 440.421 47.7783 c 0
 446.636 52.2168 450.337 58.5801 451.519 66.8662 c 0
 452.112 71.0098 452.406 77.8164 452.406 87.2852 c 10
EndSplineSet
Fore
SplineSet
1000 -84 m 2
 1000 -174 971 -212 881 -212 c 2
 249 -212 l 2
 159 -212 120 -174 120 -84 c 2
 120 625 l 2
 120 708 168 754 249 754 c 2
 851 754 l 2
 941 754 1000 715 1000 625 c 2
 1000 -84 l 2
249 718 m 2
 189 718 156 685 156 625 c 2
 156 -53 l 2
 156 -113 189 -136 249 -136 c 2
 821 -136 l 2
 881 -136 904 -113 904 -53 c 2
 904 625 l 2
 904 685 881 718 821 718 c 2
 249 718 l 2
482 511 m 4
 514 544 569 568 616 568 c 7
 630 568 644 565 650 562 c 5
 650 559 l 5
 642 545 635 504 630 484 c 5
 621 483 l 5
 613 498 600 517 578 517 c 7
 537 517 516 488 516 446 c 7
 516 430 519 393 519 374 c 6
 519 367 l 5
 600 367 l 6
 604 367 606 365 606 362 c 6
 606 337 l 6
 606 330 596 327 589 327 c 6
 519 327 l 5
 519 195 l 6
 519 139 520 88 527 45 c 5
 525 43 l 5
 525 43 501 45 475 45 c 7
 449 45 424 43 424 43 c 5
 423 45 l 5
 430 85 431 139 431 195 c 6
 431 327 l 5
 381 327 l 6
 378 327 378 328 378 331 c 6
 378 352 l 6
 378 358 381 367 395 367 c 6
 431 367 l 5
 431 389 l 6
 431 448 450 477 482 511 c 4
EndSplineSet
Substitution2: "'sinf' Wissenschaftliche Indices 1" f.inferior
Substitution2: "'sups' Hochgestellte 1" f.superior
Substitution2: "'smcp' Gemeine nach Kapitaelchen 1" f.sc
AlternateSubs2: "'aalt' Alle Alternativen zeigen 1" f.sc
EndChar

StartChar: g
Encoding: 103 103 287
Width: 1100
VWidth: 999
Flags: W
HStem: -212 76<179.2 885.174> -109 31<467.437 579.875> 57 60<457.178 475.823 477.03 616.503> 175 32<479.917 556.258> 366 33<475.704 554.01> 718 36<188.821 875.472>
VStem: 120 36<-107.953 686.051> 360 81<-58.8228 28.3205> 380 81<220.21 347.133> 384 58<112.953 188.27> 573 80<221.795 345.025> 630 77<-36.8608 41.4526> 904 96<-118.923 694.8>
AnchorPoint: "unten_punkt" 475 -40 basechar 0
AnchorPoint: "top_akzent" 471 510 basechar 0
AnchorPoint: "top_punkt" 471 438 basechar 0
LayerCount: 3
Back
SplineSet
52 292 m 4
 52 401.85 143.758 447 248 447 c 5
 433 449 l 5
 433 380 l 5
 341 380 l 5
 344.333 375.333 347.667 371 351 367 c 134
 360 356 l 6
 366.228 349.772 370.589 343.353 375 336 c 5
 381 322.5 l 134
 384.48 314.96 388 301.152 388 280 c 4
 388 278 388 276 388 274 c 4
 387.333 273.333 387 272.5 387 271.5 c 134
 387 268 l 6
 387 256.8 380.067 232.29 369 212 c 6
 363 202 l 6
 354.599 187.997 344.273 170.637 311 154 c 5
 291.5 146 l 134
 287.332 144.245 256.7 135 248 135 c 5
 226 131 l 5
 169.441 122.299 164 108.8 164 94 c 4
 164 59.2002 261.229 45.9424 301 36 c 5
 359.462 24.6328 387.3 4.7002 402 -10 c 5
 419.354 -31.0732 431 -56.2002 431 -87 c 4
 431 -144.2 393.627 -230 219 -230 c 4
 89.8594 -230 12 -168.322 12 -94 c 4
 12 -16.3799 61.9053 12.7705 125 28 c 5
 120.227 30.3867 80 53.4844 80 85 c 4
 80 110.6 100.318 136.329 151 149 c 5
 151 153 l 5
 106.385 166.728 52 208.6 52 292 c 4
221 -159 m 4
 274.662 -159 345 -146 345 -94 c 4
 345 -53.2002 296.632 -33.6055 251 -26 c 5
 237 -24 l 6
 232.333 -23.333 227.667 -23 223 -23 c 4
 218.333 -22.333 214 -22 210 -22 c 6
 198 -22 l 6
 136.029 -22 96 -49.2002 96 -90 c 4
 96 -117.6 114.1 -159 221 -159 c 4
308 293 m 6
 308 330.566 269.347 370 221 370 c 4
 169.133 370 132 331.9 132 289 c 4
 132 234.249 171.901 207 222 207 c 4
 277.341 207 308 244.094 308 291 c 6
 308 293 l 6
EndSplineSet
Fore
SplineSet
1000 -84 m 2xfe08
 1000 -174 971 -212 881 -212 c 2
 249 -212 l 2
 159 -212 120 -174 120 -84 c 2
 120 625 l 2
 120 708 168 754 249 754 c 2
 851 754 l 2
 941 754 1000 715 1000 625 c 2
 1000 -84 l 2xfe08
249 718 m 2
 189 718 156 685 156 625 c 2
 156 -53 l 2
 156 -113 189 -136 249 -136 c 2
 821 -136 l 2
 881 -136 904 -113 904 -53 c 2
 904 625 l 2
 904 685 881 718 821 718 c 2
 249 718 l 2
573 279 m 7xfea8
 573 335 556 366 511 366 c 7
 472 366 461 330 461 296 c 7
 461 248 471 207 520 207 c 7
 547 207 573 225 573 279 c 7xfea8
653 286 m 7
 653 225 605 175 518 175 c 7
 493 175 475 177 460 186 c 5
 458 187 456 188 454 189 c 5
 446 176 442 159 442 144 c 7xfe68
 442 111 464 111 485 111 c 7
 489 111 496 112 507 113 c 4
 524 115 541 117 554 117 c 7
 623 117 707 95 707 18 c 7
 707 -63 586 -109 490 -109 c 7
 435 -109 360 -89 360 -24 c 7xff18
 360 9 388 43 426 67 c 5
 404 73 384 93 384 125 c 7xfe48
 384 150 395 184 415 202 c 5
 411 207 l 5
 394 220 380 247 380 285 c 7
 380 349 438 399 519 399 c 7
 535 399 550 396 563 392 c 5
 619 395 661 403 697 406 c 5
 700 404 l 5
 698 397 697 387 697 380 c 7
 697 373 698 365 700 358 c 5
 697 356 l 5
 666 359 626 362 603 364 c 5
 610 365 l 5
 635 348 653 316 653 286 c 7
478 55 m 5
 450 33 441 16 441 -9 c 7
 441 -60 485 -78 511 -78 c 7
 575 -78 630 -45 630 1 c 7xff18
 630 53 570 57 528 57 c 7
 518 57 498 54 476 54 c 7
 472 54 483 55 478 55 c 5
EndSplineSet
Substitution2: "'sinf' Wissenschaftliche Indices 1" g.inferior
Substitution2: "'sups' Hochgestellte 1" g.superior
AlternateSubs2: "'aalt' Alle Alternativen zeigen 1" g.sc
Substitution2: "'smcp' Gemeine nach Kapitaelchen 1" g.sc
EndChar

StartChar: h
Encoding: 104 104 288
Width: 1100
VWidth: 999
Flags: W
HStem: -212 76<179.2 885.174> 325 49<506.518 585.72> 548 20G<454.5 466> 718 36<188.821 875.472>
VStem: 120 36<-107.953 686.051> 367 103<423.566 550> 374 89<47.0099 290.763 315 545.485> 594 89<47.0099 318.633> 904 96<-118.923 694.8>
AnchorPoint: "ogonek" 659 94 basechar 0
AnchorPoint: "top_punkt" 566 499 basechar 0
AnchorPoint: "top_akzent" 565 571 basechar 0
AnchorPoint: "unten_punkt" 535 4 basechar 0
LayerCount: 3
Back
SplineSet
494 180 m 6
 494 104 495 57 504 0 c 5
 502 -3 l 5
 502 -3 469 0 435 0 c 4
 400 0 367 -3 367 -3 c 5
 366 0 l 5
 375 54 376 105 376 180 c 6
 376 269 l 6
 376 339 366 372 313 372 c 4
 269 372 252.999 358 201.999 298 c 5
 202 180 l 6
 202 104 203.5 57 212 0 c 5
 210 -3 l 5
 210 -3 177.333 0 143 0 c 4
 108 0 75 -3 75 -3 c 5
 74 0 l 5
 82.5 53.5 84 105 84 180 c 6
 84 235 l 6
 84 309.667 81.667 368.333 74 411 c 5
 76 414 l 5
 116.5 417 174.931 428.972 200 439 c 5
 206.333 439 209 436 209 429 c 5
 204 398.667 199.806 357 199.806 357 c 5
 201.999 356.998 l 5
 265.999 431.998 292 439 343 439 c 4
 433 439 494 370 494 281 c 6
 494 180 l 6
EndSplineSet
Fore
SplineSet
1000 -84 m 2xf980
 1000 -174 971 -212 881 -212 c 2
 249 -212 l 2
 159 -212 120 -174 120 -84 c 2
 120 625 l 2
 120 708 168 754 249 754 c 2
 851 754 l 2
 941 754 1000 715 1000 625 c 2
 1000 -84 l 2xf980
249 718 m 2
 189 718 156 685 156 625 c 2
 156 -53 l 2
 156 -113 189 -136 249 -136 c 2
 821 -136 l 2
 881 -136 904 -113 904 -53 c 2
 904 625 l 2
 904 685 881 718 821 718 c 2
 249 718 l 2
594 180 m 6
 594 252 l 6
 594 313 580 325 538 325 c 4
 516 325 499 305 463 270 c 5
 463 180 l 6xfb80
 463 123 464 88 470 45 c 5
 469 43 l 5
 469 43 444 45 419 45 c 4
 392 45 368 43 368 43 c 5
 367 45 l 5xfd80
 373 85 374 124 374 180 c 6
 374 406 l 6xfb80
 374 463 373 515 367 547 c 5
 368 550 l 5
 399 552 445 561 464 568 c 5
 468 568 470 566 470 561 c 5xfd80
 465 515 463 476 463 421 c 6
 463 315 l 5xfb80
 513 365 542 374 572 374 c 4
 626 374 683 335 683 258 c 6
 683 180 l 6
 683 123 684 88 690 45 c 5
 689 43 l 5
 689 43 664 45 638 45 c 4
 612 45 587 43 587 43 c 5
 587 45 l 5
 593 85 594 124 594 180 c 6
EndSplineSet
Substitution2: "'sinf' Wissenschaftliche Indices 1" h.inferior
Substitution2: "'salt' Stilistische Alternativformen 1" h.alt
Substitution2: "'sups' Hochgestellte 1" h.superior
AlternateSubs2: "'aalt' Alle Alternativen zeigen 1" h.sc h.alt
Substitution2: "'smcp' Gemeine nach Kapitaelchen 1" h.sc
EndChar

StartChar: i
Encoding: 105 105 289
Width: 1100
VWidth: 999
Flags: W
HStem: -212 76<179.2 885.174> 44 330<479.765 570> 466 104<483.248 566.752> 718 36<188.821 875.472>
VStem: 120 36<-107.953 686.051> 473 104<96.478 355 475.794 560.206> 479 88<46.0099 351.446> 904 96<-118.923 694.8>
AnchorPoint: "unten_anhang" 531 92 basechar 0
AnchorPoint: "ogonek" 585 91 basechar 0
AnchorPoint: "unten_punkt" 530 3 basechar 0
LayerCount: 3
Back
SplineSet
-90.8203 618.652 m 5
 528.32 618.652 l 5
 528.32 522.949 l 5
 -90.8203 522.949 l 5
 -90.8203 618.652 l 5
-57.1289 0.976562 m 1
 990.234 0.976562 l 1
741.699 27.832 m 2
 768.066 27.832 l 2
 772.461 27.832 776.367 24.9023 776.367 19.5312 c 2
 776.367 0.976562 l 1
 774.414 -0.976562 l 1
 9.27734 -0.976562 l 1
 7.32422 0.976562 l 1
 7.32422 19.5312 l 2
 7.32422 24.9023 10.2539 27.832 15.1367 27.832 c 2
 41.5039 27.832 l 2
 82.5195 27.832 702.148 27.832 741.699 27.832 c 2
EndSplineSet
Fore
SplineSet
479 221 m 6xfb
 479 277 477 320 471 353 c 5
 473 355 l 5xfd
 503 357 549 366 568 374 c 5
 572 374 575 372 575 366 c 5
 569 320 567 289 567 233 c 6
 567 180 l 6
 567 122 569 87 575 44 c 5
 573 42 l 5
 573 42 548 44 523 44 c 4
 497 44 472 42 472 42 c 5
 471 44 l 5
 477 85 479 123 479 180 c 6
 479 221 l 6xfb
473 518 m 7
 473 546 496 570 525 570 c 7
 554 570 577 546 577 518 c 7
 577 490 554 466 525 466 c 7
 496 466 473 490 473 518 c 7
1000 -84 m 2
 1000 -174 971 -212 881 -212 c 2
 249 -212 l 2
 159 -212 120 -174 120 -84 c 2
 120 625 l 2
 120 708 168 754 249 754 c 2
 851 754 l 2
 941 754 1000 715 1000 625 c 2
 1000 -84 l 2
249 718 m 2
 189 718 156 685 156 625 c 2
 156 -53 l 2
 156 -113 189 -136 249 -136 c 2
 821 -136 l 2
 881 -136 904 -113 904 -53 c 2
 904 625 l 2
 904 685 881 718 821 718 c 2
 249 718 l 2
EndSplineSet
Substitution2: "'smcp' Gemeine nach Kapitaelchen i > i.sc 1" i.sc
Substitution2: "'smcp' Gemeine nach Kapitaelchen i > idotaccent.sc" idotaccent.sc
Substitution2: "'sinf' Wissenschaftliche Indices 1" i.inferior
Substitution2: "'sups' Hochgestellte 1" i.superior
AlternateSubs2: "'aalt' Alle Alternativen zeigen 1" i.sc
Colour: ff00ff
EndChar

